ply
format ascii 1.0
comment PCL generated
obj_info is_cyberware_data 0
obj_info is_mesh 0
obj_info is_warped 0
obj_info is_interlaced 0
obj_info num_cols 130
obj_info num_rows 1
obj_info echo_rgb_offset_x 0
obj_info echo_rgb_offset_y 0
obj_info echo_rgb_offset_z 0
obj_info echo_rgb_frontfocus 0.0
obj_info echo_rgb_backfocus 0.0
obj_info echo_rgb_pixelsize 0.0
obj_info echo_rgb_centerpixel 0
obj_info echo_frames 1
obj_info echo_lgincr 0.0
element vertex 130
property float x
property float y
property float z
end_header
0 0 0
0 0 -4
3.4641 0 -2
1.1547 3.26599 -2
0 0 -2
0 0 -6
3.4641 0 -4
1.1547 3.26599 -4
1.73205 0 -1
1.73205 0 -5
5.19615 0 -3
2.88675 3.26599 -3
0.57735 1.63299 -1
0.57735 1.63299 -5
4.04145 1.63299 -3
1.73205 4.89898 -3
0 0 -1
0 0 -5
3.4641 0 -3
1.1547 3.26599 -3
0 0 -3
0 0 -7
3.4641 0 -5
1.1547 3.26599 -5
1.73205 0 -2
1.73205 0 -6
5.19615 0 -4
2.88675 3.26599 -4
0.57735 1.63299 -2
0.57735 1.63299 -6
4.04145 1.63299 -4
1.73205 4.89898 -4
0.866025 0 -0.5
0.866025 0 -4.5
4.33013 0 -2.5
2.02073 3.26599 -2.5
0.866025 0 -2.5
0.866025 0 -6.5
4.33013 0 -4.5
2.02073 3.26599 -4.5
2.59808 0 -1.5
2.59808 0 -5.5
6.06218 0 -3.5
3.75278 3.26599 -3.5
1.44338 1.63299 -1.5
1.44338 1.63299 -5.5
4.90748 1.63299 -3.5
2.59808 4.89898 -3.5
0.288675 0.816497 -0.5
0.288675 0.816497 -4.5
3.75278 0.816497 -2.5
1.44338 4.08248 -2.5
0.288675 0.816497 -2.5
0.288675 0.816497 -6.5
3.75278 0.816497 -4.5
1.44338 4.08248 -4.5
2.02073 0.816497 -1.5
2.02073 0.816497 -5.5
5.48483 0.816497 -3.5
3.17543 4.08248 -3.5
0.866025 2.44949 -1.5
0.866025 2.44949 -5.5
4.33013 2.44949 -3.5
2.02073 5.71548 -3.5
0 0 1
3.4641 0 -1
1.1547 3.26599 -1
1.73205 0 0
1.73205 0 -4
5.19615 0 -2
2.88675 3.26599 -2
0.57735 1.63299 0
0.57735 1.63299 -4
4.04145 1.63299 -2
1.73205 4.89898 -2
0.866025 0 0.5
0.866025 0 -3.5
4.33013 0 -1.5
2.02073 3.26599 -1.5
0.866025 0 -1.5
0.866025 0 -5.5
4.33013 0 -3.5
2.02073 3.26599 -3.5
2.59808 0 -0.5
2.59808 0 -4.5
6.06218 0 -2.5
3.75278 3.26599 -2.5
1.44338 1.63299 -0.5
1.44338 1.63299 -4.5
4.90748 1.63299 -2.5
2.59808 4.89898 -2.5
0.288675 0.816497 0.5
0.288675 0.816497 -3.5
3.75278 0.816497 -1.5
1.44338 4.08248 -1.5
0.288675 0.816497 -1.5
0.288675 0.816497 -5.5
3.75278 0.816497 -3.5
1.44338 4.08248 -3.5
2.02073 0.816497 -0.5
2.02073 0.816497 -4.5
5.48483 0.816497 -2.5
3.17543 4.08248 -2.5
0.866025 2.44949 -0.5
0.866025 2.44949 -4.5
4.33013 2.44949 -2.5
2.02073 5.71548 -2.5
6.9282 0 -3
4.6188 3.26599 -3
2.3094 1.63299 -1
2.3094 1.63299 -5
5.7735 1.63299 -3
3.4641 4.89898 -3
1.1547 0.816497 0
1.1547 0.816497 -4
4.6188 0.816497 -2
2.3094 4.08248 -2
1.1547 0.816497 -2
1.1547 0.816497 -6
4.6188 0.816497 -4
2.3094 4.08248 -4
2.88675 0.816497 -1
2.88675 0.816497 -5
6.35085 0.816497 -3
4.04145 4.08248 -3
1.73205 2.44949 -1
1.73205 2.44949 -5
5.19615 2.44949 -3
2.88675 5.71548 -3
2.3094 6.53197 -3
