ply
format ascii 1.0
comment PCL generated
obj_info is_cyberware_data 0
obj_info is_mesh 0
obj_info is_warped 0
obj_info is_interlaced 0
obj_info num_cols 2050
obj_info num_rows 1
obj_info echo_rgb_offset_x 0
obj_info echo_rgb_offset_y 0
obj_info echo_rgb_offset_z 0
obj_info echo_rgb_frontfocus 0.0
obj_info echo_rgb_backfocus 0.0
obj_info echo_rgb_pixelsize 0.0
obj_info echo_rgb_centerpixel 0
obj_info echo_frames 1
obj_info echo_lgincr 0.0
element vertex 2050
property float x
property float y
property float z
end_header
0 0 0
0 0 -16
13.8564 0 -8
4.6188 13.0639 -8
0 0 -8
0 0 -24
13.8564 0 -16
4.6188 13.0639 -16
6.9282 0 -4
6.9282 0 -20
20.7846 0 -12
11.547 13.0639 -12
2.3094 6.53197 -4
2.3094 6.53197 -20
16.1658 6.53197 -12
6.9282 19.5959 -12
0 0 -4
0 0 -20
13.8564 0 -12
4.6188 13.0639 -12
0 0 -12
0 0 -28
13.8564 0 -20
4.6188 13.0639 -20
6.9282 0 -8
6.9282 0 -24
20.7846 0 -16
11.547 13.0639 -16
2.3094 6.53197 -8
2.3094 6.53197 -24
16.1658 6.53197 -16
6.9282 19.5959 -16
3.4641 0 -2
3.4641 0 -18
17.3205 0 -10
8.0829 13.0639 -10
3.4641 0 -10
3.4641 0 -26
17.3205 0 -18
8.0829 13.0639 -18
10.3923 0 -6
10.3923 0 -22
24.2487 0 -14
15.0111 13.0639 -14
5.7735 6.53197 -6
5.7735 6.53197 -22
19.6299 6.53197 -14
10.3923 19.5959 -14
1.1547 3.26599 -2
1.1547 3.26599 -18
15.0111 3.26599 -10
5.7735 16.3299 -10
1.1547 3.26599 -10
1.1547 3.26599 -26
15.0111 3.26599 -18
5.7735 16.3299 -18
8.0829 3.26599 -6
8.0829 3.26599 -22
21.9393 3.26599 -14
12.7017 16.3299 -14
3.4641 9.79796 -6
3.4641 9.79796 -22
17.3205 9.79796 -14
8.0829 22.8619 -14
0 0 -2
0 0 -18
13.8564 0 -10
4.6188 13.0639 -10
0 0 -10
0 0 -26
13.8564 0 -18
4.6188 13.0639 -18
6.9282 0 -6
6.9282 0 -22
20.7846 0 -14
11.547 13.0639 -14
2.3094 6.53197 -6
2.3094 6.53197 -22
16.1658 6.53197 -14
6.9282 19.5959 -14
0 0 -6
0 0 -22
13.8564 0 -14
4.6188 13.0639 -14
0 0 -14
0 0 -30
13.8564 0 -22
4.6188 13.0639 -22
6.9282 0 -10
6.9282 0 -26
20.7846 0 -18
11.547 13.0639 -18
2.3094 6.53197 -10
2.3094 6.53197 -26
16.1658 6.53197 -18
6.9282 19.5959 -18
3.4641 0 -4
3.4641 0 -20
17.3205 0 -12
8.0829 13.0639 -12
3.4641 0 -12
3.4641 0 -28
17.3205 0 -20
8.0829 13.0639 -20
10.3923 0 -8
10.3923 0 -24
24.2487 0 -16
15.0111 13.0639 -16
5.7735 6.53197 -8
5.7735 6.53197 -24
19.6299 6.53197 -16
10.3923 19.5959 -16
1.1547 3.26599 -4
1.1547 3.26599 -20
15.0111 3.26599 -12
5.7735 16.3299 -12
1.1547 3.26599 -12
1.1547 3.26599 -28
15.0111 3.26599 -20
5.7735 16.3299 -20
8.0829 3.26599 -8
8.0829 3.26599 -24
21.9393 3.26599 -16
12.7017 16.3299 -16
3.4641 9.79796 -8
3.4641 9.79796 -24
17.3205 9.79796 -16
8.0829 22.8619 -16
1.73205 0 -1
1.73205 0 -17
15.5885 0 -9
6.35085 13.0639 -9
1.73205 0 -9
1.73205 0 -25
15.5885 0 -17
6.35085 13.0639 -17
8.66025 0 -5
8.66025 0 -21
22.5167 0 -13
13.2791 13.0639 -13
4.04145 6.53197 -5
4.04145 6.53197 -21
17.8979 6.53197 -13
8.66025 19.5959 -13
1.73205 0 -5
1.73205 0 -21
15.5885 0 -13
6.35085 13.0639 -13
1.73205 0 -13
1.73205 0 -29
15.5885 0 -21
6.35085 13.0639 -21
8.66025 0 -9
8.66025 0 -25
22.5167 0 -17
13.2791 13.0639 -17
4.04145 6.53197 -9
4.04145 6.53197 -25
17.8979 6.53197 -17
8.66025 19.5959 -17
5.19615 0 -3
5.19615 0 -19
19.0526 0 -11
9.81495 13.0639 -11
5.19615 0 -11
5.19615 0 -27
19.0526 0 -19
9.81495 13.0639 -19
12.1244 0 -7
12.1244 0 -23
25.9808 0 -15
16.7432 13.0639 -15
7.50555 6.53197 -7
7.50555 6.53197 -23
21.362 6.53197 -15
12.1244 19.5959 -15
2.88675 3.26599 -3
2.88675 3.26599 -19
16.7432 3.26599 -11
7.50555 16.3299 -11
2.88675 3.26599 -11
2.88675 3.26599 -27
16.7432 3.26599 -19
7.50555 16.3299 -19
9.81495 3.26599 -7
9.81495 3.26599 -23
23.6714 3.26599 -15
14.4338 16.3299 -15
5.19615 9.79796 -7
5.19615 9.79796 -23
19.0526 9.79796 -15
9.81495 22.8619 -15
0.57735 1.63299 -1
0.57735 1.63299 -17
14.4338 1.63299 -9
5.19615 14.6969 -9
0.57735 1.63299 -9
0.57735 1.63299 -25
14.4338 1.63299 -17
5.19615 14.6969 -17
7.50555 1.63299 -5
7.50555 1.63299 -21
21.362 1.63299 -13
12.1244 14.6969 -13
2.88675 8.16497 -5
2.88675 8.16497 -21
16.7432 8.16497 -13
7.50555 21.2289 -13
0.57735 1.63299 -5
0.57735 1.63299 -21
14.4338 1.63299 -13
5.19615 14.6969 -13
0.57735 1.63299 -13
0.57735 1.63299 -29
14.4338 1.63299 -21
5.19615 14.6969 -21
7.50555 1.63299 -9
7.50555 1.63299 -25
21.362 1.63299 -17
12.1244 14.6969 -17
2.88675 8.16497 -9
2.88675 8.16497 -25
16.7432 8.16497 -17
7.50555 21.2289 -17
4.04145 1.63299 -3
4.04145 1.63299 -19
17.8979 1.63299 -11
8.66025 14.6969 -11
4.04145 1.63299 -11
4.04145 1.63299 -27
17.8979 1.63299 -19
8.66025 14.6969 -19
10.9697 1.63299 -7
10.9697 1.63299 -23
24.8261 1.63299 -15
15.5885 14.6969 -15
6.35085 8.16497 -7
6.35085 8.16497 -23
20.2073 8.16497 -15
10.9697 21.2289 -15
1.73205 4.89898 -3
1.73205 4.89898 -19
15.5885 4.89898 -11
6.35085 17.9629 -11
1.73205 4.89898 -11
1.73205 4.89898 -27
15.5885 4.89898 -19
6.35085 17.9629 -19
8.66025 4.89898 -7
8.66025 4.89898 -23
22.5167 4.89898 -15
13.2791 17.9629 -15
4.04145 11.431 -7
4.04145 11.431 -23
17.8979 11.431 -15
8.66025 24.4949 -15
0 0 -1
0 0 -17
13.8564 0 -9
4.6188 13.0639 -9
0 0 -9
0 0 -25
13.8564 0 -17
4.6188 13.0639 -17
6.9282 0 -5
6.9282 0 -21
20.7846 0 -13
11.547 13.0639 -13
2.3094 6.53197 -5
2.3094 6.53197 -21
16.1658 6.53197 -13
6.9282 19.5959 -13
0 0 -5
0 0 -21
13.8564 0 -13
4.6188 13.0639 -13
0 0 -13
0 0 -29
13.8564 0 -21
4.6188 13.0639 -21
6.9282 0 -9
6.9282 0 -25
20.7846 0 -17
11.547 13.0639 -17
2.3094 6.53197 -9
2.3094 6.53197 -25
16.1658 6.53197 -17
6.9282 19.5959 -17
3.4641 0 -3
3.4641 0 -19
17.3205 0 -11
8.0829 13.0639 -11
3.4641 0 -11
3.4641 0 -27
17.3205 0 -19
8.0829 13.0639 -19
10.3923 0 -7
10.3923 0 -23
24.2487 0 -15
15.0111 13.0639 -15
5.7735 6.53197 -7
5.7735 6.53197 -23
19.6299 6.53197 -15
10.3923 19.5959 -15
1.1547 3.26599 -3
1.1547 3.26599 -19
15.0111 3.26599 -11
5.7735 16.3299 -11
1.1547 3.26599 -11
1.1547 3.26599 -27
15.0111 3.26599 -19
5.7735 16.3299 -19
8.0829 3.26599 -7
8.0829 3.26599 -23
21.9393 3.26599 -15
12.7017 16.3299 -15
3.4641 9.79796 -7
3.4641 9.79796 -23
17.3205 9.79796 -15
8.0829 22.8619 -15
0 0 -3
0 0 -19
13.8564 0 -11
4.6188 13.0639 -11
0 0 -11
0 0 -27
13.8564 0 -19
4.6188 13.0639 -19
6.9282 0 -7
6.9282 0 -23
20.7846 0 -15
11.547 13.0639 -15
2.3094 6.53197 -7
2.3094 6.53197 -23
16.1658 6.53197 -15
6.9282 19.5959 -15
0 0 -7
0 0 -23
13.8564 0 -15
4.6188 13.0639 -15
0 0 -15
0 0 -31
13.8564 0 -23
4.6188 13.0639 -23
6.9282 0 -11
6.9282 0 -27
20.7846 0 -19
11.547 13.0639 -19
2.3094 6.53197 -11
2.3094 6.53197 -27
16.1658 6.53197 -19
6.9282 19.5959 -19
3.4641 0 -5
3.4641 0 -21
17.3205 0 -13
8.0829 13.0639 -13
3.4641 0 -13
3.4641 0 -29
17.3205 0 -21
8.0829 13.0639 -21
10.3923 0 -9
10.3923 0 -25
24.2487 0 -17
15.0111 13.0639 -17
5.7735 6.53197 -9
5.7735 6.53197 -25
19.6299 6.53197 -17
10.3923 19.5959 -17
1.1547 3.26599 -5
1.1547 3.26599 -21
15.0111 3.26599 -13
5.7735 16.3299 -13
1.1547 3.26599 -13
1.1547 3.26599 -29
15.0111 3.26599 -21
5.7735 16.3299 -21
8.0829 3.26599 -9
8.0829 3.26599 -25
21.9393 3.26599 -17
12.7017 16.3299 -17
3.4641 9.79796 -9
3.4641 9.79796 -25
17.3205 9.79796 -17
8.0829 22.8619 -17
1.73205 0 -2
1.73205 0 -18
15.5885 0 -10
6.35085 13.0639 -10
1.73205 0 -10
1.73205 0 -26
15.5885 0 -18
6.35085 13.0639 -18
8.66025 0 -6
8.66025 0 -22
22.5167 0 -14
13.2791 13.0639 -14
4.04145 6.53197 -6
4.04145 6.53197 -22
17.8979 6.53197 -14
8.66025 19.5959 -14
1.73205 0 -6
1.73205 0 -22
15.5885 0 -14
6.35085 13.0639 -14
1.73205 0 -14
1.73205 0 -30
15.5885 0 -22
6.35085 13.0639 -22
8.66025 0 -10
8.66025 0 -26
22.5167 0 -18
13.2791 13.0639 -18
4.04145 6.53197 -10
4.04145 6.53197 -26
17.8979 6.53197 -18
8.66025 19.5959 -18
5.19615 0 -4
5.19615 0 -20
19.0526 0 -12
9.81495 13.0639 -12
5.19615 0 -12
5.19615 0 -28
19.0526 0 -20
9.81495 13.0639 -20
12.1244 0 -8
12.1244 0 -24
25.9808 0 -16
16.7432 13.0639 -16
7.50555 6.53197 -8
7.50555 6.53197 -24
21.362 6.53197 -16
12.1244 19.5959 -16
2.88675 3.26599 -4
2.88675 3.26599 -20
16.7432 3.26599 -12
7.50555 16.3299 -12
2.88675 3.26599 -12
2.88675 3.26599 -28
16.7432 3.26599 -20
7.50555 16.3299 -20
9.81495 3.26599 -8
9.81495 3.26599 -24
23.6714 3.26599 -16
14.4338 16.3299 -16
5.19615 9.79796 -8
5.19615 9.79796 -24
19.0526 9.79796 -16
9.81495 22.8619 -16
0.57735 1.63299 -2
0.57735 1.63299 -18
14.4338 1.63299 -10
5.19615 14.6969 -10
0.57735 1.63299 -10
0.57735 1.63299 -26
14.4338 1.63299 -18
5.19615 14.6969 -18
7.50555 1.63299 -6
7.50555 1.63299 -22
21.362 1.63299 -14
12.1244 14.6969 -14
2.88675 8.16497 -6
2.88675 8.16497 -22
16.7432 8.16497 -14
7.50555 21.2289 -14
0.57735 1.63299 -6
0.57735 1.63299 -22
14.4338 1.63299 -14
5.19615 14.6969 -14
0.57735 1.63299 -14
0.57735 1.63299 -30
14.4338 1.63299 -22
5.19615 14.6969 -22
7.50555 1.63299 -10
7.50555 1.63299 -26
21.362 1.63299 -18
12.1244 14.6969 -18
2.88675 8.16497 -10
2.88675 8.16497 -26
16.7432 8.16497 -18
7.50555 21.2289 -18
4.04145 1.63299 -4
4.04145 1.63299 -20
17.8979 1.63299 -12
8.66025 14.6969 -12
4.04145 1.63299 -12
4.04145 1.63299 -28
17.8979 1.63299 -20
8.66025 14.6969 -20
10.9697 1.63299 -8
10.9697 1.63299 -24
24.8261 1.63299 -16
15.5885 14.6969 -16
6.35085 8.16497 -8
6.35085 8.16497 -24
20.2073 8.16497 -16
10.9697 21.2289 -16
1.73205 4.89898 -4
1.73205 4.89898 -20
15.5885 4.89898 -12
6.35085 17.9629 -12
1.73205 4.89898 -12
1.73205 4.89898 -28
15.5885 4.89898 -20
6.35085 17.9629 -20
8.66025 4.89898 -8
8.66025 4.89898 -24
22.5167 4.89898 -16
13.2791 17.9629 -16
4.04145 11.431 -8
4.04145 11.431 -24
17.8979 11.431 -16
8.66025 24.4949 -16
0.866025 0 -0.5
0.866025 0 -16.5
14.7224 0 -8.5
5.48483 13.0639 -8.5
0.866025 0 -8.5
0.866025 0 -24.5
14.7224 0 -16.5
5.48483 13.0639 -16.5
7.79423 0 -4.5
7.79423 0 -20.5
21.6506 0 -12.5
12.413 13.0639 -12.5
3.17543 6.53197 -4.5
3.17543 6.53197 -20.5
17.0318 6.53197 -12.5
7.79423 19.5959 -12.5
0.866025 0 -4.5
0.866025 0 -20.5
14.7224 0 -12.5
5.48483 13.0639 -12.5
0.866025 0 -12.5
0.866025 0 -28.5
14.7224 0 -20.5
5.48483 13.0639 -20.5
7.79423 0 -8.5
7.79423 0 -24.5
21.6506 0 -16.5
12.413 13.0639 -16.5
3.17543 6.53197 -8.5
3.17543 6.53197 -24.5
17.0318 6.53197 -16.5
7.79423 19.5959 -16.5
4.33013 0 -2.5
4.33013 0 -18.5
18.1865 0 -10.5
8.94893 13.0639 -10.5
4.33013 0 -10.5
4.33013 0 -26.5
18.1865 0 -18.5
8.94893 13.0639 -18.5
11.2583 0 -6.5
11.2583 0 -22.5
25.1147 0 -14.5
15.8771 13.0639 -14.5
6.63953 6.53197 -6.5
6.63953 6.53197 -22.5
20.4959 6.53197 -14.5
11.2583 19.5959 -14.5
2.02073 3.26599 -2.5
2.02073 3.26599 -18.5
15.8771 3.26599 -10.5
6.63953 16.3299 -10.5
2.02073 3.26599 -10.5
2.02073 3.26599 -26.5
15.8771 3.26599 -18.5
6.63953 16.3299 -18.5
8.94893 3.26599 -6.5
8.94893 3.26599 -22.5
22.8053 3.26599 -14.5
13.5677 16.3299 -14.5
4.33013 9.79796 -6.5
4.33013 9.79796 -22.5
18.1865 9.79796 -14.5
8.94893 22.8619 -14.5
0.866025 0 -2.5
0.866025 0 -18.5
14.7224 0 -10.5
5.48483 13.0639 -10.5
0.866025 0 -10.5
0.866025 0 -26.5
14.7224 0 -18.5
5.48483 13.0639 -18.5
7.79423 0 -6.5
7.79423 0 -22.5
21.6506 0 -14.5
12.413 13.0639 -14.5
3.17543 6.53197 -6.5
3.17543 6.53197 -22.5
17.0318 6.53197 -14.5
7.79423 19.5959 -14.5
0.866025 0 -6.5
0.866025 0 -22.5
14.7224 0 -14.5
5.48483 13.0639 -14.5
0.866025 0 -14.5
0.866025 0 -30.5
14.7224 0 -22.5
5.48483 13.0639 -22.5
7.79423 0 -10.5
7.79423 0 -26.5
21.6506 0 -18.5
12.413 13.0639 -18.5
3.17543 6.53197 -10.5
3.17543 6.53197 -26.5
17.0318 6.53197 -18.5
7.79423 19.5959 -18.5
4.33013 0 -4.5
4.33013 0 -20.5
18.1865 0 -12.5
8.94893 13.0639 -12.5
4.33013 0 -12.5
4.33013 0 -28.5
18.1865 0 -20.5
8.94893 13.0639 -20.5
11.2583 0 -8.5
11.2583 0 -24.5
25.1147 0 -16.5
15.8771 13.0639 -16.5
6.63953 6.53197 -8.5
6.63953 6.53197 -24.5
20.4959 6.53197 -16.5
11.2583 19.5959 -16.5
2.02073 3.26599 -4.5
2.02073 3.26599 -20.5
15.8771 3.26599 -12.5
6.63953 16.3299 -12.5
2.02073 3.26599 -12.5
2.02073 3.26599 -28.5
15.8771 3.26599 -20.5
6.63953 16.3299 -20.5
8.94893 3.26599 -8.5
8.94893 3.26599 -24.5
22.8053 3.26599 -16.5
13.5677 16.3299 -16.5
4.33013 9.79796 -8.5
4.33013 9.79796 -24.5
18.1865 9.79796 -16.5
8.94893 22.8619 -16.5
2.59808 0 -1.5
2.59808 0 -17.5
16.4545 0 -9.5
7.21688 13.0639 -9.5
2.59808 0 -9.5
2.59808 0 -25.5
16.4545 0 -17.5
7.21688 13.0639 -17.5
9.52628 0 -5.5
9.52628 0 -21.5
23.3827 0 -13.5
14.1451 13.0639 -13.5
4.90748 6.53197 -5.5
4.90748 6.53197 -21.5
18.7639 6.53197 -13.5
9.52628 19.5959 -13.5
2.59808 0 -5.5
2.59808 0 -21.5
16.4545 0 -13.5
7.21688 13.0639 -13.5
2.59808 0 -13.5
2.59808 0 -29.5
16.4545 0 -21.5
7.21688 13.0639 -21.5
9.52628 0 -9.5
9.52628 0 -25.5
23.3827 0 -17.5
14.1451 13.0639 -17.5
4.90748 6.53197 -9.5
4.90748 6.53197 -25.5
18.7639 6.53197 -17.5
9.52628 19.5959 -17.5
6.06218 0 -3.5
6.06218 0 -19.5
19.9186 0 -11.5
10.681 13.0639 -11.5
6.06218 0 -11.5
6.06218 0 -27.5
19.9186 0 -19.5
10.681 13.0639 -19.5
12.9904 0 -7.5
12.9904 0 -23.5
26.8468 0 -15.5
17.6092 13.0639 -15.5
8.37158 6.53197 -7.5
8.37158 6.53197 -23.5
22.228 6.53197 -15.5
12.9904 19.5959 -15.5
3.75278 3.26599 -3.5
3.75278 3.26599 -19.5
17.6092 3.26599 -11.5
8.37158 16.3299 -11.5
3.75278 3.26599 -11.5
3.75278 3.26599 -27.5
17.6092 3.26599 -19.5
8.37158 16.3299 -19.5
10.681 3.26599 -7.5
10.681 3.26599 -23.5
24.5374 3.26599 -15.5
15.2998 16.3299 -15.5
6.06218 9.79796 -7.5
6.06218 9.79796 -23.5
19.9186 9.79796 -15.5
10.681 22.8619 -15.5
1.44338 1.63299 -1.5
1.44338 1.63299 -17.5
15.2998 1.63299 -9.5
6.06218 14.6969 -9.5
1.44338 1.63299 -9.5
1.44338 1.63299 -25.5
15.2998 1.63299 -17.5
6.06218 14.6969 -17.5
8.37158 1.63299 -5.5
8.37158 1.63299 -21.5
22.228 1.63299 -13.5
12.9904 14.6969 -13.5
3.75278 8.16497 -5.5
3.75278 8.16497 -21.5
17.6092 8.16497 -13.5
8.37158 21.2289 -13.5
1.44338 1.63299 -5.5
1.44338 1.63299 -21.5
15.2998 1.63299 -13.5
6.06218 14.6969 -13.5
1.44338 1.63299 -13.5
1.44338 1.63299 -29.5
15.2998 1.63299 -21.5
6.06218 14.6969 -21.5
8.37158 1.63299 -9.5
8.37158 1.63299 -25.5
22.228 1.63299 -17.5
12.9904 14.6969 -17.5
3.75278 8.16497 -9.5
3.75278 8.16497 -25.5
17.6092 8.16497 -17.5
8.37158 21.2289 -17.5
4.90748 1.63299 -3.5
4.90748 1.63299 -19.5
18.7639 1.63299 -11.5
9.52628 14.6969 -11.5
4.90748 1.63299 -11.5
4.90748 1.63299 -27.5
18.7639 1.63299 -19.5
9.52628 14.6969 -19.5
11.8357 1.63299 -7.5
11.8357 1.63299 -23.5
25.6921 1.63299 -15.5
16.4545 14.6969 -15.5
7.21688 8.16497 -7.5
7.21688 8.16497 -23.5
21.0733 8.16497 -15.5
11.8357 21.2289 -15.5
2.59808 4.89898 -3.5
2.59808 4.89898 -19.5
16.4545 4.89898 -11.5
7.21688 17.9629 -11.5
2.59808 4.89898 -11.5
2.59808 4.89898 -27.5
16.4545 4.89898 -19.5
7.21688 17.9629 -19.5
9.52628 4.89898 -7.5
9.52628 4.89898 -23.5
23.3827 4.89898 -15.5
14.1451 17.9629 -15.5
4.90748 11.431 -7.5
4.90748 11.431 -23.5
18.7639 11.431 -15.5
9.52628 24.4949 -15.5
0.288675 0.816497 -0.5
0.288675 0.816497 -16.5
14.1451 0.816497 -8.5
4.90748 13.8804 -8.5
0.288675 0.816497 -8.5
0.288675 0.816497 -24.5
14.1451 0.816497 -16.5
4.90748 13.8804 -16.5
7.21688 0.816497 -4.5
7.21688 0.816497 -20.5
21.0733 0.816497 -12.5
11.8357 13.8804 -12.5
2.59808 7.34847 -4.5
2.59808 7.34847 -20.5
16.4545 7.34847 -12.5
7.21688 20.4124 -12.5
0.288675 0.816497 -4.5
0.288675 0.816497 -20.5
14.1451 0.816497 -12.5
4.90748 13.8804 -12.5
0.288675 0.816497 -12.5
0.288675 0.816497 -28.5
14.1451 0.816497 -20.5
4.90748 13.8804 -20.5
7.21688 0.816497 -8.5
7.21688 0.816497 -24.5
21.0733 0.816497 -16.5
11.8357 13.8804 -16.5
2.59808 7.34847 -8.5
2.59808 7.34847 -24.5
16.4545 7.34847 -16.5
7.21688 20.4124 -16.5
3.75278 0.816497 -2.5
3.75278 0.816497 -18.5
17.6092 0.816497 -10.5
8.37158 13.8804 -10.5
3.75278 0.816497 -10.5
3.75278 0.816497 -26.5
17.6092 0.816497 -18.5
8.37158 13.8804 -18.5
10.681 0.816497 -6.5
10.681 0.816497 -22.5
24.5374 0.816497 -14.5
15.2998 13.8804 -14.5
6.06218 7.34847 -6.5
6.06218 7.34847 -22.5
19.9186 7.34847 -14.5
10.681 20.4124 -14.5
1.44338 4.08248 -2.5
1.44338 4.08248 -18.5
15.2998 4.08248 -10.5
6.06218 17.1464 -10.5
1.44338 4.08248 -10.5
1.44338 4.08248 -26.5
15.2998 4.08248 -18.5
6.06218 17.1464 -18.5
8.37158 4.08248 -6.5
8.37158 4.08248 -22.5
22.228 4.08248 -14.5
12.9904 17.1464 -14.5
3.75278 10.6145 -6.5
3.75278 10.6145 -22.5
17.6092 10.6145 -14.5
8.37158 23.6784 -14.5
0.288675 0.816497 -2.5
0.288675 0.816497 -18.5
14.1451 0.816497 -10.5
4.90748 13.8804 -10.5
0.288675 0.816497 -10.5
0.288675 0.816497 -26.5
14.1451 0.816497 -18.5
4.90748 13.8804 -18.5
7.21688 0.816497 -6.5
7.21688 0.816497 -22.5
21.0733 0.816497 -14.5
11.8357 13.8804 -14.5
2.59808 7.34847 -6.5
2.59808 7.34847 -22.5
16.4545 7.34847 -14.5
7.21688 20.4124 -14.5
0.288675 0.816497 -6.5
0.288675 0.816497 -22.5
14.1451 0.816497 -14.5
4.90748 13.8804 -14.5
0.288675 0.816497 -14.5
0.288675 0.816497 -30.5
14.1451 0.816497 -22.5
4.90748 13.8804 -22.5
7.21688 0.816497 -10.5
7.21688 0.816497 -26.5
21.0733 0.816497 -18.5
11.8357 13.8804 -18.5
2.59808 7.34847 -10.5
2.59808 7.34847 -26.5
16.4545 7.34847 -18.5
7.21688 20.4124 -18.5
3.75278 0.816497 -4.5
3.75278 0.816497 -20.5
17.6092 0.816497 -12.5
8.37158 13.8804 -12.5
3.75278 0.816497 -12.5
3.75278 0.816497 -28.5
17.6092 0.816497 -20.5
8.37158 13.8804 -20.5
10.681 0.816497 -8.5
10.681 0.816497 -24.5
24.5374 0.816497 -16.5
15.2998 13.8804 -16.5
6.06218 7.34847 -8.5
6.06218 7.34847 -24.5
19.9186 7.34847 -16.5
10.681 20.4124 -16.5
1.44338 4.08248 -4.5
1.44338 4.08248 -20.5
15.2998 4.08248 -12.5
6.06218 17.1464 -12.5
1.44338 4.08248 -12.5
1.44338 4.08248 -28.5
15.2998 4.08248 -20.5
6.06218 17.1464 -20.5
8.37158 4.08248 -8.5
8.37158 4.08248 -24.5
22.228 4.08248 -16.5
12.9904 17.1464 -16.5
3.75278 10.6145 -8.5
3.75278 10.6145 -24.5
17.6092 10.6145 -16.5
8.37158 23.6784 -16.5
2.02073 0.816497 -1.5
2.02073 0.816497 -17.5
15.8771 0.816497 -9.5
6.63953 13.8804 -9.5
2.02073 0.816497 -9.5
2.02073 0.816497 -25.5
15.8771 0.816497 -17.5
6.63953 13.8804 -17.5
8.94893 0.816497 -5.5
8.94893 0.816497 -21.5
22.8053 0.816497 -13.5
13.5677 13.8804 -13.5
4.33013 7.34847 -5.5
4.33013 7.34847 -21.5
18.1865 7.34847 -13.5
8.94893 20.4124 -13.5
2.02073 0.816497 -5.5
2.02073 0.816497 -21.5
15.8771 0.816497 -13.5
6.63953 13.8804 -13.5
2.02073 0.816497 -13.5
2.02073 0.816497 -29.5
15.8771 0.816497 -21.5
6.63953 13.8804 -21.5
8.94893 0.816497 -9.5
8.94893 0.816497 -25.5
22.8053 0.816497 -17.5
13.5677 13.8804 -17.5
4.33013 7.34847 -9.5
4.33013 7.34847 -25.5
18.1865 7.34847 -17.5
8.94893 20.4124 -17.5
5.48483 0.816497 -3.5
5.48483 0.816497 -19.5
19.3412 0.816497 -11.5
10.1036 13.8804 -11.5
5.48483 0.816497 -11.5
5.48483 0.816497 -27.5
19.3412 0.816497 -19.5
10.1036 13.8804 -19.5
12.413 0.816497 -7.5
12.413 0.816497 -23.5
26.2694 0.816497 -15.5
17.0318 13.8804 -15.5
7.79423 7.34847 -7.5
7.79423 7.34847 -23.5
21.6506 7.34847 -15.5
12.413 20.4124 -15.5
3.17543 4.08248 -3.5
3.17543 4.08248 -19.5
17.0318 4.08248 -11.5
7.79423 17.1464 -11.5
3.17543 4.08248 -11.5
3.17543 4.08248 -27.5
17.0318 4.08248 -19.5
7.79423 17.1464 -19.5
10.1036 4.08248 -7.5
10.1036 4.08248 -23.5
23.96 4.08248 -15.5
14.7224 17.1464 -15.5
5.48483 10.6145 -7.5
5.48483 10.6145 -23.5
19.3412 10.6145 -15.5
10.1036 23.6784 -15.5
0.866025 2.44949 -1.5
0.866025 2.44949 -17.5
14.7224 2.44949 -9.5
5.48483 15.5134 -9.5
0.866025 2.44949 -9.5
0.866025 2.44949 -25.5
14.7224 2.44949 -17.5
5.48483 15.5134 -17.5
7.79423 2.44949 -5.5
7.79423 2.44949 -21.5
21.6506 2.44949 -13.5
12.413 15.5134 -13.5
3.17543 8.98146 -5.5
3.17543 8.98146 -21.5
17.0318 8.98146 -13.5
7.79423 22.0454 -13.5
0.866025 2.44949 -5.5
0.866025 2.44949 -21.5
14.7224 2.44949 -13.5
5.48483 15.5134 -13.5
0.866025 2.44949 -13.5
0.866025 2.44949 -29.5
14.7224 2.44949 -21.5
5.48483 15.5134 -21.5
7.79423 2.44949 -9.5
7.79423 2.44949 -25.5
21.6506 2.44949 -17.5
12.413 15.5134 -17.5
3.17543 8.98146 -9.5
3.17543 8.98146 -25.5
17.0318 8.98146 -17.5
7.79423 22.0454 -17.5
4.33013 2.44949 -3.5
4.33013 2.44949 -19.5
18.1865 2.44949 -11.5
8.94893 15.5134 -11.5
4.33013 2.44949 -11.5
4.33013 2.44949 -27.5
18.1865 2.44949 -19.5
8.94893 15.5134 -19.5
11.2583 2.44949 -7.5
11.2583 2.44949 -23.5
25.1147 2.44949 -15.5
15.8771 15.5134 -15.5
6.63953 8.98146 -7.5
6.63953 8.98146 -23.5
20.4959 8.98146 -15.5
11.2583 22.0454 -15.5
2.02073 5.71548 -3.5
2.02073 5.71548 -19.5
15.8771 5.71548 -11.5
6.63953 18.7794 -11.5
2.02073 5.71548 -11.5
2.02073 5.71548 -27.5
15.8771 5.71548 -19.5
6.63953 18.7794 -19.5
8.94893 5.71548 -7.5
8.94893 5.71548 -23.5
22.8053 5.71548 -15.5
13.5677 18.7794 -15.5
4.33013 12.2474 -7.5
4.33013 12.2474 -23.5
18.1865 12.2474 -15.5
8.94893 25.3114 -15.5
0 0 1
13.8564 0 -7
4.6188 13.0639 -7
6.9282 0 -3
6.9282 0 -19
20.7846 0 -11
11.547 13.0639 -11
2.3094 6.53197 -3
2.3094 6.53197 -19
16.1658 6.53197 -11
6.9282 19.5959 -11
3.4641 0 -1
3.4641 0 -17
17.3205 0 -9
8.0829 13.0639 -9
3.4641 0 -9
3.4641 0 -25
17.3205 0 -17
8.0829 13.0639 -17
10.3923 0 -5
10.3923 0 -21
24.2487 0 -13
15.0111 13.0639 -13
5.7735 6.53197 -5
5.7735 6.53197 -21
19.6299 6.53197 -13
10.3923 19.5959 -13
1.1547 3.26599 -1
1.1547 3.26599 -17
15.0111 3.26599 -9
5.7735 16.3299 -9
1.1547 3.26599 -9
1.1547 3.26599 -25
15.0111 3.26599 -17
5.7735 16.3299 -17
8.0829 3.26599 -5
8.0829 3.26599 -21
21.9393 3.26599 -13
12.7017 16.3299 -13
3.4641 9.79796 -5
3.4641 9.79796 -21
17.3205 9.79796 -13
8.0829 22.8619 -13
1.73205 0 0
1.73205 0 -16
15.5885 0 -8
6.35085 13.0639 -8
1.73205 0 -8
1.73205 0 -24
15.5885 0 -16
6.35085 13.0639 -16
8.66025 0 -4
8.66025 0 -20
22.5167 0 -12
13.2791 13.0639 -12
4.04145 6.53197 -4
4.04145 6.53197 -20
17.8979 6.53197 -12
8.66025 19.5959 -12
1.73205 0 -4
1.73205 0 -20
15.5885 0 -12
6.35085 13.0639 -12
1.73205 0 -12
1.73205 0 -28
15.5885 0 -20
6.35085 13.0639 -20
8.66025 0 -8
8.66025 0 -24
22.5167 0 -16
13.2791 13.0639 -16
4.04145 6.53197 -8
4.04145 6.53197 -24
17.8979 6.53197 -16
8.66025 19.5959 -16
5.19615 0 -2
5.19615 0 -18
19.0526 0 -10
9.81495 13.0639 -10
5.19615 0 -10
5.19615 0 -26
19.0526 0 -18
9.81495 13.0639 -18
12.1244 0 -6
12.1244 0 -22
25.9808 0 -14
16.7432 13.0639 -14
7.50555 6.53197 -6
7.50555 6.53197 -22
21.362 6.53197 -14
12.1244 19.5959 -14
2.88675 3.26599 -2
2.88675 3.26599 -18
16.7432 3.26599 -10
7.50555 16.3299 -10
2.88675 3.26599 -10
2.88675 3.26599 -26
16.7432 3.26599 -18
7.50555 16.3299 -18
9.81495 3.26599 -6
9.81495 3.26599 -22
23.6714 3.26599 -14
14.4338 16.3299 -14
5.19615 9.79796 -6
5.19615 9.79796 -22
19.0526 9.79796 -14
9.81495 22.8619 -14
0.57735 1.63299 0
0.57735 1.63299 -16
14.4338 1.63299 -8
5.19615 14.6969 -8
0.57735 1.63299 -8
0.57735 1.63299 -24
14.4338 1.63299 -16
5.19615 14.6969 -16
7.50555 1.63299 -4
7.50555 1.63299 -20
21.362 1.63299 -12
12.1244 14.6969 -12
2.88675 8.16497 -4
2.88675 8.16497 -20
16.7432 8.16497 -12
7.50555 21.2289 -12
0.57735 1.63299 -4
0.57735 1.63299 -20
14.4338 1.63299 -12
5.19615 14.6969 -12
0.57735 1.63299 -12
0.57735 1.63299 -28
14.4338 1.63299 -20
5.19615 14.6969 -20
7.50555 1.63299 -8
7.50555 1.63299 -24
21.362 1.63299 -16
12.1244 14.6969 -16
2.88675 8.16497 -8
2.88675 8.16497 -24
16.7432 8.16497 -16
7.50555 21.2289 -16
4.04145 1.63299 -2
4.04145 1.63299 -18
17.8979 1.63299 -10
8.66025 14.6969 -10
4.04145 1.63299 -10
4.04145 1.63299 -26
17.8979 1.63299 -18
8.66025 14.6969 -18
10.9697 1.63299 -6
10.9697 1.63299 -22
24.8261 1.63299 -14
15.5885 14.6969 -14
6.35085 8.16497 -6
6.35085 8.16497 -22
20.2073 8.16497 -14
10.9697 21.2289 -14
1.73205 4.89898 -2
1.73205 4.89898 -18
15.5885 4.89898 -10
6.35085 17.9629 -10
1.73205 4.89898 -10
1.73205 4.89898 -26
15.5885 4.89898 -18
6.35085 17.9629 -18
8.66025 4.89898 -6
8.66025 4.89898 -22
22.5167 4.89898 -14
13.2791 17.9629 -14
4.04145 11.431 -6
4.04145 11.431 -22
17.8979 11.431 -14
8.66025 24.4949 -14
0.866025 0 0.5
0.866025 0 -15.5
14.7224 0 -7.5
5.48483 13.0639 -7.5
0.866025 0 -7.5
0.866025 0 -23.5
14.7224 0 -15.5
5.48483 13.0639 -15.5
7.79423 0 -3.5
7.79423 0 -19.5
21.6506 0 -11.5
12.413 13.0639 -11.5
3.17543 6.53197 -3.5
3.17543 6.53197 -19.5
17.0318 6.53197 -11.5
7.79423 19.5959 -11.5
0.866025 0 -3.5
0.866025 0 -19.5
14.7224 0 -11.5
5.48483 13.0639 -11.5
0.866025 0 -11.5
0.866025 0 -27.5
14.7224 0 -19.5
5.48483 13.0639 -19.5
7.79423 0 -7.5
7.79423 0 -23.5
21.6506 0 -15.5
12.413 13.0639 -15.5
3.17543 6.53197 -7.5
3.17543 6.53197 -23.5
17.0318 6.53197 -15.5
7.79423 19.5959 -15.5
4.33013 0 -1.5
4.33013 0 -17.5
18.1865 0 -9.5
8.94893 13.0639 -9.5
4.33013 0 -9.5
4.33013 0 -25.5
18.1865 0 -17.5
8.94893 13.0639 -17.5
11.2583 0 -5.5
11.2583 0 -21.5
25.1147 0 -13.5
15.8771 13.0639 -13.5
6.63953 6.53197 -5.5
6.63953 6.53197 -21.5
20.4959 6.53197 -13.5
11.2583 19.5959 -13.5
2.02073 3.26599 -1.5
2.02073 3.26599 -17.5
15.8771 3.26599 -9.5
6.63953 16.3299 -9.5
2.02073 3.26599 -9.5
2.02073 3.26599 -25.5
15.8771 3.26599 -17.5
6.63953 16.3299 -17.5
8.94893 3.26599 -5.5
8.94893 3.26599 -21.5
22.8053 3.26599 -13.5
13.5677 16.3299 -13.5
4.33013 9.79796 -5.5
4.33013 9.79796 -21.5
18.1865 9.79796 -13.5
8.94893 22.8619 -13.5
0.866025 0 -1.5
0.866025 0 -17.5
14.7224 0 -9.5
5.48483 13.0639 -9.5
0.866025 0 -9.5
0.866025 0 -25.5
14.7224 0 -17.5
5.48483 13.0639 -17.5
7.79423 0 -5.5
7.79423 0 -21.5
21.6506 0 -13.5
12.413 13.0639 -13.5
3.17543 6.53197 -5.5
3.17543 6.53197 -21.5
17.0318 6.53197 -13.5
7.79423 19.5959 -13.5
0.866025 0 -5.5
0.866025 0 -21.5
14.7224 0 -13.5
5.48483 13.0639 -13.5
0.866025 0 -13.5
0.866025 0 -29.5
14.7224 0 -21.5
5.48483 13.0639 -21.5
7.79423 0 -9.5
7.79423 0 -25.5
21.6506 0 -17.5
12.413 13.0639 -17.5
3.17543 6.53197 -9.5
3.17543 6.53197 -25.5
17.0318 6.53197 -17.5
7.79423 19.5959 -17.5
4.33013 0 -3.5
4.33013 0 -19.5
18.1865 0 -11.5
8.94893 13.0639 -11.5
4.33013 0 -11.5
4.33013 0 -27.5
18.1865 0 -19.5
8.94893 13.0639 -19.5
11.2583 0 -7.5
11.2583 0 -23.5
25.1147 0 -15.5
15.8771 13.0639 -15.5
6.63953 6.53197 -7.5
6.63953 6.53197 -23.5
20.4959 6.53197 -15.5
11.2583 19.5959 -15.5
2.02073 3.26599 -3.5
2.02073 3.26599 -19.5
15.8771 3.26599 -11.5
6.63953 16.3299 -11.5
2.02073 3.26599 -11.5
2.02073 3.26599 -27.5
15.8771 3.26599 -19.5
6.63953 16.3299 -19.5
8.94893 3.26599 -7.5
8.94893 3.26599 -23.5
22.8053 3.26599 -15.5
13.5677 16.3299 -15.5
4.33013 9.79796 -7.5
4.33013 9.79796 -23.5
18.1865 9.79796 -15.5
8.94893 22.8619 -15.5
2.59808 0 -0.5
2.59808 0 -16.5
16.4545 0 -8.5
7.21688 13.0639 -8.5
2.59808 0 -8.5
2.59808 0 -24.5
16.4545 0 -16.5
7.21688 13.0639 -16.5
9.52628 0 -4.5
9.52628 0 -20.5
23.3827 0 -12.5
14.1451 13.0639 -12.5
4.90748 6.53197 -4.5
4.90748 6.53197 -20.5
18.7639 6.53197 -12.5
9.52628 19.5959 -12.5
2.59808 0 -4.5
2.59808 0 -20.5
16.4545 0 -12.5
7.21688 13.0639 -12.5
2.59808 0 -12.5
2.59808 0 -28.5
16.4545 0 -20.5
7.21688 13.0639 -20.5
9.52628 0 -8.5
9.52628 0 -24.5
23.3827 0 -16.5
14.1451 13.0639 -16.5
4.90748 6.53197 -8.5
4.90748 6.53197 -24.5
18.7639 6.53197 -16.5
9.52628 19.5959 -16.5
6.06218 0 -2.5
6.06218 0 -18.5
19.9186 0 -10.5
10.681 13.0639 -10.5
6.06218 0 -10.5
6.06218 0 -26.5
19.9186 0 -18.5
10.681 13.0639 -18.5
12.9904 0 -6.5
12.9904 0 -22.5
26.8468 0 -14.5
17.6092 13.0639 -14.5
8.37158 6.53197 -6.5
8.37158 6.53197 -22.5
22.228 6.53197 -14.5
12.9904 19.5959 -14.5
3.75278 3.26599 -2.5
3.75278 3.26599 -18.5
17.6092 3.26599 -10.5
8.37158 16.3299 -10.5
3.75278 3.26599 -10.5
3.75278 3.26599 -26.5
17.6092 3.26599 -18.5
8.37158 16.3299 -18.5
10.681 3.26599 -6.5
10.681 3.26599 -22.5
24.5374 3.26599 -14.5
15.2998 16.3299 -14.5
6.06218 9.79796 -6.5
6.06218 9.79796 -22.5
19.9186 9.79796 -14.5
10.681 22.8619 -14.5
1.44338 1.63299 -0.5
1.44338 1.63299 -16.5
15.2998 1.63299 -8.5
6.06218 14.6969 -8.5
1.44338 1.63299 -8.5
1.44338 1.63299 -24.5
15.2998 1.63299 -16.5
6.06218 14.6969 -16.5
8.37158 1.63299 -4.5
8.37158 1.63299 -20.5
22.228 1.63299 -12.5
12.9904 14.6969 -12.5
3.75278 8.16497 -4.5
3.75278 8.16497 -20.5
17.6092 8.16497 -12.5
8.37158 21.2289 -12.5
1.44338 1.63299 -4.5
1.44338 1.63299 -20.5
15.2998 1.63299 -12.5
6.06218 14.6969 -12.5
1.44338 1.63299 -12.5
1.44338 1.63299 -28.5
15.2998 1.63299 -20.5
6.06218 14.6969 -20.5
8.37158 1.63299 -8.5
8.37158 1.63299 -24.5
22.228 1.63299 -16.5
12.9904 14.6969 -16.5
3.75278 8.16497 -8.5
3.75278 8.16497 -24.5
17.6092 8.16497 -16.5
8.37158 21.2289 -16.5
4.90748 1.63299 -2.5
4.90748 1.63299 -18.5
18.7639 1.63299 -10.5
9.52628 14.6969 -10.5
4.90748 1.63299 -10.5
4.90748 1.63299 -26.5
18.7639 1.63299 -18.5
9.52628 14.6969 -18.5
11.8357 1.63299 -6.5
11.8357 1.63299 -22.5
25.6921 1.63299 -14.5
16.4545 14.6969 -14.5
7.21688 8.16497 -6.5
7.21688 8.16497 -22.5
21.0733 8.16497 -14.5
11.8357 21.2289 -14.5
2.59808 4.89898 -2.5
2.59808 4.89898 -18.5
16.4545 4.89898 -10.5
7.21688 17.9629 -10.5
2.59808 4.89898 -10.5
2.59808 4.89898 -26.5
16.4545 4.89898 -18.5
7.21688 17.9629 -18.5
9.52628 4.89898 -6.5
9.52628 4.89898 -22.5
23.3827 4.89898 -14.5
14.1451 17.9629 -14.5
4.90748 11.431 -6.5
4.90748 11.431 -22.5
18.7639 11.431 -14.5
9.52628 24.4949 -14.5
0.288675 0.816497 0.5
0.288675 0.816497 -15.5
14.1451 0.816497 -7.5
4.90748 13.8804 -7.5
0.288675 0.816497 -7.5
0.288675 0.816497 -23.5
14.1451 0.816497 -15.5
4.90748 13.8804 -15.5
7.21688 0.816497 -3.5
7.21688 0.816497 -19.5
21.0733 0.816497 -11.5
11.8357 13.8804 -11.5
2.59808 7.34847 -3.5
2.59808 7.34847 -19.5
16.4545 7.34847 -11.5
7.21688 20.4124 -11.5
0.288675 0.816497 -3.5
0.288675 0.816497 -19.5
14.1451 0.816497 -11.5
4.90748 13.8804 -11.5
0.288675 0.816497 -11.5
0.288675 0.816497 -27.5
14.1451 0.816497 -19.5
4.90748 13.8804 -19.5
7.21688 0.816497 -7.5
7.21688 0.816497 -23.5
21.0733 0.816497 -15.5
11.8357 13.8804 -15.5
2.59808 7.34847 -7.5
2.59808 7.34847 -23.5
16.4545 7.34847 -15.5
7.21688 20.4124 -15.5
3.75278 0.816497 -1.5
3.75278 0.816497 -17.5
17.6092 0.816497 -9.5
8.37158 13.8804 -9.5
3.75278 0.816497 -9.5
3.75278 0.816497 -25.5
17.6092 0.816497 -17.5
8.37158 13.8804 -17.5
10.681 0.816497 -5.5
10.681 0.816497 -21.5
24.5374 0.816497 -13.5
15.2998 13.8804 -13.5
6.06218 7.34847 -5.5
6.06218 7.34847 -21.5
19.9186 7.34847 -13.5
10.681 20.4124 -13.5
1.44338 4.08248 -1.5
1.44338 4.08248 -17.5
15.2998 4.08248 -9.5
6.06218 17.1464 -9.5
1.44338 4.08248 -9.5
1.44338 4.08248 -25.5
15.2998 4.08248 -17.5
6.06218 17.1464 -17.5
8.37158 4.08248 -5.5
8.37158 4.08248 -21.5
22.228 4.08248 -13.5
12.9904 17.1464 -13.5
3.75278 10.6145 -5.5
3.75278 10.6145 -21.5
17.6092 10.6145 -13.5
8.37158 23.6784 -13.5
0.288675 0.816497 -1.5
0.288675 0.816497 -17.5
14.1451 0.816497 -9.5
4.90748 13.8804 -9.5
0.288675 0.816497 -9.5
0.288675 0.816497 -25.5
14.1451 0.816497 -17.5
4.90748 13.8804 -17.5
7.21688 0.816497 -5.5
7.21688 0.816497 -21.5
21.0733 0.816497 -13.5
11.8357 13.8804 -13.5
2.59808 7.34847 -5.5
2.59808 7.34847 -21.5
16.4545 7.34847 -13.5
7.21688 20.4124 -13.5
0.288675 0.816497 -5.5
0.288675 0.816497 -21.5
14.1451 0.816497 -13.5
4.90748 13.8804 -13.5
0.288675 0.816497 -13.5
0.288675 0.816497 -29.5
14.1451 0.816497 -21.5
4.90748 13.8804 -21.5
7.21688 0.816497 -9.5
7.21688 0.816497 -25.5
21.0733 0.816497 -17.5
11.8357 13.8804 -17.5
2.59808 7.34847 -9.5
2.59808 7.34847 -25.5
16.4545 7.34847 -17.5
7.21688 20.4124 -17.5
3.75278 0.816497 -3.5
3.75278 0.816497 -19.5
17.6092 0.816497 -11.5
8.37158 13.8804 -11.5
3.75278 0.816497 -11.5
3.75278 0.816497 -27.5
17.6092 0.816497 -19.5
8.37158 13.8804 -19.5
10.681 0.816497 -7.5
10.681 0.816497 -23.5
24.5374 0.816497 -15.5
15.2998 13.8804 -15.5
6.06218 7.34847 -7.5
6.06218 7.34847 -23.5
19.9186 7.34847 -15.5
10.681 20.4124 -15.5
1.44338 4.08248 -3.5
1.44338 4.08248 -19.5
15.2998 4.08248 -11.5
6.06218 17.1464 -11.5
1.44338 4.08248 -11.5
1.44338 4.08248 -27.5
15.2998 4.08248 -19.5
6.06218 17.1464 -19.5
8.37158 4.08248 -7.5
8.37158 4.08248 -23.5
22.228 4.08248 -15.5
12.9904 17.1464 -15.5
3.75278 10.6145 -7.5
3.75278 10.6145 -23.5
17.6092 10.6145 -15.5
8.37158 23.6784 -15.5
2.02073 0.816497 -0.5
2.02073 0.816497 -16.5
15.8771 0.816497 -8.5
6.63953 13.8804 -8.5
2.02073 0.816497 -8.5
2.02073 0.816497 -24.5
15.8771 0.816497 -16.5
6.63953 13.8804 -16.5
8.94893 0.816497 -4.5
8.94893 0.816497 -20.5
22.8053 0.816497 -12.5
13.5677 13.8804 -12.5
4.33013 7.34847 -4.5
4.33013 7.34847 -20.5
18.1865 7.34847 -12.5
8.94893 20.4124 -12.5
2.02073 0.816497 -4.5
2.02073 0.816497 -20.5
15.8771 0.816497 -12.5
6.63953 13.8804 -12.5
2.02073 0.816497 -12.5
2.02073 0.816497 -28.5
15.8771 0.816497 -20.5
6.63953 13.8804 -20.5
8.94893 0.816497 -8.5
8.94893 0.816497 -24.5
22.8053 0.816497 -16.5
13.5677 13.8804 -16.5
4.33013 7.34847 -8.5
4.33013 7.34847 -24.5
18.1865 7.34847 -16.5
8.94893 20.4124 -16.5
5.48483 0.816497 -2.5
5.48483 0.816497 -18.5
19.3412 0.816497 -10.5
10.1036 13.8804 -10.5
5.48483 0.816497 -10.5
5.48483 0.816497 -26.5
19.3412 0.816497 -18.5
10.1036 13.8804 -18.5
12.413 0.816497 -6.5
12.413 0.816497 -22.5
26.2694 0.816497 -14.5
17.0318 13.8804 -14.5
7.79423 7.34847 -6.5
7.79423 7.34847 -22.5
21.6506 7.34847 -14.5
12.413 20.4124 -14.5
3.17543 4.08248 -2.5
3.17543 4.08248 -18.5
17.0318 4.08248 -10.5
7.79423 17.1464 -10.5
3.17543 4.08248 -10.5
3.17543 4.08248 -26.5
17.0318 4.08248 -18.5
7.79423 17.1464 -18.5
10.1036 4.08248 -6.5
10.1036 4.08248 -22.5
23.96 4.08248 -14.5
14.7224 17.1464 -14.5
5.48483 10.6145 -6.5
5.48483 10.6145 -22.5
19.3412 10.6145 -14.5
10.1036 23.6784 -14.5
0.866025 2.44949 -0.5
0.866025 2.44949 -16.5
14.7224 2.44949 -8.5
5.48483 15.5134 -8.5
0.866025 2.44949 -8.5
0.866025 2.44949 -24.5
14.7224 2.44949 -16.5
5.48483 15.5134 -16.5
7.79423 2.44949 -4.5
7.79423 2.44949 -20.5
21.6506 2.44949 -12.5
12.413 15.5134 -12.5
3.17543 8.98146 -4.5
3.17543 8.98146 -20.5
17.0318 8.98146 -12.5
7.79423 22.0454 -12.5
0.866025 2.44949 -4.5
0.866025 2.44949 -20.5
14.7224 2.44949 -12.5
5.48483 15.5134 -12.5
0.866025 2.44949 -12.5
0.866025 2.44949 -28.5
14.7224 2.44949 -20.5
5.48483 15.5134 -20.5
7.79423 2.44949 -8.5
7.79423 2.44949 -24.5
21.6506 2.44949 -16.5
12.413 15.5134 -16.5
3.17543 8.98146 -8.5
3.17543 8.98146 -24.5
17.0318 8.98146 -16.5
7.79423 22.0454 -16.5
4.33013 2.44949 -2.5
4.33013 2.44949 -18.5
18.1865 2.44949 -10.5
8.94893 15.5134 -10.5
4.33013 2.44949 -10.5
4.33013 2.44949 -26.5
18.1865 2.44949 -18.5
8.94893 15.5134 -18.5
11.2583 2.44949 -6.5
11.2583 2.44949 -22.5
25.1147 2.44949 -14.5
15.8771 15.5134 -14.5
6.63953 8.98146 -6.5
6.63953 8.98146 -22.5
20.4959 8.98146 -14.5
11.2583 22.0454 -14.5
2.02073 5.71548 -2.5
2.02073 5.71548 -18.5
15.8771 5.71548 -10.5
6.63953 18.7794 -10.5
2.02073 5.71548 -10.5
2.02073 5.71548 -26.5
15.8771 5.71548 -18.5
6.63953 18.7794 -18.5
8.94893 5.71548 -6.5
8.94893 5.71548 -22.5
22.8053 5.71548 -14.5
13.5677 18.7794 -14.5
4.33013 12.2474 -6.5
4.33013 12.2474 -22.5
18.1865 12.2474 -14.5
8.94893 25.3114 -14.5
27.7128 0 -15
18.4752 13.0639 -15
9.2376 6.53197 -7
9.2376 6.53197 -23
23.094 6.53197 -15
13.8564 19.5959 -15
4.6188 3.26599 -3
4.6188 3.26599 -19
18.4752 3.26599 -11
9.2376 16.3299 -11
4.6188 3.26599 -11
4.6188 3.26599 -27
18.4752 3.26599 -19
9.2376 16.3299 -19
11.547 3.26599 -7
11.547 3.26599 -23
25.4034 3.26599 -15
16.1658 16.3299 -15
6.9282 9.79796 -7
6.9282 9.79796 -23
20.7846 9.79796 -15
11.547 22.8619 -15
2.3094 1.63299 -1
2.3094 1.63299 -17
16.1658 1.63299 -9
6.9282 14.6969 -9
2.3094 1.63299 -9
2.3094 1.63299 -25
16.1658 1.63299 -17
6.9282 14.6969 -17
9.2376 1.63299 -5
9.2376 1.63299 -21
23.094 1.63299 -13
13.8564 14.6969 -13
4.6188 8.16497 -5
4.6188 8.16497 -21
18.4752 8.16497 -13
9.2376 21.2289 -13
2.3094 1.63299 -5
2.3094 1.63299 -21
16.1658 1.63299 -13
6.9282 14.6969 -13
2.3094 1.63299 -13
2.3094 1.63299 -29
16.1658 1.63299 -21
6.9282 14.6969 -21
9.2376 1.63299 -9
9.2376 1.63299 -25
23.094 1.63299 -17
13.8564 14.6969 -17
4.6188 8.16497 -9
4.6188 8.16497 -25
18.4752 8.16497 -17
9.2376 21.2289 -17
5.7735 1.63299 -3
5.7735 1.63299 -19
19.6299 1.63299 -11
10.3923 14.6969 -11
5.7735 1.63299 -11
5.7735 1.63299 -27
19.6299 1.63299 -19
10.3923 14.6969 -19
12.7017 1.63299 -7
12.7017 1.63299 -23
26.5581 1.63299 -15
17.3205 14.6969 -15
8.0829 8.16497 -7
8.0829 8.16497 -23
21.9393 8.16497 -15
12.7017 21.2289 -15
3.4641 4.89898 -3
3.4641 4.89898 -19
17.3205 4.89898 -11
8.0829 17.9629 -11
3.4641 4.89898 -11
3.4641 4.89898 -27
17.3205 4.89898 -19
8.0829 17.9629 -19
10.3923 4.89898 -7
10.3923 4.89898 -23
24.2487 4.89898 -15
15.0111 17.9629 -15
5.7735 11.431 -7
5.7735 11.431 -23
19.6299 11.431 -15
10.3923 24.4949 -15
1.1547 0.816497 0
1.1547 0.816497 -16
15.0111 0.816497 -8
5.7735 13.8804 -8
1.1547 0.816497 -8
1.1547 0.816497 -24
15.0111 0.816497 -16
5.7735 13.8804 -16
8.0829 0.816497 -4
8.0829 0.816497 -20
21.9393 0.816497 -12
12.7017 13.8804 -12
3.4641 7.34847 -4
3.4641 7.34847 -20
17.3205 7.34847 -12
8.0829 20.4124 -12
1.1547 0.816497 -4
1.1547 0.816497 -20
15.0111 0.816497 -12
5.7735 13.8804 -12
1.1547 0.816497 -12
1.1547 0.816497 -28
15.0111 0.816497 -20
5.7735 13.8804 -20
8.0829 0.816497 -8
8.0829 0.816497 -24
21.9393 0.816497 -16
12.7017 13.8804 -16
3.4641 7.34847 -8
3.4641 7.34847 -24
17.3205 7.34847 -16
8.0829 20.4124 -16
4.6188 0.816497 -2
4.6188 0.816497 -18
18.4752 0.816497 -10
9.2376 13.8804 -10
4.6188 0.816497 -10
4.6188 0.816497 -26
18.4752 0.816497 -18
9.2376 13.8804 -18
11.547 0.816497 -6
11.547 0.816497 -22
25.4034 0.816497 -14
16.1658 13.8804 -14
6.9282 7.34847 -6
6.9282 7.34847 -22
20.7846 7.34847 -14
11.547 20.4124 -14
2.3094 4.08248 -2
2.3094 4.08248 -18
16.1658 4.08248 -10
6.9282 17.1464 -10
2.3094 4.08248 -10
2.3094 4.08248 -26
16.1658 4.08248 -18
6.9282 17.1464 -18
9.2376 4.08248 -6
9.2376 4.08248 -22
23.094 4.08248 -14
13.8564 17.1464 -14
4.6188 10.6145 -6
4.6188 10.6145 -22
18.4752 10.6145 -14
9.2376 23.6784 -14
1.1547 0.816497 -2
1.1547 0.816497 -18
15.0111 0.816497 -10
5.7735 13.8804 -10
1.1547 0.816497 -10
1.1547 0.816497 -26
15.0111 0.816497 -18
5.7735 13.8804 -18
8.0829 0.816497 -6
8.0829 0.816497 -22
21.9393 0.816497 -14
12.7017 13.8804 -14
3.4641 7.34847 -6
3.4641 7.34847 -22
17.3205 7.34847 -14
8.0829 20.4124 -14
1.1547 0.816497 -6
1.1547 0.816497 -22
15.0111 0.816497 -14
5.7735 13.8804 -14
1.1547 0.816497 -14
1.1547 0.816497 -30
15.0111 0.816497 -22
5.7735 13.8804 -22
8.0829 0.816497 -10
8.0829 0.816497 -26
21.9393 0.816497 -18
12.7017 13.8804 -18
3.4641 7.34847 -10
3.4641 7.34847 -26
17.3205 7.34847 -18
8.0829 20.4124 -18
4.6188 0.816497 -4
4.6188 0.816497 -20
18.4752 0.816497 -12
9.2376 13.8804 -12
4.6188 0.816497 -12
4.6188 0.816497 -28
18.4752 0.816497 -20
9.2376 13.8804 -20
11.547 0.816497 -8
11.547 0.816497 -24
25.4034 0.816497 -16
16.1658 13.8804 -16
6.9282 7.34847 -8
6.9282 7.34847 -24
20.7846 7.34847 -16
11.547 20.4124 -16
2.3094 4.08248 -4
2.3094 4.08248 -20
16.1658 4.08248 -12
6.9282 17.1464 -12
2.3094 4.08248 -12
2.3094 4.08248 -28
16.1658 4.08248 -20
6.9282 17.1464 -20
9.2376 4.08248 -8
9.2376 4.08248 -24
23.094 4.08248 -16
13.8564 17.1464 -16
4.6188 10.6145 -8
4.6188 10.6145 -24
18.4752 10.6145 -16
9.2376 23.6784 -16
2.88675 0.816497 -1
2.88675 0.816497 -17
16.7432 0.816497 -9
7.50555 13.8804 -9
2.88675 0.816497 -9
2.88675 0.816497 -25
16.7432 0.816497 -17
7.50555 13.8804 -17
9.81495 0.816497 -5
9.81495 0.816497 -21
23.6714 0.816497 -13
14.4338 13.8804 -13
5.19615 7.34847 -5
5.19615 7.34847 -21
19.0526 7.34847 -13
9.81495 20.4124 -13
2.88675 0.816497 -5
2.88675 0.816497 -21
16.7432 0.816497 -13
7.50555 13.8804 -13
2.88675 0.816497 -13
2.88675 0.816497 -29
16.7432 0.816497 -21
7.50555 13.8804 -21
9.81495 0.816497 -9
9.81495 0.816497 -25
23.6714 0.816497 -17
14.4338 13.8804 -17
5.19615 7.34847 -9
5.19615 7.34847 -25
19.0526 7.34847 -17
9.81495 20.4124 -17
6.35085 0.816497 -3
6.35085 0.816497 -19
20.2073 0.816497 -11
10.9697 13.8804 -11
6.35085 0.816497 -11
6.35085 0.816497 -27
20.2073 0.816497 -19
10.9697 13.8804 -19
13.2791 0.816497 -7
13.2791 0.816497 -23
27.1355 0.816497 -15
17.8979 13.8804 -15
8.66025 7.34847 -7
8.66025 7.34847 -23
22.5167 7.34847 -15
13.2791 20.4124 -15
4.04145 4.08248 -3
4.04145 4.08248 -19
17.8979 4.08248 -11
8.66025 17.1464 -11
4.04145 4.08248 -11
4.04145 4.08248 -27
17.8979 4.08248 -19
8.66025 17.1464 -19
10.9697 4.08248 -7
10.9697 4.08248 -23
24.8261 4.08248 -15
15.5885 17.1464 -15
6.35085 10.6145 -7
6.35085 10.6145 -23
20.2073 10.6145 -15
10.9697 23.6784 -15
1.73205 2.44949 -1
1.73205 2.44949 -17
15.5885 2.44949 -9
6.35085 15.5134 -9
1.73205 2.44949 -9
1.73205 2.44949 -25
15.5885 2.44949 -17
6.35085 15.5134 -17
8.66025 2.44949 -5
8.66025 2.44949 -21
22.5167 2.44949 -13
13.2791 15.5134 -13
4.04145 8.98146 -5
4.04145 8.98146 -21
17.8979 8.98146 -13
8.66025 22.0454 -13
1.73205 2.44949 -5
1.73205 2.44949 -21
15.5885 2.44949 -13
6.35085 15.5134 -13
1.73205 2.44949 -13
1.73205 2.44949 -29
15.5885 2.44949 -21
6.35085 15.5134 -21
8.66025 2.44949 -9
8.66025 2.44949 -25
22.5167 2.44949 -17
13.2791 15.5134 -17
4.04145 8.98146 -9
4.04145 8.98146 -25
17.8979 8.98146 -17
8.66025 22.0454 -17
5.19615 2.44949 -3
5.19615 2.44949 -19
19.0526 2.44949 -11
9.81495 15.5134 -11
5.19615 2.44949 -11
5.19615 2.44949 -27
19.0526 2.44949 -19
9.81495 15.5134 -19
12.1244 2.44949 -7
12.1244 2.44949 -23
25.9808 2.44949 -15
16.7432 15.5134 -15
7.50555 8.98146 -7
7.50555 8.98146 -23
21.362 8.98146 -15
12.1244 22.0454 -15
2.88675 5.71548 -3
2.88675 5.71548 -19
16.7432 5.71548 -11
7.50555 18.7794 -11
2.88675 5.71548 -11
2.88675 5.71548 -27
16.7432 5.71548 -19
7.50555 18.7794 -19
9.81495 5.71548 -7
9.81495 5.71548 -23
23.6714 5.71548 -15
14.4338 18.7794 -15
5.19615 12.2474 -7
5.19615 12.2474 -23
19.0526 12.2474 -15
9.81495 25.3114 -15
9.2376 26.1279 -15
