ply
format ascii 1.0
comment PCL generated
obj_info is_cyberware_data 0
obj_info is_mesh 0
obj_info is_warped 0
obj_info is_interlaced 0
obj_info num_cols 55
obj_info num_rows 1
obj_info echo_rgb_offset_x 0
obj_info echo_rgb_offset_y 0
obj_info echo_rgb_offset_z 0
obj_info echo_rgb_frontfocus 0.0
obj_info echo_rgb_backfocus 0.0
obj_info echo_rgb_pixelsize 0.0
obj_info echo_rgb_centerpixel 0
obj_info echo_frames 1
obj_info echo_lgincr 0.0
element vertex 55
property float x
property float y
property float z
end_header
0 0 0
50 0 0
0 0 -50
50 0 -50
25 35.3553 -25
25 0 0
75 0 0
25 0 -50
75 0 -50
50 35.3553 -25
0 0 -25
50 0 -25
0 0 -75
50 0 -75
25 35.3553 -50
25 0 -25
75 0 -25
25 0 -75
75 0 -75
50 35.3553 -50
12.5 17.6777 -12.5
62.5 17.6777 -12.5
12.5 17.6777 -62.5
62.5 17.6777 -62.5
37.5 53.033 -37.5
0 0 25
50 0 25
25 35.3553 0
25 0 25
75 0 25
50 35.3553 0
12.5 17.6777 12.5
62.5 17.6777 12.5
12.5 17.6777 -37.5
62.5 17.6777 -37.5
37.5 53.033 -12.5
100 0 0
100 0 -50
75 35.3553 -25
100 0 -25
100 0 -75
75 35.3553 -50
37.5 17.6777 -12.5
87.5 17.6777 -12.5
37.5 17.6777 -62.5
87.5 17.6777 -62.5
62.5 53.033 -37.5
100 0 25
75 35.3553 0
37.5 17.6777 12.5
87.5 17.6777 12.5
37.5 17.6777 -37.5
87.5 17.6777 -37.5
62.5 53.033 -12.5
50 70.7107 -25
