ply
format ascii 1.0
comment PCL generated
obj_info is_cyberware_data 0
obj_info is_mesh 0
obj_info is_warped 0
obj_info is_interlaced 0
obj_info num_cols 514
obj_info num_rows 1
obj_info echo_rgb_offset_x 0
obj_info echo_rgb_offset_y 0
obj_info echo_rgb_offset_z 0
obj_info echo_rgb_frontfocus 0.0
obj_info echo_rgb_backfocus 0.0
obj_info echo_rgb_pixelsize 0.0
obj_info echo_rgb_centerpixel 0
obj_info echo_frames 1
obj_info echo_lgincr 0.0
element vertex 514
property float x
property float y
property float z
end_header
0 0 0
0 0 -50
43.3013 0 -25
14.4338 40.8248 -25
0 0 -25
0 0 -75
43.3013 0 -50
14.4338 40.8248 -50
21.6506 0 -12.5
21.6506 0 -62.5
64.9519 0 -37.5
36.0844 40.8248 -37.5
7.21688 20.4124 -12.5
7.21688 20.4124 -62.5
50.5181 20.4124 -37.5
21.6506 61.2372 -37.5
0 0 -12.5
0 0 -62.5
43.3013 0 -37.5
14.4338 40.8248 -37.5
0 0 -37.5
0 0 -87.5
43.3013 0 -62.5
14.4338 40.8248 -62.5
21.6506 0 -25
21.6506 0 -75
64.9519 0 -50
36.0844 40.8248 -50
7.21688 20.4124 -25
7.21688 20.4124 -75
50.5181 20.4124 -50
21.6506 61.2372 -50
10.8253 0 -6.25
10.8253 0 -56.25
54.1266 0 -31.25
25.2591 40.8248 -31.25
10.8253 0 -31.25
10.8253 0 -81.25
54.1266 0 -56.25
25.2591 40.8248 -56.25
32.476 0 -18.75
32.476 0 -68.75
75.7772 0 -43.75
46.9097 40.8248 -43.75
18.0422 20.4124 -18.75
18.0422 20.4124 -68.75
61.3435 20.4124 -43.75
32.476 61.2372 -43.75
3.60844 10.2062 -6.25
3.60844 10.2062 -56.25
46.9097 10.2062 -31.25
18.0422 51.031 -31.25
3.60844 10.2062 -31.25
3.60844 10.2062 -81.25
46.9097 10.2062 -56.25
18.0422 51.031 -56.25
25.2591 10.2062 -18.75
25.2591 10.2062 -68.75
68.5603 10.2062 -43.75
39.6928 51.031 -43.75
10.8253 30.6186 -18.75
10.8253 30.6186 -68.75
54.1266 30.6186 -43.75
25.2591 71.4435 -43.75
0 0 -6.25
0 0 -56.25
43.3013 0 -31.25
14.4338 40.8248 -31.25
0 0 -31.25
0 0 -81.25
43.3013 0 -56.25
14.4338 40.8248 -56.25
21.6506 0 -18.75
21.6506 0 -68.75
64.9519 0 -43.75
36.0844 40.8248 -43.75
7.21688 20.4124 -18.75
7.21688 20.4124 -68.75
50.5181 20.4124 -43.75
21.6506 61.2372 -43.75
0 0 -18.75
0 0 -68.75
43.3013 0 -43.75
14.4338 40.8248 -43.75
0 0 -43.75
0 0 -93.75
43.3013 0 -68.75
14.4338 40.8248 -68.75
21.6506 0 -31.25
21.6506 0 -81.25
64.9519 0 -56.25
36.0844 40.8248 -56.25
7.21688 20.4124 -31.25
7.21688 20.4124 -81.25
50.5181 20.4124 -56.25
21.6506 61.2372 -56.25
10.8253 0 -12.5
10.8253 0 -62.5
54.1266 0 -37.5
25.2591 40.8248 -37.5
10.8253 0 -37.5
10.8253 0 -87.5
54.1266 0 -62.5
25.2591 40.8248 -62.5
32.476 0 -25
32.476 0 -75
75.7772 0 -50
46.9097 40.8248 -50
18.0422 20.4124 -25
18.0422 20.4124 -75
61.3435 20.4124 -50
32.476 61.2372 -50
3.60844 10.2062 -12.5
3.60844 10.2062 -62.5
46.9097 10.2062 -37.5
18.0422 51.031 -37.5
3.60844 10.2062 -37.5
3.60844 10.2062 -87.5
46.9097 10.2062 -62.5
18.0422 51.031 -62.5
25.2591 10.2062 -25
25.2591 10.2062 -75
68.5603 10.2062 -50
39.6928 51.031 -50
10.8253 30.6186 -25
10.8253 30.6186 -75
54.1266 30.6186 -50
25.2591 71.4435 -50
5.41266 0 -3.125
5.41266 0 -53.125
48.7139 0 -28.125
19.8464 40.8248 -28.125
5.41266 0 -28.125
5.41266 0 -78.125
48.7139 0 -53.125
19.8464 40.8248 -53.125
27.0633 0 -15.625
27.0633 0 -65.625
70.3646 0 -40.625
41.4971 40.8248 -40.625
12.6295 20.4124 -15.625
12.6295 20.4124 -65.625
55.9308 20.4124 -40.625
27.0633 61.2372 -40.625
5.41266 0 -15.625
5.41266 0 -65.625
48.7139 0 -40.625
19.8464 40.8248 -40.625
5.41266 0 -40.625
5.41266 0 -90.625
48.7139 0 -65.625
19.8464 40.8248 -65.625
27.0633 0 -28.125
27.0633 0 -78.125
70.3646 0 -53.125
41.4971 40.8248 -53.125
12.6295 20.4124 -28.125
12.6295 20.4124 -78.125
55.9308 20.4124 -53.125
27.0633 61.2372 -53.125
16.238 0 -9.375
16.238 0 -59.375
59.5392 0 -34.375
30.6717 40.8248 -34.375
16.238 0 -34.375
16.238 0 -84.375
59.5392 0 -59.375
30.6717 40.8248 -59.375
37.8886 0 -21.875
37.8886 0 -71.875
81.1899 0 -46.875
52.3224 40.8248 -46.875
23.4549 20.4124 -21.875
23.4549 20.4124 -71.875
66.7561 20.4124 -46.875
37.8886 61.2372 -46.875
9.0211 10.2062 -9.375
9.0211 10.2062 -59.375
52.3224 10.2062 -34.375
23.4549 51.031 -34.375
9.0211 10.2062 -34.375
9.0211 10.2062 -84.375
52.3224 10.2062 -59.375
23.4549 51.031 -59.375
30.6717 10.2062 -21.875
30.6717 10.2062 -71.875
73.973 10.2062 -46.875
45.1055 51.031 -46.875
16.238 30.6186 -21.875
16.238 30.6186 -71.875
59.5392 30.6186 -46.875
30.6717 71.4435 -46.875
1.80422 5.1031 -3.125
1.80422 5.1031 -53.125
45.1055 5.1031 -28.125
16.238 45.9279 -28.125
1.80422 5.1031 -28.125
1.80422 5.1031 -78.125
45.1055 5.1031 -53.125
16.238 45.9279 -53.125
23.4549 5.1031 -15.625
23.4549 5.1031 -65.625
66.7561 5.1031 -40.625
37.8886 45.9279 -40.625
9.0211 25.5155 -15.625
9.0211 25.5155 -65.625
52.3224 25.5155 -40.625
23.4549 66.3403 -40.625
1.80422 5.1031 -15.625
1.80422 5.1031 -65.625
45.1055 5.1031 -40.625
16.238 45.9279 -40.625
1.80422 5.1031 -40.625
1.80422 5.1031 -90.625
45.1055 5.1031 -65.625
16.238 45.9279 -65.625
23.4549 5.1031 -28.125
23.4549 5.1031 -78.125
66.7561 5.1031 -53.125
37.8886 45.9279 -53.125
9.0211 25.5155 -28.125
9.0211 25.5155 -78.125
52.3224 25.5155 -53.125
23.4549 66.3403 -53.125
12.6295 5.1031 -9.375
12.6295 5.1031 -59.375
55.9308 5.1031 -34.375
27.0633 45.9279 -34.375
12.6295 5.1031 -34.375
12.6295 5.1031 -84.375
55.9308 5.1031 -59.375
27.0633 45.9279 -59.375
34.2802 5.1031 -21.875
34.2802 5.1031 -71.875
77.5814 5.1031 -46.875
48.7139 45.9279 -46.875
19.8464 25.5155 -21.875
19.8464 25.5155 -71.875
63.1477 25.5155 -46.875
34.2802 66.3403 -46.875
5.41266 15.3093 -9.375
5.41266 15.3093 -59.375
48.7139 15.3093 -34.375
19.8464 56.1341 -34.375
5.41266 15.3093 -34.375
5.41266 15.3093 -84.375
48.7139 15.3093 -59.375
19.8464 56.1341 -59.375
27.0633 15.3093 -21.875
27.0633 15.3093 -71.875
70.3646 15.3093 -46.875
41.4971 56.1341 -46.875
12.6295 35.7217 -21.875
12.6295 35.7217 -71.875
55.9308 35.7217 -46.875
27.0633 76.5466 -46.875
0 0 6.25
43.3013 0 -18.75
14.4338 40.8248 -18.75
21.6506 0 -6.25
21.6506 0 -56.25
64.9519 0 -31.25
36.0844 40.8248 -31.25
7.21688 20.4124 -6.25
7.21688 20.4124 -56.25
50.5181 20.4124 -31.25
21.6506 61.2372 -31.25
10.8253 0 0
10.8253 0 -50
54.1266 0 -25
25.2591 40.8248 -25
10.8253 0 -25
10.8253 0 -75
54.1266 0 -50
25.2591 40.8248 -50
32.476 0 -12.5
32.476 0 -62.5
75.7772 0 -37.5
46.9097 40.8248 -37.5
18.0422 20.4124 -12.5
18.0422 20.4124 -62.5
61.3435 20.4124 -37.5
32.476 61.2372 -37.5
3.60844 10.2062 0
3.60844 10.2062 -50
46.9097 10.2062 -25
18.0422 51.031 -25
3.60844 10.2062 -25
3.60844 10.2062 -75
46.9097 10.2062 -50
18.0422 51.031 -50
25.2591 10.2062 -12.5
25.2591 10.2062 -62.5
68.5603 10.2062 -37.5
39.6928 51.031 -37.5
10.8253 30.6186 -12.5
10.8253 30.6186 -62.5
54.1266 30.6186 -37.5
25.2591 71.4435 -37.5
5.41266 0 3.125
5.41266 0 -46.875
48.7139 0 -21.875
19.8464 40.8248 -21.875
5.41266 0 -21.875
5.41266 0 -71.875
48.7139 0 -46.875
19.8464 40.8248 -46.875
27.0633 0 -9.375
27.0633 0 -59.375
70.3646 0 -34.375
41.4971 40.8248 -34.375
12.6295 20.4124 -9.375
12.6295 20.4124 -59.375
55.9308 20.4124 -34.375
27.0633 61.2372 -34.375
5.41266 0 -9.375
5.41266 0 -59.375
48.7139 0 -34.375
19.8464 40.8248 -34.375
5.41266 0 -34.375
5.41266 0 -84.375
48.7139 0 -59.375
19.8464 40.8248 -59.375
27.0633 0 -21.875
27.0633 0 -71.875
70.3646 0 -46.875
41.4971 40.8248 -46.875
12.6295 20.4124 -21.875
12.6295 20.4124 -71.875
55.9308 20.4124 -46.875
27.0633 61.2372 -46.875
16.238 0 -3.125
16.238 0 -53.125
59.5392 0 -28.125
30.6717 40.8248 -28.125
16.238 0 -28.125
16.238 0 -78.125
59.5392 0 -53.125
30.6717 40.8248 -53.125
37.8886 0 -15.625
37.8886 0 -65.625
81.1899 0 -40.625
52.3224 40.8248 -40.625
23.4549 20.4124 -15.625
23.4549 20.4124 -65.625
66.7561 20.4124 -40.625
37.8886 61.2372 -40.625
9.0211 10.2062 -3.125
9.0211 10.2062 -53.125
52.3224 10.2062 -28.125
23.4549 51.031 -28.125
9.0211 10.2062 -28.125
9.0211 10.2062 -78.125
52.3224 10.2062 -53.125
23.4549 51.031 -53.125
30.6717 10.2062 -15.625
30.6717 10.2062 -65.625
73.973 10.2062 -40.625
45.1055 51.031 -40.625
16.238 30.6186 -15.625
16.238 30.6186 -65.625
59.5392 30.6186 -40.625
30.6717 71.4435 -40.625
1.80422 5.1031 3.125
1.80422 5.1031 -46.875
45.1055 5.1031 -21.875
16.238 45.9279 -21.875
1.80422 5.1031 -21.875
1.80422 5.1031 -71.875
45.1055 5.1031 -46.875
16.238 45.9279 -46.875
23.4549 5.1031 -9.375
23.4549 5.1031 -59.375
66.7561 5.1031 -34.375
37.8886 45.9279 -34.375
9.0211 25.5155 -9.375
9.0211 25.5155 -59.375
52.3224 25.5155 -34.375
23.4549 66.3403 -34.375
1.80422 5.1031 -9.375
1.80422 5.1031 -59.375
45.1055 5.1031 -34.375
16.238 45.9279 -34.375
1.80422 5.1031 -34.375
1.80422 5.1031 -84.375
45.1055 5.1031 -59.375
16.238 45.9279 -59.375
23.4549 5.1031 -21.875
23.4549 5.1031 -71.875
66.7561 5.1031 -46.875
37.8886 45.9279 -46.875
9.0211 25.5155 -21.875
9.0211 25.5155 -71.875
52.3224 25.5155 -46.875
23.4549 66.3403 -46.875
12.6295 5.1031 -3.125
12.6295 5.1031 -53.125
55.9308 5.1031 -28.125
27.0633 45.9279 -28.125
12.6295 5.1031 -28.125
12.6295 5.1031 -78.125
55.9308 5.1031 -53.125
27.0633 45.9279 -53.125
34.2802 5.1031 -15.625
34.2802 5.1031 -65.625
77.5814 5.1031 -40.625
48.7139 45.9279 -40.625
19.8464 25.5155 -15.625
19.8464 25.5155 -65.625
63.1477 25.5155 -40.625
34.2802 66.3403 -40.625
5.41266 15.3093 -3.125
5.41266 15.3093 -53.125
48.7139 15.3093 -28.125
19.8464 56.1341 -28.125
5.41266 15.3093 -28.125
5.41266 15.3093 -78.125
48.7139 15.3093 -53.125
19.8464 56.1341 -53.125
27.0633 15.3093 -15.625
27.0633 15.3093 -65.625
70.3646 15.3093 -40.625
41.4971 56.1341 -40.625
12.6295 35.7217 -15.625
12.6295 35.7217 -65.625
55.9308 35.7217 -40.625
27.0633 76.5466 -40.625
86.6025 0 -43.75
57.735 40.8248 -43.75
28.8675 20.4124 -18.75
28.8675 20.4124 -68.75
72.1688 20.4124 -43.75
43.3013 61.2372 -43.75
14.4338 10.2062 -6.25
14.4338 10.2062 -56.25
57.735 10.2062 -31.25
28.8675 51.031 -31.25
14.4338 10.2062 -31.25
14.4338 10.2062 -81.25
57.735 10.2062 -56.25
28.8675 51.031 -56.25
36.0844 10.2062 -18.75
36.0844 10.2062 -68.75
79.3857 10.2062 -43.75
50.5182 51.031 -43.75
21.6506 30.6186 -18.75
21.6506 30.6186 -68.75
64.9519 30.6186 -43.75
36.0844 71.4435 -43.75
7.21688 5.1031 0
7.21688 5.1031 -50
50.5181 5.1031 -25
21.6506 45.9279 -25
7.21688 5.1031 -25
7.21688 5.1031 -75
50.5181 5.1031 -50
21.6506 45.9279 -50
28.8675 5.1031 -12.5
28.8675 5.1031 -62.5
72.1688 5.1031 -37.5
43.3013 45.9279 -37.5
14.4338 25.5155 -12.5
14.4338 25.5155 -62.5
57.735 25.5155 -37.5
28.8675 66.3403 -37.5
7.21688 5.1031 -12.5
7.21688 5.1031 -62.5
50.5181 5.1031 -37.5
21.6506 45.9279 -37.5
7.21688 5.1031 -37.5
7.21688 5.1031 -87.5
50.5181 5.1031 -62.5
21.6506 45.9279 -62.5
28.8675 5.1031 -25
28.8675 5.1031 -75
72.1688 5.1031 -50
43.3013 45.9279 -50
14.4338 25.5155 -25
14.4338 25.5155 -75
57.735 25.5155 -50
28.8675 66.3403 -50
18.0422 5.1031 -6.25
18.0422 5.1031 -56.25
61.3435 5.1031 -31.25
32.476 45.9279 -31.25
18.0422 5.1031 -31.25
18.0422 5.1031 -81.25
61.3435 5.1031 -56.25
32.476 45.9279 -56.25
39.6928 5.1031 -18.75
39.6928 5.1031 -68.75
82.9941 5.1031 -43.75
54.1266 45.9279 -43.75
25.2591 25.5155 -18.75
25.2591 25.5155 -68.75
68.5603 25.5155 -43.75
39.6928 66.3403 -43.75
10.8253 15.3093 -6.25
10.8253 15.3093 -56.25
54.1266 15.3093 -31.25
25.2591 56.1341 -31.25
10.8253 15.3093 -31.25
10.8253 15.3093 -81.25
54.1266 15.3093 -56.25
25.2591 56.1341 -56.25
32.476 15.3093 -18.75
32.476 15.3093 -68.75
75.7772 15.3093 -43.75
46.9097 56.1341 -43.75
18.0422 35.7217 -18.75
18.0422 35.7217 -68.75
61.3435 35.7217 -43.75
32.476 76.5466 -43.75
28.8675 81.6497 -43.75
