ply
format ascii 1.0
comment PCL generated
obj_info is_cyberware_data 0
obj_info is_mesh 0
obj_info is_warped 0
obj_info is_interlaced 0
obj_info num_cols 252
obj_info num_rows 1
obj_info echo_rgb_offset_x 0
obj_info echo_rgb_offset_y 0
obj_info echo_rgb_offset_z 0
obj_info echo_rgb_frontfocus 0.0
obj_info echo_rgb_backfocus 0.0
obj_info echo_rgb_pixelsize 0.0
obj_info echo_rgb_centerpixel 0
obj_info echo_frames 1
obj_info echo_lgincr 0.0
element vertex 252
property float x
property float y
property float z
end_header
0 0 0
50 0 0
0 0 -50
50 0 -50
25 35.3553 -25
25 0 0
75 0 0
25 0 -50
75 0 -50
50 35.3553 -25
0 0 -25
50 0 -25
0 0 -75
50 0 -75
25 35.3553 -50
25 0 -25
75 0 -25
25 0 -75
75 0 -75
50 35.3553 -50
12.5 17.6777 -12.5
62.5 17.6777 -12.5
12.5 17.6777 -62.5
62.5 17.6777 -62.5
37.5 53.033 -37.5
12.5 0 0
62.5 0 0
12.5 0 -50
62.5 0 -50
37.5 35.3553 -25
37.5 0 0
87.5 0 0
37.5 0 -50
87.5 0 -50
62.5 35.3553 -25
12.5 0 -25
62.5 0 -25
12.5 0 -75
62.5 0 -75
37.5 35.3553 -50
37.5 0 -25
87.5 0 -25
37.5 0 -75
87.5 0 -75
62.5 35.3553 -50
25 17.6777 -12.5
75 17.6777 -12.5
25 17.6777 -62.5
75 17.6777 -62.5
50 53.033 -37.5
0 0 -12.5
50 0 -12.5
0 0 -62.5
50 0 -62.5
25 35.3553 -37.5
25 0 -12.5
75 0 -12.5
25 0 -62.5
75 0 -62.5
50 35.3553 -37.5
0 0 -37.5
50 0 -37.5
0 0 -87.5
50 0 -87.5
25 35.3553 -62.5
25 0 -37.5
75 0 -37.5
25 0 -87.5
75 0 -87.5
50 35.3553 -62.5
12.5 17.6777 -25
62.5 17.6777 -25
12.5 17.6777 -75
62.5 17.6777 -75
37.5 53.033 -50
12.5 0 -12.5
62.5 0 -12.5
12.5 0 -62.5
62.5 0 -62.5
37.5 35.3553 -37.5
37.5 0 -12.5
87.5 0 -12.5
37.5 0 -62.5
87.5 0 -62.5
62.5 35.3553 -37.5
12.5 0 -37.5
62.5 0 -37.5
12.5 0 -87.5
62.5 0 -87.5
37.5 35.3553 -62.5
37.5 0 -37.5
87.5 0 -37.5
37.5 0 -87.5
87.5 0 -87.5
62.5 35.3553 -62.5
25 17.6777 -25
75 17.6777 -25
25 17.6777 -75
75 17.6777 -75
50 53.033 -50
6.25 8.83883 -6.25
56.25 8.83883 -6.25
6.25 8.83883 -56.25
56.25 8.83883 -56.25
31.25 44.1942 -31.25
31.25 8.83883 -6.25
81.25 8.83883 -6.25
31.25 8.83883 -56.25
81.25 8.83883 -56.25
56.25 44.1942 -31.25
6.25 8.83883 -31.25
56.25 8.83883 -31.25
6.25 8.83883 -81.25
56.25 8.83883 -81.25
31.25 44.1942 -56.25
31.25 8.83883 -31.25
81.25 8.83883 -31.25
31.25 8.83883 -81.25
81.25 8.83883 -81.25
56.25 44.1942 -56.25
18.75 26.5165 -18.75
68.75 26.5165 -18.75
18.75 26.5165 -68.75
68.75 26.5165 -68.75
43.75 61.8718 -43.75
0 0 12.5
50 0 12.5
25 35.3553 -12.5
25 0 12.5
75 0 12.5
50 35.3553 -12.5
12.5 17.6777 0
62.5 17.6777 0
12.5 17.6777 -50
62.5 17.6777 -50
37.5 53.033 -25
12.5 0 12.5
62.5 0 12.5
37.5 35.3553 -12.5
37.5 0 12.5
87.5 0 12.5
62.5 35.3553 -12.5
25 17.6777 0
75 17.6777 0
25 17.6777 -50
75 17.6777 -50
50 53.033 -25
6.25 8.83883 6.25
56.25 8.83883 6.25
6.25 8.83883 -43.75
56.25 8.83883 -43.75
31.25 44.1942 -18.75
31.25 8.83883 6.25
81.25 8.83883 6.25
31.25 8.83883 -43.75
81.25 8.83883 -43.75
56.25 44.1942 -18.75
6.25 8.83883 -18.75
56.25 8.83883 -18.75
6.25 8.83883 -68.75
56.25 8.83883 -68.75
31.25 44.1942 -43.75
31.25 8.83883 -18.75
81.25 8.83883 -18.75
31.25 8.83883 -68.75
81.25 8.83883 -68.75
56.25 44.1942 -43.75
18.75 26.5165 -6.25
68.75 26.5165 -6.25
18.75 26.5165 -56.25
68.75 26.5165 -56.25
43.75 61.8718 -31.25
100 0 0
100 0 -50
75 35.3553 -25
100 0 -25
100 0 -75
75 35.3553 -50
37.5 17.6777 -12.5
87.5 17.6777 -12.5
37.5 17.6777 -62.5
87.5 17.6777 -62.5
62.5 53.033 -37.5
100 0 -12.5
100 0 -62.5
75 35.3553 -37.5
100 0 -37.5
100 0 -87.5
75 35.3553 -62.5
37.5 17.6777 -25
87.5 17.6777 -25
37.5 17.6777 -75
87.5 17.6777 -75
62.5 53.033 -50
18.75 8.83883 -6.25
68.75 8.83883 -6.25
18.75 8.83883 -56.25
68.75 8.83883 -56.25
43.75 44.1942 -31.25
43.75 8.83883 -6.25
93.75 8.83883 -6.25
43.75 8.83883 -56.25
93.75 8.83883 -56.25
68.75 44.1942 -31.25
18.75 8.83883 -31.25
68.75 8.83883 -31.25
18.75 8.83883 -81.25
68.75 8.83883 -81.25
43.75 44.1942 -56.25
43.75 8.83883 -31.25
93.75 8.83883 -31.25
43.75 8.83883 -81.25
93.75 8.83883 -81.25
68.75 44.1942 -56.25
31.25 26.5165 -18.75
81.25 26.5165 -18.75
31.25 26.5165 -68.75
81.25 26.5165 -68.75
56.25 61.8718 -43.75
100 0 12.5
75 35.3553 -12.5
37.5 17.6777 0
87.5 17.6777 0
37.5 17.6777 -50
87.5 17.6777 -50
62.5 53.033 -25
18.75 8.83883 6.25
68.75 8.83883 6.25
18.75 8.83883 -43.75
68.75 8.83883 -43.75
43.75 44.1942 -18.75
43.75 8.83883 6.25
93.75 8.83883 6.25
43.75 8.83883 -43.75
93.75 8.83883 -43.75
68.75 44.1942 -18.75
18.75 8.83883 -18.75
68.75 8.83883 -18.75
18.75 8.83883 -68.75
68.75 8.83883 -68.75
43.75 44.1942 -43.75
43.75 8.83883 -18.75
93.75 8.83883 -18.75
43.75 8.83883 -68.75
93.75 8.83883 -68.75
68.75 44.1942 -43.75
31.25 26.5165 -6.25
81.25 26.5165 -6.25
31.25 26.5165 -56.25
81.25 26.5165 -56.25
56.25 61.8718 -31.25
50 70.7107 -37.5
