ply
format ascii 1.0
comment PCL generated
obj_info is_cyberware_data 0
obj_info is_mesh 0
obj_info is_warped 0
obj_info is_interlaced 0
obj_info num_cols 34
obj_info num_rows 1
obj_info echo_rgb_offset_x 0
obj_info echo_rgb_offset_y 0
obj_info echo_rgb_offset_z 0
obj_info echo_rgb_frontfocus 0.0
obj_info echo_rgb_backfocus 0.0
obj_info echo_rgb_pixelsize 0.0
obj_info echo_rgb_centerpixel 0
obj_info echo_frames 1
obj_info echo_lgincr 0.0
element vertex 34
property float x
property float y
property float z
end_header
0 0 0
0 0 -50
43.3013 0 -25
14.4338 40.8248 -25
0 0 -25
0 0 -75
43.3013 0 -50
14.4338 40.8248 -50
21.6506 0 -12.5
21.6506 0 -62.5
64.9519 0 -37.5
36.0844 40.8248 -37.5
7.21688 20.4124 -12.5
7.21688 20.4124 -62.5
50.5181 20.4124 -37.5
21.6506 61.2372 -37.5
0 0 25
43.3013 0 0
14.4338 40.8248 0
21.6506 0 12.5
21.6506 0 -37.5
64.9519 0 -12.5
36.0844 40.8248 -12.5
7.21688 20.4124 12.5
7.21688 20.4124 -37.5
50.5181 20.4124 -12.5
21.6506 61.2372 -12.5
86.6025 0 -25
57.735 40.8248 -25
28.8675 20.4124 0
28.8675 20.4124 -50
72.1688 20.4124 -25
43.3013 61.2372 -25
28.8675 81.6497 -25
