ply
format ascii 1.0
comment PCL generated
obj_info is_cyberware_data 0
obj_info is_mesh 0
obj_info is_warped 0
obj_info is_interlaced 0
obj_info num_cols 1221
obj_info num_rows 1
obj_info echo_rgb_offset_x 0
obj_info echo_rgb_offset_y 0
obj_info echo_rgb_offset_z 0
obj_info echo_rgb_frontfocus 0.0
obj_info echo_rgb_backfocus 0.0
obj_info echo_rgb_pixelsize 0.0
obj_info echo_rgb_centerpixel 0
obj_info echo_frames 1
obj_info echo_lgincr 0.0
element vertex 1221
property float x
property float y
property float z
end_header
0 0 0
50 0 0
0 0 -50
50 0 -50
25 35.3553 -25
25 0 0
75 0 0
25 0 -50
75 0 -50
50 35.3553 -25
0 0 -25
50 0 -25
0 0 -75
50 0 -75
25 35.3553 -50
25 0 -25
75 0 -25
25 0 -75
75 0 -75
50 35.3553 -50
12.5 17.6777 -12.5
62.5 17.6777 -12.5
12.5 17.6777 -62.5
62.5 17.6777 -62.5
37.5 53.033 -37.5
12.5 0 0
62.5 0 0
12.5 0 -50
62.5 0 -50
37.5 35.3553 -25
37.5 0 0
87.5 0 0
37.5 0 -50
87.5 0 -50
62.5 35.3553 -25
12.5 0 -25
62.5 0 -25
12.5 0 -75
62.5 0 -75
37.5 35.3553 -50
37.5 0 -25
87.5 0 -25
37.5 0 -75
87.5 0 -75
62.5 35.3553 -50
25 17.6777 -12.5
75 17.6777 -12.5
25 17.6777 -62.5
75 17.6777 -62.5
50 53.033 -37.5
0 0 -12.5
50 0 -12.5
0 0 -62.5
50 0 -62.5
25 35.3553 -37.5
25 0 -12.5
75 0 -12.5
25 0 -62.5
75 0 -62.5
50 35.3553 -37.5
0 0 -37.5
50 0 -37.5
0 0 -87.5
50 0 -87.5
25 35.3553 -62.5
25 0 -37.5
75 0 -37.5
25 0 -87.5
75 0 -87.5
50 35.3553 -62.5
12.5 17.6777 -25
62.5 17.6777 -25
12.5 17.6777 -75
62.5 17.6777 -75
37.5 53.033 -50
12.5 0 -12.5
62.5 0 -12.5
12.5 0 -62.5
62.5 0 -62.5
37.5 35.3553 -37.5
37.5 0 -12.5
87.5 0 -12.5
37.5 0 -62.5
87.5 0 -62.5
62.5 35.3553 -37.5
12.5 0 -37.5
62.5 0 -37.5
12.5 0 -87.5
62.5 0 -87.5
37.5 35.3553 -62.5
37.5 0 -37.5
87.5 0 -37.5
37.5 0 -87.5
87.5 0 -87.5
62.5 35.3553 -62.5
25 17.6777 -25
75 17.6777 -25
25 17.6777 -75
75 17.6777 -75
50 53.033 -50
6.25 8.83883 -6.25
56.25 8.83883 -6.25
6.25 8.83883 -56.25
56.25 8.83883 -56.25
31.25 44.1942 -31.25
31.25 8.83883 -6.25
81.25 8.83883 -6.25
31.25 8.83883 -56.25
81.25 8.83883 -56.25
56.25 44.1942 -31.25
6.25 8.83883 -31.25
56.25 8.83883 -31.25
6.25 8.83883 -81.25
56.25 8.83883 -81.25
31.25 44.1942 -56.25
31.25 8.83883 -31.25
81.25 8.83883 -31.25
31.25 8.83883 -81.25
81.25 8.83883 -81.25
56.25 44.1942 -56.25
18.75 26.5165 -18.75
68.75 26.5165 -18.75
18.75 26.5165 -68.75
68.75 26.5165 -68.75
43.75 61.8718 -43.75
6.25 0 0
56.25 0 0
6.25 0 -50
56.25 0 -50
31.25 35.3553 -25
31.25 0 0
81.25 0 0
31.25 0 -50
81.25 0 -50
56.25 35.3553 -25
6.25 0 -25
56.25 0 -25
6.25 0 -75
56.25 0 -75
31.25 35.3553 -50
31.25 0 -25
81.25 0 -25
31.25 0 -75
81.25 0 -75
56.25 35.3553 -50
18.75 17.6777 -12.5
68.75 17.6777 -12.5
18.75 17.6777 -62.5
68.75 17.6777 -62.5
43.75 53.033 -37.5
18.75 0 0
68.75 0 0
18.75 0 -50
68.75 0 -50
43.75 35.3553 -25
43.75 0 0
93.75 0 0
43.75 0 -50
93.75 0 -50
68.75 35.3553 -25
18.75 0 -25
68.75 0 -25
18.75 0 -75
68.75 0 -75
43.75 35.3553 -50
43.75 0 -25
93.75 0 -25
43.75 0 -75
93.75 0 -75
68.75 35.3553 -50
31.25 17.6777 -12.5
81.25 17.6777 -12.5
31.25 17.6777 -62.5
81.25 17.6777 -62.5
56.25 53.033 -37.5
6.25 0 -12.5
56.25 0 -12.5
6.25 0 -62.5
56.25 0 -62.5
31.25 35.3553 -37.5
31.25 0 -12.5
81.25 0 -12.5
31.25 0 -62.5
81.25 0 -62.5
56.25 35.3553 -37.5
6.25 0 -37.5
56.25 0 -37.5
6.25 0 -87.5
56.25 0 -87.5
31.25 35.3553 -62.5
31.25 0 -37.5
81.25 0 -37.5
31.25 0 -87.5
81.25 0 -87.5
56.25 35.3553 -62.5
18.75 17.6777 -25
68.75 17.6777 -25
18.75 17.6777 -75
68.75 17.6777 -75
43.75 53.033 -50
18.75 0 -12.5
68.75 0 -12.5
18.75 0 -62.5
68.75 0 -62.5
43.75 35.3553 -37.5
43.75 0 -12.5
93.75 0 -12.5
43.75 0 -62.5
93.75 0 -62.5
68.75 35.3553 -37.5
18.75 0 -37.5
68.75 0 -37.5
18.75 0 -87.5
68.75 0 -87.5
43.75 35.3553 -62.5
43.75 0 -37.5
93.75 0 -37.5
43.75 0 -87.5
93.75 0 -87.5
68.75 35.3553 -62.5
31.25 17.6777 -25
81.25 17.6777 -25
31.25 17.6777 -75
81.25 17.6777 -75
56.25 53.033 -50
12.5 8.83883 -6.25
62.5 8.83883 -6.25
12.5 8.83883 -56.25
62.5 8.83883 -56.25
37.5 44.1942 -31.25
37.5 8.83883 -6.25
87.5 8.83883 -6.25
37.5 8.83883 -56.25
87.5 8.83883 -56.25
62.5 44.1942 -31.25
12.5 8.83883 -31.25
62.5 8.83883 -31.25
12.5 8.83883 -81.25
62.5 8.83883 -81.25
37.5 44.1942 -56.25
37.5 8.83883 -31.25
87.5 8.83883 -31.25
37.5 8.83883 -81.25
87.5 8.83883 -81.25
62.5 44.1942 -56.25
25 26.5165 -18.75
75 26.5165 -18.75
25 26.5165 -68.75
75 26.5165 -68.75
50 61.8718 -43.75
0 0 -6.25
50 0 -6.25
0 0 -56.25
50 0 -56.25
25 35.3553 -31.25
25 0 -6.25
75 0 -6.25
25 0 -56.25
75 0 -56.25
50 35.3553 -31.25
0 0 -31.25
50 0 -31.25
0 0 -81.25
50 0 -81.25
25 35.3553 -56.25
25 0 -31.25
75 0 -31.25
25 0 -81.25
75 0 -81.25
50 35.3553 -56.25
12.5 17.6777 -18.75
62.5 17.6777 -18.75
12.5 17.6777 -68.75
62.5 17.6777 -68.75
37.5 53.033 -43.75
12.5 0 -6.25
62.5 0 -6.25
12.5 0 -56.25
62.5 0 -56.25
37.5 35.3553 -31.25
37.5 0 -6.25
87.5 0 -6.25
37.5 0 -56.25
87.5 0 -56.25
62.5 35.3553 -31.25
12.5 0 -31.25
62.5 0 -31.25
12.5 0 -81.25
62.5 0 -81.25
37.5 35.3553 -56.25
37.5 0 -31.25
87.5 0 -31.25
37.5 0 -81.25
87.5 0 -81.25
62.5 35.3553 -56.25
25 17.6777 -18.75
75 17.6777 -18.75
25 17.6777 -68.75
75 17.6777 -68.75
50 53.033 -43.75
0 0 -18.75
50 0 -18.75
0 0 -68.75
50 0 -68.75
25 35.3553 -43.75
25 0 -18.75
75 0 -18.75
25 0 -68.75
75 0 -68.75
50 35.3553 -43.75
0 0 -43.75
50 0 -43.75
0 0 -93.75
50 0 -93.75
25 35.3553 -68.75
25 0 -43.75
75 0 -43.75
25 0 -93.75
75 0 -93.75
50 35.3553 -68.75
12.5 17.6777 -31.25
62.5 17.6777 -31.25
12.5 17.6777 -81.25
62.5 17.6777 -81.25
37.5 53.033 -56.25
12.5 0 -18.75
62.5 0 -18.75
12.5 0 -68.75
62.5 0 -68.75
37.5 35.3553 -43.75
37.5 0 -18.75
87.5 0 -18.75
37.5 0 -68.75
87.5 0 -68.75
62.5 35.3553 -43.75
12.5 0 -43.75
62.5 0 -43.75
12.5 0 -93.75
62.5 0 -93.75
37.5 35.3553 -68.75
37.5 0 -43.75
87.5 0 -43.75
37.5 0 -93.75
87.5 0 -93.75
62.5 35.3553 -68.75
25 17.6777 -31.25
75 17.6777 -31.25
25 17.6777 -81.25
75 17.6777 -81.25
50 53.033 -56.25
6.25 8.83883 -12.5
56.25 8.83883 -12.5
6.25 8.83883 -62.5
56.25 8.83883 -62.5
31.25 44.1942 -37.5
31.25 8.83883 -12.5
81.25 8.83883 -12.5
31.25 8.83883 -62.5
81.25 8.83883 -62.5
56.25 44.1942 -37.5
6.25 8.83883 -37.5
56.25 8.83883 -37.5
6.25 8.83883 -87.5
56.25 8.83883 -87.5
31.25 44.1942 -62.5
31.25 8.83883 -37.5
81.25 8.83883 -37.5
31.25 8.83883 -87.5
81.25 8.83883 -87.5
56.25 44.1942 -62.5
18.75 26.5165 -25
68.75 26.5165 -25
18.75 26.5165 -75
68.75 26.5165 -75
43.75 61.8718 -50
6.25 0 -6.25
56.25 0 -6.25
6.25 0 -56.25
56.25 0 -56.25
31.25 35.3553 -31.25
31.25 0 -6.25
81.25 0 -6.25
31.25 0 -56.25
81.25 0 -56.25
56.25 35.3553 -31.25
6.25 0 -31.25
56.25 0 -31.25
6.25 0 -81.25
56.25 0 -81.25
31.25 35.3553 -56.25
31.25 0 -31.25
81.25 0 -31.25
31.25 0 -81.25
81.25 0 -81.25
56.25 35.3553 -56.25
18.75 17.6777 -18.75
68.75 17.6777 -18.75
18.75 17.6777 -68.75
68.75 17.6777 -68.75
43.75 53.033 -43.75
18.75 0 -6.25
68.75 0 -6.25
18.75 0 -56.25
68.75 0 -56.25
43.75 35.3553 -31.25
43.75 0 -6.25
93.75 0 -6.25
43.75 0 -56.25
93.75 0 -56.25
68.75 35.3553 -31.25
18.75 0 -31.25
68.75 0 -31.25
18.75 0 -81.25
68.75 0 -81.25
43.75 35.3553 -56.25
43.75 0 -31.25
93.75 0 -31.25
43.75 0 -81.25
93.75 0 -81.25
68.75 35.3553 -56.25
31.25 17.6777 -18.75
81.25 17.6777 -18.75
31.25 17.6777 -68.75
81.25 17.6777 -68.75
56.25 53.033 -43.75
6.25 0 -18.75
56.25 0 -18.75
6.25 0 -68.75
56.25 0 -68.75
31.25 35.3553 -43.75
31.25 0 -18.75
81.25 0 -18.75
31.25 0 -68.75
81.25 0 -68.75
56.25 35.3553 -43.75
6.25 0 -43.75
56.25 0 -43.75
6.25 0 -93.75
56.25 0 -93.75
31.25 35.3553 -68.75
31.25 0 -43.75
81.25 0 -43.75
31.25 0 -93.75
81.25 0 -93.75
56.25 35.3553 -68.75
18.75 17.6777 -31.25
68.75 17.6777 -31.25
18.75 17.6777 -81.25
68.75 17.6777 -81.25
43.75 53.033 -56.25
18.75 0 -18.75
68.75 0 -18.75
18.75 0 -68.75
68.75 0 -68.75
43.75 35.3553 -43.75
43.75 0 -18.75
93.75 0 -18.75
43.75 0 -68.75
93.75 0 -68.75
68.75 35.3553 -43.75
18.75 0 -43.75
68.75 0 -43.75
18.75 0 -93.75
68.75 0 -93.75
43.75 35.3553 -68.75
43.75 0 -43.75
93.75 0 -43.75
43.75 0 -93.75
93.75 0 -93.75
68.75 35.3553 -68.75
31.25 17.6777 -31.25
81.25 17.6777 -31.25
31.25 17.6777 -81.25
81.25 17.6777 -81.25
56.25 53.033 -56.25
12.5 8.83883 -12.5
62.5 8.83883 -12.5
12.5 8.83883 -62.5
62.5 8.83883 -62.5
37.5 44.1942 -37.5
37.5 8.83883 -12.5
87.5 8.83883 -12.5
37.5 8.83883 -62.5
87.5 8.83883 -62.5
62.5 44.1942 -37.5
12.5 8.83883 -37.5
62.5 8.83883 -37.5
12.5 8.83883 -87.5
62.5 8.83883 -87.5
37.5 44.1942 -62.5
37.5 8.83883 -37.5
87.5 8.83883 -37.5
37.5 8.83883 -87.5
87.5 8.83883 -87.5
62.5 44.1942 -62.5
25 26.5165 -25
75 26.5165 -25
25 26.5165 -75
75 26.5165 -75
50 61.8718 -50
3.125 4.41942 -3.125
53.125 4.41942 -3.125
3.125 4.41942 -53.125
53.125 4.41942 -53.125
28.125 39.7748 -28.125
28.125 4.41942 -3.125
78.125 4.41942 -3.125
28.125 4.41942 -53.125
78.125 4.41942 -53.125
53.125 39.7748 -28.125
3.125 4.41942 -28.125
53.125 4.41942 -28.125
3.125 4.41942 -78.125
53.125 4.41942 -78.125
28.125 39.7748 -53.125
28.125 4.41942 -28.125
78.125 4.41942 -28.125
28.125 4.41942 -78.125
78.125 4.41942 -78.125
53.125 39.7748 -53.125
15.625 22.0971 -15.625
65.625 22.0971 -15.625
15.625 22.0971 -65.625
65.625 22.0971 -65.625
40.625 57.4524 -40.625
15.625 4.41942 -3.125
65.625 4.41942 -3.125
15.625 4.41942 -53.125
65.625 4.41942 -53.125
40.625 39.7748 -28.125
40.625 4.41942 -3.125
90.625 4.41942 -3.125
40.625 4.41942 -53.125
90.625 4.41942 -53.125
65.625 39.7748 -28.125
15.625 4.41942 -28.125
65.625 4.41942 -28.125
15.625 4.41942 -78.125
65.625 4.41942 -78.125
40.625 39.7748 -53.125
40.625 4.41942 -28.125
90.625 4.41942 -28.125
40.625 4.41942 -78.125
90.625 4.41942 -78.125
65.625 39.7748 -53.125
28.125 22.0971 -15.625
78.125 22.0971 -15.625
28.125 22.0971 -65.625
78.125 22.0971 -65.625
53.125 57.4524 -40.625
3.125 4.41942 -15.625
53.125 4.41942 -15.625
3.125 4.41942 -65.625
53.125 4.41942 -65.625
28.125 39.7748 -40.625
28.125 4.41942 -15.625
78.125 4.41942 -15.625
28.125 4.41942 -65.625
78.125 4.41942 -65.625
53.125 39.7748 -40.625
3.125 4.41942 -40.625
53.125 4.41942 -40.625
3.125 4.41942 -90.625
53.125 4.41942 -90.625
28.125 39.7748 -65.625
28.125 4.41942 -40.625
78.125 4.41942 -40.625
28.125 4.41942 -90.625
78.125 4.41942 -90.625
53.125 39.7748 -65.625
15.625 22.0971 -28.125
65.625 22.0971 -28.125
15.625 22.0971 -78.125
65.625 22.0971 -78.125
40.625 57.4524 -53.125
15.625 4.41942 -15.625
65.625 4.41942 -15.625
15.625 4.41942 -65.625
65.625 4.41942 -65.625
40.625 39.7748 -40.625
40.625 4.41942 -15.625
90.625 4.41942 -15.625
40.625 4.41942 -65.625
90.625 4.41942 -65.625
65.625 39.7748 -40.625
15.625 4.41942 -40.625
65.625 4.41942 -40.625
15.625 4.41942 -90.625
65.625 4.41942 -90.625
40.625 39.7748 -65.625
40.625 4.41942 -40.625
90.625 4.41942 -40.625
40.625 4.41942 -90.625
90.625 4.41942 -90.625
65.625 39.7748 -65.625
28.125 22.0971 -28.125
78.125 22.0971 -28.125
28.125 22.0971 -78.125
78.125 22.0971 -78.125
53.125 57.4524 -53.125
9.375 13.2583 -9.375
59.375 13.2583 -9.375
9.375 13.2583 -59.375
59.375 13.2583 -59.375
34.375 48.6136 -34.375
34.375 13.2583 -9.375
84.375 13.2583 -9.375
34.375 13.2583 -59.375
84.375 13.2583 -59.375
59.375 48.6136 -34.375
9.375 13.2583 -34.375
59.375 13.2583 -34.375
9.375 13.2583 -84.375
59.375 13.2583 -84.375
34.375 48.6136 -59.375
34.375 13.2583 -34.375
84.375 13.2583 -34.375
34.375 13.2583 -84.375
84.375 13.2583 -84.375
59.375 48.6136 -59.375
21.875 30.9359 -21.875
71.875 30.9359 -21.875
21.875 30.9359 -71.875
71.875 30.9359 -71.875
46.875 66.2913 -46.875
0 0 6.25
50 0 6.25
25 35.3553 -18.75
25 0 6.25
75 0 6.25
50 35.3553 -18.75
12.5 17.6777 -6.25
62.5 17.6777 -6.25
12.5 17.6777 -56.25
62.5 17.6777 -56.25
37.5 53.033 -31.25
12.5 0 6.25
62.5 0 6.25
37.5 35.3553 -18.75
37.5 0 6.25
87.5 0 6.25
62.5 35.3553 -18.75
25 17.6777 -6.25
75 17.6777 -6.25
25 17.6777 -56.25
75 17.6777 -56.25
50 53.033 -31.25
6.25 8.83883 0
56.25 8.83883 0
6.25 8.83883 -50
56.25 8.83883 -50
31.25 44.1942 -25
31.25 8.83883 0
81.25 8.83883 0
31.25 8.83883 -50
81.25 8.83883 -50
56.25 44.1942 -25
6.25 8.83883 -25
56.25 8.83883 -25
6.25 8.83883 -75
56.25 8.83883 -75
31.25 44.1942 -50
31.25 8.83883 -25
81.25 8.83883 -25
31.25 8.83883 -75
81.25 8.83883 -75
56.25 44.1942 -50
18.75 26.5165 -12.5
68.75 26.5165 -12.5
18.75 26.5165 -62.5
68.75 26.5165 -62.5
43.75 61.8718 -37.5
6.25 0 6.25
56.25 0 6.25
31.25 35.3553 -18.75
31.25 0 6.25
81.25 0 6.25
56.25 35.3553 -18.75
18.75 17.6777 -6.25
68.75 17.6777 -6.25
18.75 17.6777 -56.25
68.75 17.6777 -56.25
43.75 53.033 -31.25
18.75 0 6.25
68.75 0 6.25
43.75 35.3553 -18.75
43.75 0 6.25
93.75 0 6.25
68.75 35.3553 -18.75
31.25 17.6777 -6.25
81.25 17.6777 -6.25
31.25 17.6777 -56.25
81.25 17.6777 -56.25
56.25 53.033 -31.25
12.5 8.83883 0
62.5 8.83883 0
12.5 8.83883 -50
62.5 8.83883 -50
37.5 44.1942 -25
37.5 8.83883 0
87.5 8.83883 0
37.5 8.83883 -50
87.5 8.83883 -50
62.5 44.1942 -25
12.5 8.83883 -25
62.5 8.83883 -25
12.5 8.83883 -75
62.5 8.83883 -75
37.5 44.1942 -50
37.5 8.83883 -25
87.5 8.83883 -25
37.5 8.83883 -75
87.5 8.83883 -75
62.5 44.1942 -50
25 26.5165 -12.5
75 26.5165 -12.5
25 26.5165 -62.5
75 26.5165 -62.5
50 61.8718 -37.5
3.125 4.41942 3.125
53.125 4.41942 3.125
3.125 4.41942 -46.875
53.125 4.41942 -46.875
28.125 39.7748 -21.875
28.125 4.41942 3.125
78.125 4.41942 3.125
28.125 4.41942 -46.875
78.125 4.41942 -46.875
53.125 39.7748 -21.875
3.125 4.41942 -21.875
53.125 4.41942 -21.875
3.125 4.41942 -71.875
53.125 4.41942 -71.875
28.125 39.7748 -46.875
28.125 4.41942 -21.875
78.125 4.41942 -21.875
28.125 4.41942 -71.875
78.125 4.41942 -71.875
53.125 39.7748 -46.875
15.625 22.0971 -9.375
65.625 22.0971 -9.375
15.625 22.0971 -59.375
65.625 22.0971 -59.375
40.625 57.4524 -34.375
15.625 4.41942 3.125
65.625 4.41942 3.125
15.625 4.41942 -46.875
65.625 4.41942 -46.875
40.625 39.7748 -21.875
40.625 4.41942 3.125
90.625 4.41942 3.125
40.625 4.41942 -46.875
90.625 4.41942 -46.875
65.625 39.7748 -21.875
15.625 4.41942 -21.875
65.625 4.41942 -21.875
15.625 4.41942 -71.875
65.625 4.41942 -71.875
40.625 39.7748 -46.875
40.625 4.41942 -21.875
90.625 4.41942 -21.875
40.625 4.41942 -71.875
90.625 4.41942 -71.875
65.625 39.7748 -46.875
28.125 22.0971 -9.375
78.125 22.0971 -9.375
28.125 22.0971 -59.375
78.125 22.0971 -59.375
53.125 57.4524 -34.375
3.125 4.41942 -9.375
53.125 4.41942 -9.375
3.125 4.41942 -59.375
53.125 4.41942 -59.375
28.125 39.7748 -34.375
28.125 4.41942 -9.375
78.125 4.41942 -9.375
28.125 4.41942 -59.375
78.125 4.41942 -59.375
53.125 39.7748 -34.375
3.125 4.41942 -34.375
53.125 4.41942 -34.375
3.125 4.41942 -84.375
53.125 4.41942 -84.375
28.125 39.7748 -59.375
28.125 4.41942 -34.375
78.125 4.41942 -34.375
28.125 4.41942 -84.375
78.125 4.41942 -84.375
53.125 39.7748 -59.375
15.625 22.0971 -21.875
65.625 22.0971 -21.875
15.625 22.0971 -71.875
65.625 22.0971 -71.875
40.625 57.4524 -46.875
15.625 4.41942 -9.375
65.625 4.41942 -9.375
15.625 4.41942 -59.375
65.625 4.41942 -59.375
40.625 39.7748 -34.375
40.625 4.41942 -9.375
90.625 4.41942 -9.375
40.625 4.41942 -59.375
90.625 4.41942 -59.375
65.625 39.7748 -34.375
15.625 4.41942 -34.375
65.625 4.41942 -34.375
15.625 4.41942 -84.375
65.625 4.41942 -84.375
40.625 39.7748 -59.375
40.625 4.41942 -34.375
90.625 4.41942 -34.375
40.625 4.41942 -84.375
90.625 4.41942 -84.375
65.625 39.7748 -59.375
28.125 22.0971 -21.875
78.125 22.0971 -21.875
28.125 22.0971 -71.875
78.125 22.0971 -71.875
53.125 57.4524 -46.875
9.375 13.2583 -3.125
59.375 13.2583 -3.125
9.375 13.2583 -53.125
59.375 13.2583 -53.125
34.375 48.6136 -28.125
34.375 13.2583 -3.125
84.375 13.2583 -3.125
34.375 13.2583 -53.125
84.375 13.2583 -53.125
59.375 48.6136 -28.125
9.375 13.2583 -28.125
59.375 13.2583 -28.125
9.375 13.2583 -78.125
59.375 13.2583 -78.125
34.375 48.6136 -53.125
34.375 13.2583 -28.125
84.375 13.2583 -28.125
34.375 13.2583 -78.125
84.375 13.2583 -78.125
59.375 48.6136 -53.125
21.875 30.9359 -15.625
71.875 30.9359 -15.625
21.875 30.9359 -65.625
71.875 30.9359 -65.625
46.875 66.2913 -40.625
100 0 0
100 0 -50
75 35.3553 -25
100 0 -25
100 0 -75
75 35.3553 -50
37.5 17.6777 -12.5
87.5 17.6777 -12.5
37.5 17.6777 -62.5
87.5 17.6777 -62.5
62.5 53.033 -37.5
100 0 -12.5
100 0 -62.5
75 35.3553 -37.5
100 0 -37.5
100 0 -87.5
75 35.3553 -62.5
37.5 17.6777 -25
87.5 17.6777 -25
37.5 17.6777 -75
87.5 17.6777 -75
62.5 53.033 -50
18.75 8.83883 -6.25
68.75 8.83883 -6.25
18.75 8.83883 -56.25
68.75 8.83883 -56.25
43.75 44.1942 -31.25
43.75 8.83883 -6.25
93.75 8.83883 -6.25
43.75 8.83883 -56.25
93.75 8.83883 -56.25
68.75 44.1942 -31.25
18.75 8.83883 -31.25
68.75 8.83883 -31.25
18.75 8.83883 -81.25
68.75 8.83883 -81.25
43.75 44.1942 -56.25
43.75 8.83883 -31.25
93.75 8.83883 -31.25
43.75 8.83883 -81.25
93.75 8.83883 -81.25
68.75 44.1942 -56.25
31.25 26.5165 -18.75
81.25 26.5165 -18.75
31.25 26.5165 -68.75
81.25 26.5165 -68.75
56.25 61.8718 -43.75
100 0 -6.25
100 0 -56.25
75 35.3553 -31.25
100 0 -31.25
100 0 -81.25
75 35.3553 -56.25
37.5 17.6777 -18.75
87.5 17.6777 -18.75
37.5 17.6777 -68.75
87.5 17.6777 -68.75
62.5 53.033 -43.75
100 0 -18.75
100 0 -68.75
75 35.3553 -43.75
100 0 -43.75
100 0 -93.75
75 35.3553 -68.75
37.5 17.6777 -31.25
87.5 17.6777 -31.25
37.5 17.6777 -81.25
87.5 17.6777 -81.25
62.5 53.033 -56.25
18.75 8.83883 -12.5
68.75 8.83883 -12.5
18.75 8.83883 -62.5
68.75 8.83883 -62.5
43.75 44.1942 -37.5
43.75 8.83883 -12.5
93.75 8.83883 -12.5
43.75 8.83883 -62.5
93.75 8.83883 -62.5
68.75 44.1942 -37.5
18.75 8.83883 -37.5
68.75 8.83883 -37.5
18.75 8.83883 -87.5
68.75 8.83883 -87.5
43.75 44.1942 -62.5
43.75 8.83883 -37.5
93.75 8.83883 -37.5
43.75 8.83883 -87.5
93.75 8.83883 -87.5
68.75 44.1942 -62.5
31.25 26.5165 -25
81.25 26.5165 -25
31.25 26.5165 -75
81.25 26.5165 -75
56.25 61.8718 -50
9.375 4.41942 -3.125
59.375 4.41942 -3.125
9.375 4.41942 -53.125
59.375 4.41942 -53.125
34.375 39.7748 -28.125
34.375 4.41942 -3.125
84.375 4.41942 -3.125
34.375 4.41942 -53.125
84.375 4.41942 -53.125
59.375 39.7748 -28.125
9.375 4.41942 -28.125
59.375 4.41942 -28.125
9.375 4.41942 -78.125
59.375 4.41942 -78.125
34.375 39.7748 -53.125
34.375 4.41942 -28.125
84.375 4.41942 -28.125
34.375 4.41942 -78.125
84.375 4.41942 -78.125
59.375 39.7748 -53.125
21.875 22.0971 -15.625
71.875 22.0971 -15.625
21.875 22.0971 -65.625
71.875 22.0971 -65.625
46.875 57.4524 -40.625
21.875 4.41942 -3.125
71.875 4.41942 -3.125
21.875 4.41942 -53.125
71.875 4.41942 -53.125
46.875 39.7748 -28.125
46.875 4.41942 -3.125
96.875 4.41942 -3.125
46.875 4.41942 -53.125
96.875 4.41942 -53.125
71.875 39.7748 -28.125
21.875 4.41942 -28.125
71.875 4.41942 -28.125
21.875 4.41942 -78.125
71.875 4.41942 -78.125
46.875 39.7748 -53.125
46.875 4.41942 -28.125
96.875 4.41942 -28.125
46.875 4.41942 -78.125
96.875 4.41942 -78.125
71.875 39.7748 -53.125
34.375 22.0971 -15.625
84.375 22.0971 -15.625
34.375 22.0971 -65.625
84.375 22.0971 -65.625
59.375 57.4524 -40.625
9.375 4.41942 -15.625
59.375 4.41942 -15.625
9.375 4.41942 -65.625
59.375 4.41942 -65.625
34.375 39.7748 -40.625
34.375 4.41942 -15.625
84.375 4.41942 -15.625
34.375 4.41942 -65.625
84.375 4.41942 -65.625
59.375 39.7748 -40.625
9.375 4.41942 -40.625
59.375 4.41942 -40.625
9.375 4.41942 -90.625
59.375 4.41942 -90.625
34.375 39.7748 -65.625
34.375 4.41942 -40.625
84.375 4.41942 -40.625
34.375 4.41942 -90.625
84.375 4.41942 -90.625
59.375 39.7748 -65.625
21.875 22.0971 -28.125
71.875 22.0971 -28.125
21.875 22.0971 -78.125
71.875 22.0971 -78.125
46.875 57.4524 -53.125
21.875 4.41942 -15.625
71.875 4.41942 -15.625
21.875 4.41942 -65.625
71.875 4.41942 -65.625
46.875 39.7748 -40.625
46.875 4.41942 -15.625
96.875 4.41942 -15.625
46.875 4.41942 -65.625
96.875 4.41942 -65.625
71.875 39.7748 -40.625
21.875 4.41942 -40.625
71.875 4.41942 -40.625
21.875 4.41942 -90.625
71.875 4.41942 -90.625
46.875 39.7748 -65.625
46.875 4.41942 -40.625
96.875 4.41942 -40.625
46.875 4.41942 -90.625
96.875 4.41942 -90.625
71.875 39.7748 -65.625
34.375 22.0971 -28.125
84.375 22.0971 -28.125
34.375 22.0971 -78.125
84.375 22.0971 -78.125
59.375 57.4524 -53.125
15.625 13.2583 -9.375
65.625 13.2583 -9.375
15.625 13.2583 -59.375
65.625 13.2583 -59.375
40.625 48.6136 -34.375
40.625 13.2583 -9.375
90.625 13.2583 -9.375
40.625 13.2583 -59.375
90.625 13.2583 -59.375
65.625 48.6136 -34.375
15.625 13.2583 -34.375
65.625 13.2583 -34.375
15.625 13.2583 -84.375
65.625 13.2583 -84.375
40.625 48.6136 -59.375
40.625 13.2583 -34.375
90.625 13.2583 -34.375
40.625 13.2583 -84.375
90.625 13.2583 -84.375
65.625 48.6136 -59.375
28.125 30.9359 -21.875
78.125 30.9359 -21.875
28.125 30.9359 -71.875
78.125 30.9359 -71.875
53.125 66.2913 -46.875
100 0 6.25
75 35.3553 -18.75
37.5 17.6777 -6.25
87.5 17.6777 -6.25
37.5 17.6777 -56.25
87.5 17.6777 -56.25
62.5 53.033 -31.25
18.75 8.83883 0
68.75 8.83883 0
18.75 8.83883 -50
68.75 8.83883 -50
43.75 44.1942 -25
43.75 8.83883 0
93.75 8.83883 0
43.75 8.83883 -50
93.75 8.83883 -50
68.75 44.1942 -25
18.75 8.83883 -25
68.75 8.83883 -25
18.75 8.83883 -75
68.75 8.83883 -75
43.75 44.1942 -50
43.75 8.83883 -25
93.75 8.83883 -25
43.75 8.83883 -75
93.75 8.83883 -75
68.75 44.1942 -50
31.25 26.5165 -12.5
81.25 26.5165 -12.5
31.25 26.5165 -62.5
81.25 26.5165 -62.5
56.25 61.8718 -37.5
9.375 4.41942 3.125
59.375 4.41942 3.125
9.375 4.41942 -46.875
59.375 4.41942 -46.875
34.375 39.7748 -21.875
34.375 4.41942 3.125
84.375 4.41942 3.125
34.375 4.41942 -46.875
84.375 4.41942 -46.875
59.375 39.7748 -21.875
9.375 4.41942 -21.875
59.375 4.41942 -21.875
9.375 4.41942 -71.875
59.375 4.41942 -71.875
34.375 39.7748 -46.875
34.375 4.41942 -21.875
84.375 4.41942 -21.875
34.375 4.41942 -71.875
84.375 4.41942 -71.875
59.375 39.7748 -46.875
21.875 22.0971 -9.375
71.875 22.0971 -9.375
21.875 22.0971 -59.375
71.875 22.0971 -59.375
46.875 57.4524 -34.375
21.875 4.41942 3.125
71.875 4.41942 3.125
21.875 4.41942 -46.875
71.875 4.41942 -46.875
46.875 39.7748 -21.875
46.875 4.41942 3.125
96.875 4.41942 3.125
46.875 4.41942 -46.875
96.875 4.41942 -46.875
71.875 39.7748 -21.875
21.875 4.41942 -21.875
71.875 4.41942 -21.875
21.875 4.41942 -71.875
71.875 4.41942 -71.875
46.875 39.7748 -46.875
46.875 4.41942 -21.875
96.875 4.41942 -21.875
46.875 4.41942 -71.875
96.875 4.41942 -71.875
71.875 39.7748 -46.875
34.375 22.0971 -9.375
84.375 22.0971 -9.375
34.375 22.0971 -59.375
84.375 22.0971 -59.375
59.375 57.4524 -34.375
9.375 4.41942 -9.375
59.375 4.41942 -9.375
9.375 4.41942 -59.375
59.375 4.41942 -59.375
34.375 39.7748 -34.375
34.375 4.41942 -9.375
84.375 4.41942 -9.375
34.375 4.41942 -59.375
84.375 4.41942 -59.375
59.375 39.7748 -34.375
9.375 4.41942 -34.375
59.375 4.41942 -34.375
9.375 4.41942 -84.375
59.375 4.41942 -84.375
34.375 39.7748 -59.375
34.375 4.41942 -34.375
84.375 4.41942 -34.375
34.375 4.41942 -84.375
84.375 4.41942 -84.375
59.375 39.7748 -59.375
21.875 22.0971 -21.875
71.875 22.0971 -21.875
21.875 22.0971 -71.875
71.875 22.0971 -71.875
46.875 57.4524 -46.875
21.875 4.41942 -9.375
71.875 4.41942 -9.375
21.875 4.41942 -59.375
71.875 4.41942 -59.375
46.875 39.7748 -34.375
46.875 4.41942 -9.375
96.875 4.41942 -9.375
46.875 4.41942 -59.375
96.875 4.41942 -59.375
71.875 39.7748 -34.375
21.875 4.41942 -34.375
71.875 4.41942 -34.375
21.875 4.41942 -84.375
71.875 4.41942 -84.375
46.875 39.7748 -59.375
46.875 4.41942 -34.375
96.875 4.41942 -34.375
46.875 4.41942 -84.375
96.875 4.41942 -84.375
71.875 39.7748 -59.375
34.375 22.0971 -21.875
84.375 22.0971 -21.875
34.375 22.0971 -71.875
84.375 22.0971 -71.875
59.375 57.4524 -46.875
15.625 13.2583 -3.125
65.625 13.2583 -3.125
15.625 13.2583 -53.125
65.625 13.2583 -53.125
40.625 48.6136 -28.125
40.625 13.2583 -3.125
90.625 13.2583 -3.125
40.625 13.2583 -53.125
90.625 13.2583 -53.125
65.625 48.6136 -28.125
15.625 13.2583 -28.125
65.625 13.2583 -28.125
15.625 13.2583 -78.125
65.625 13.2583 -78.125
40.625 48.6136 -53.125
40.625 13.2583 -28.125
90.625 13.2583 -28.125
40.625 13.2583 -78.125
90.625 13.2583 -78.125
65.625 48.6136 -53.125
28.125 30.9359 -15.625
78.125 30.9359 -15.625
28.125 30.9359 -65.625
78.125 30.9359 -65.625
53.125 66.2913 -40.625
50 70.7107 -43.75
