ply
format ascii 1.0
comment PCL generated
obj_info is_cyberware_data 0
obj_info is_mesh 0
obj_info is_warped 0
obj_info is_interlaced 0
obj_info num_cols 130
obj_info num_rows 1
obj_info echo_rgb_offset_x 0
obj_info echo_rgb_offset_y 0
obj_info echo_rgb_offset_z 0
obj_info echo_rgb_frontfocus 0.0
obj_info echo_rgb_backfocus 0.0
obj_info echo_rgb_pixelsize 0.0
obj_info echo_rgb_centerpixel 0
obj_info echo_frames 1
obj_info echo_lgincr 0.0
element vertex 130
property float x
property float y
property float z
end_header
0 0 0
0 0 -50
43.3013 0 -25
14.4338 40.8248 -25
0 0 -25
0 0 -75
43.3013 0 -50
14.4338 40.8248 -50
21.6506 0 -12.5
21.6506 0 -62.5
64.9519 0 -37.5
36.0844 40.8248 -37.5
7.21688 20.4124 -12.5
7.21688 20.4124 -62.5
50.5181 20.4124 -37.5
21.6506 61.2372 -37.5
0 0 -12.5
0 0 -62.5
43.3013 0 -37.5
14.4338 40.8248 -37.5
0 0 -37.5
0 0 -87.5
43.3013 0 -62.5
14.4338 40.8248 -62.5
21.6506 0 -25
21.6506 0 -75
64.9519 0 -50
36.0844 40.8248 -50
7.21688 20.4124 -25
7.21688 20.4124 -75
50.5181 20.4124 -50
21.6506 61.2372 -50
10.8253 0 -6.25
10.8253 0 -56.25
54.1266 0 -31.25
25.2591 40.8248 -31.25
10.8253 0 -31.25
10.8253 0 -81.25
54.1266 0 -56.25
25.2591 40.8248 -56.25
32.476 0 -18.75
32.476 0 -68.75
75.7772 0 -43.75
46.9097 40.8248 -43.75
18.0422 20.4124 -18.75
18.0422 20.4124 -68.75
61.3435 20.4124 -43.75
32.476 61.2372 -43.75
3.60844 10.2062 -6.25
3.60844 10.2062 -56.25
46.9097 10.2062 -31.25
18.0422 51.031 -31.25
3.60844 10.2062 -31.25
3.60844 10.2062 -81.25
46.9097 10.2062 -56.25
18.0422 51.031 -56.25
25.2591 10.2062 -18.75
25.2591 10.2062 -68.75
68.5603 10.2062 -43.75
39.6928 51.031 -43.75
10.8253 30.6186 -18.75
10.8253 30.6186 -68.75
54.1266 30.6186 -43.75
25.2591 71.4435 -43.75
0 0 12.5
43.3013 0 -12.5
14.4338 40.8248 -12.5
21.6506 0 0
21.6506 0 -50
64.9519 0 -25
36.0844 40.8248 -25
7.21688 20.4124 0
7.21688 20.4124 -50
50.5181 20.4124 -25
21.6506 61.2372 -25
10.8253 0 6.25
10.8253 0 -43.75
54.1266 0 -18.75
25.2591 40.8248 -18.75
10.8253 0 -18.75
10.8253 0 -68.75
54.1266 0 -43.75
25.2591 40.8248 -43.75
32.476 0 -6.25
32.476 0 -56.25
75.7772 0 -31.25
46.9097 40.8248 -31.25
18.0422 20.4124 -6.25
18.0422 20.4124 -56.25
61.3435 20.4124 -31.25
32.476 61.2372 -31.25
3.60844 10.2062 6.25
3.60844 10.2062 -43.75
46.9097 10.2062 -18.75
18.0422 51.031 -18.75
3.60844 10.2062 -18.75
3.60844 10.2062 -68.75
46.9097 10.2062 -43.75
18.0422 51.031 -43.75
25.2591 10.2062 -6.25
25.2591 10.2062 -56.25
68.5603 10.2062 -31.25
39.6928 51.031 -31.25
10.8253 30.6186 -6.25
10.8253 30.6186 -56.25
54.1266 30.6186 -31.25
25.2591 71.4435 -31.25
86.6025 0 -37.5
57.735 40.8248 -37.5
28.8675 20.4124 -12.5
28.8675 20.4124 -62.5
72.1688 20.4124 -37.5
43.3013 61.2372 -37.5
14.4338 10.2062 0
14.4338 10.2062 -50
57.735 10.2062 -25
28.8675 51.031 -25
14.4338 10.2062 -25
14.4338 10.2062 -75
57.735 10.2062 -50
28.8675 51.031 -50
36.0844 10.2062 -12.5
36.0844 10.2062 -62.5
79.3857 10.2062 -37.5
50.5182 51.031 -37.5
21.6506 30.6186 -12.5
21.6506 30.6186 -62.5
64.9519 30.6186 -37.5
36.0844 71.4435 -37.5
28.8675 81.6497 -37.5
