ply
format ascii 1.0
comment PCL generated
obj_info is_cyberware_data 0
obj_info is_mesh 0
obj_info is_warped 0
obj_info is_interlaced 0
obj_info num_cols 2050
obj_info num_rows 1
obj_info echo_rgb_offset_x 0
obj_info echo_rgb_offset_y 0
obj_info echo_rgb_offset_z 0
obj_info echo_rgb_frontfocus 0.0
obj_info echo_rgb_backfocus 0.0
obj_info echo_rgb_pixelsize 0.0
obj_info echo_rgb_centerpixel 0
obj_info echo_frames 1
obj_info echo_lgincr 0.0
element vertex 2050
property float x
property float y
property float z
end_header
0 0 0
0 0 -50
43.3013 0 -25
14.4338 40.8248 -25
0 0 -25
0 0 -75
43.3013 0 -50
14.4338 40.8248 -50
21.6506 0 -12.5
21.6506 0 -62.5
64.9519 0 -37.5
36.0844 40.8248 -37.5
7.21688 20.4124 -12.5
7.21688 20.4124 -62.5
50.5181 20.4124 -37.5
21.6506 61.2372 -37.5
0 0 -12.5
0 0 -62.5
43.3013 0 -37.5
14.4338 40.8248 -37.5
0 0 -37.5
0 0 -87.5
43.3013 0 -62.5
14.4338 40.8248 -62.5
21.6506 0 -25
21.6506 0 -75
64.9519 0 -50
36.0844 40.8248 -50
7.21688 20.4124 -25
7.21688 20.4124 -75
50.5181 20.4124 -50
21.6506 61.2372 -50
10.8253 0 -6.25
10.8253 0 -56.25
54.1266 0 -31.25
25.2591 40.8248 -31.25
10.8253 0 -31.25
10.8253 0 -81.25
54.1266 0 -56.25
25.2591 40.8248 -56.25
32.476 0 -18.75
32.476 0 -68.75
75.7772 0 -43.75
46.9097 40.8248 -43.75
18.0422 20.4124 -18.75
18.0422 20.4124 -68.75
61.3435 20.4124 -43.75
32.476 61.2372 -43.75
3.60844 10.2062 -6.25
3.60844 10.2062 -56.25
46.9097 10.2062 -31.25
18.0422 51.031 -31.25
3.60844 10.2062 -31.25
3.60844 10.2062 -81.25
46.9097 10.2062 -56.25
18.0422 51.031 -56.25
25.2591 10.2062 -18.75
25.2591 10.2062 -68.75
68.5603 10.2062 -43.75
39.6928 51.031 -43.75
10.8253 30.6186 -18.75
10.8253 30.6186 -68.75
54.1266 30.6186 -43.75
25.2591 71.4435 -43.75
0 0 -6.25
0 0 -56.25
43.3013 0 -31.25
14.4338 40.8248 -31.25
0 0 -31.25
0 0 -81.25
43.3013 0 -56.25
14.4338 40.8248 -56.25
21.6506 0 -18.75
21.6506 0 -68.75
64.9519 0 -43.75
36.0844 40.8248 -43.75
7.21688 20.4124 -18.75
7.21688 20.4124 -68.75
50.5181 20.4124 -43.75
21.6506 61.2372 -43.75
0 0 -18.75
0 0 -68.75
43.3013 0 -43.75
14.4338 40.8248 -43.75
0 0 -43.75
0 0 -93.75
43.3013 0 -68.75
14.4338 40.8248 -68.75
21.6506 0 -31.25
21.6506 0 -81.25
64.9519 0 -56.25
36.0844 40.8248 -56.25
7.21688 20.4124 -31.25
7.21688 20.4124 -81.25
50.5181 20.4124 -56.25
21.6506 61.2372 -56.25
10.8253 0 -12.5
10.8253 0 -62.5
54.1266 0 -37.5
25.2591 40.8248 -37.5
10.8253 0 -37.5
10.8253 0 -87.5
54.1266 0 -62.5
25.2591 40.8248 -62.5
32.476 0 -25
32.476 0 -75
75.7772 0 -50
46.9097 40.8248 -50
18.0422 20.4124 -25
18.0422 20.4124 -75
61.3435 20.4124 -50
32.476 61.2372 -50
3.60844 10.2062 -12.5
3.60844 10.2062 -62.5
46.9097 10.2062 -37.5
18.0422 51.031 -37.5
3.60844 10.2062 -37.5
3.60844 10.2062 -87.5
46.9097 10.2062 -62.5
18.0422 51.031 -62.5
25.2591 10.2062 -25
25.2591 10.2062 -75
68.5603 10.2062 -50
39.6928 51.031 -50
10.8253 30.6186 -25
10.8253 30.6186 -75
54.1266 30.6186 -50
25.2591 71.4435 -50
5.41266 0 -3.125
5.41266 0 -53.125
48.7139 0 -28.125
19.8464 40.8248 -28.125
5.41266 0 -28.125
5.41266 0 -78.125
48.7139 0 -53.125
19.8464 40.8248 -53.125
27.0633 0 -15.625
27.0633 0 -65.625
70.3646 0 -40.625
41.4971 40.8248 -40.625
12.6295 20.4124 -15.625
12.6295 20.4124 -65.625
55.9308 20.4124 -40.625
27.0633 61.2372 -40.625
5.41266 0 -15.625
5.41266 0 -65.625
48.7139 0 -40.625
19.8464 40.8248 -40.625
5.41266 0 -40.625
5.41266 0 -90.625
48.7139 0 -65.625
19.8464 40.8248 -65.625
27.0633 0 -28.125
27.0633 0 -78.125
70.3646 0 -53.125
41.4971 40.8248 -53.125
12.6295 20.4124 -28.125
12.6295 20.4124 -78.125
55.9308 20.4124 -53.125
27.0633 61.2372 -53.125
16.238 0 -9.375
16.238 0 -59.375
59.5392 0 -34.375
30.6717 40.8248 -34.375
16.238 0 -34.375
16.238 0 -84.375
59.5392 0 -59.375
30.6717 40.8248 -59.375
37.8886 0 -21.875
37.8886 0 -71.875
81.1899 0 -46.875
52.3224 40.8248 -46.875
23.4549 20.4124 -21.875
23.4549 20.4124 -71.875
66.7561 20.4124 -46.875
37.8886 61.2372 -46.875
9.0211 10.2062 -9.375
9.0211 10.2062 -59.375
52.3224 10.2062 -34.375
23.4549 51.031 -34.375
9.0211 10.2062 -34.375
9.0211 10.2062 -84.375
52.3224 10.2062 -59.375
23.4549 51.031 -59.375
30.6717 10.2062 -21.875
30.6717 10.2062 -71.875
73.973 10.2062 -46.875
45.1055 51.031 -46.875
16.238 30.6186 -21.875
16.238 30.6186 -71.875
59.5392 30.6186 -46.875
30.6717 71.4435 -46.875
1.80422 5.1031 -3.125
1.80422 5.1031 -53.125
45.1055 5.1031 -28.125
16.238 45.9279 -28.125
1.80422 5.1031 -28.125
1.80422 5.1031 -78.125
45.1055 5.1031 -53.125
16.238 45.9279 -53.125
23.4549 5.1031 -15.625
23.4549 5.1031 -65.625
66.7561 5.1031 -40.625
37.8886 45.9279 -40.625
9.0211 25.5155 -15.625
9.0211 25.5155 -65.625
52.3224 25.5155 -40.625
23.4549 66.3403 -40.625
1.80422 5.1031 -15.625
1.80422 5.1031 -65.625
45.1055 5.1031 -40.625
16.238 45.9279 -40.625
1.80422 5.1031 -40.625
1.80422 5.1031 -90.625
45.1055 5.1031 -65.625
16.238 45.9279 -65.625
23.4549 5.1031 -28.125
23.4549 5.1031 -78.125
66.7561 5.1031 -53.125
37.8886 45.9279 -53.125
9.0211 25.5155 -28.125
9.0211 25.5155 -78.125
52.3224 25.5155 -53.125
23.4549 66.3403 -53.125
12.6295 5.1031 -9.375
12.6295 5.1031 -59.375
55.9308 5.1031 -34.375
27.0633 45.9279 -34.375
12.6295 5.1031 -34.375
12.6295 5.1031 -84.375
55.9308 5.1031 -59.375
27.0633 45.9279 -59.375
34.2802 5.1031 -21.875
34.2802 5.1031 -71.875
77.5814 5.1031 -46.875
48.7139 45.9279 -46.875
19.8464 25.5155 -21.875
19.8464 25.5155 -71.875
63.1477 25.5155 -46.875
34.2802 66.3403 -46.875
5.41266 15.3093 -9.375
5.41266 15.3093 -59.375
48.7139 15.3093 -34.375
19.8464 56.1341 -34.375
5.41266 15.3093 -34.375
5.41266 15.3093 -84.375
48.7139 15.3093 -59.375
19.8464 56.1341 -59.375
27.0633 15.3093 -21.875
27.0633 15.3093 -71.875
70.3646 15.3093 -46.875
41.4971 56.1341 -46.875
12.6295 35.7217 -21.875
12.6295 35.7217 -71.875
55.9308 35.7217 -46.875
27.0633 76.5466 -46.875
0 0 -3.125
0 0 -53.125
43.3013 0 -28.125
14.4338 40.8248 -28.125
0 0 -28.125
0 0 -78.125
43.3013 0 -53.125
14.4338 40.8248 -53.125
21.6506 0 -15.625
21.6506 0 -65.625
64.9519 0 -40.625
36.0844 40.8248 -40.625
7.21688 20.4124 -15.625
7.21688 20.4124 -65.625
50.5181 20.4124 -40.625
21.6506 61.2372 -40.625
0 0 -15.625
0 0 -65.625
43.3013 0 -40.625
14.4338 40.8248 -40.625
0 0 -40.625
0 0 -90.625
43.3013 0 -65.625
14.4338 40.8248 -65.625
21.6506 0 -28.125
21.6506 0 -78.125
64.9519 0 -53.125
36.0844 40.8248 -53.125
7.21688 20.4124 -28.125
7.21688 20.4124 -78.125
50.5181 20.4124 -53.125
21.6506 61.2372 -53.125
10.8253 0 -9.375
10.8253 0 -59.375
54.1266 0 -34.375
25.2591 40.8248 -34.375
10.8253 0 -34.375
10.8253 0 -84.375
54.1266 0 -59.375
25.2591 40.8248 -59.375
32.476 0 -21.875
32.476 0 -71.875
75.7772 0 -46.875
46.9097 40.8248 -46.875
18.0422 20.4124 -21.875
18.0422 20.4124 -71.875
61.3435 20.4124 -46.875
32.476 61.2372 -46.875
3.60844 10.2062 -9.375
3.60844 10.2062 -59.375
46.9097 10.2062 -34.375
18.0422 51.031 -34.375
3.60844 10.2062 -34.375
3.60844 10.2062 -84.375
46.9097 10.2062 -59.375
18.0422 51.031 -59.375
25.2591 10.2062 -21.875
25.2591 10.2062 -71.875
68.5603 10.2062 -46.875
39.6928 51.031 -46.875
10.8253 30.6186 -21.875
10.8253 30.6186 -71.875
54.1266 30.6186 -46.875
25.2591 71.4435 -46.875
0 0 -9.375
0 0 -59.375
43.3013 0 -34.375
14.4338 40.8248 -34.375
0 0 -34.375
0 0 -84.375
43.3013 0 -59.375
14.4338 40.8248 -59.375
21.6506 0 -21.875
21.6506 0 -71.875
64.9519 0 -46.875
36.0844 40.8248 -46.875
7.21688 20.4124 -21.875
7.21688 20.4124 -71.875
50.5181 20.4124 -46.875
21.6506 61.2372 -46.875
0 0 -21.875
0 0 -71.875
43.3013 0 -46.875
14.4338 40.8248 -46.875
0 0 -46.875
0 0 -96.875
43.3013 0 -71.875
14.4338 40.8248 -71.875
21.6506 0 -34.375
21.6506 0 -84.375
64.9519 0 -59.375
36.0844 40.8248 -59.375
7.21688 20.4124 -34.375
7.21688 20.4124 -84.375
50.5181 20.4124 -59.375
21.6506 61.2372 -59.375
10.8253 0 -15.625
10.8253 0 -65.625
54.1266 0 -40.625
25.2591 40.8248 -40.625
10.8253 0 -40.625
10.8253 0 -90.625
54.1266 0 -65.625
25.2591 40.8248 -65.625
32.476 0 -28.125
32.476 0 -78.125
75.7772 0 -53.125
46.9097 40.8248 -53.125
18.0422 20.4124 -28.125
18.0422 20.4124 -78.125
61.3435 20.4124 -53.125
32.476 61.2372 -53.125
3.60844 10.2062 -15.625
3.60844 10.2062 -65.625
46.9097 10.2062 -40.625
18.0422 51.031 -40.625
3.60844 10.2062 -40.625
3.60844 10.2062 -90.625
46.9097 10.2062 -65.625
18.0422 51.031 -65.625
25.2591 10.2062 -28.125
25.2591 10.2062 -78.125
68.5603 10.2062 -53.125
39.6928 51.031 -53.125
10.8253 30.6186 -28.125
10.8253 30.6186 -78.125
54.1266 30.6186 -53.125
25.2591 71.4435 -53.125
5.41266 0 -6.25
5.41266 0 -56.25
48.7139 0 -31.25
19.8464 40.8248 -31.25
5.41266 0 -31.25
5.41266 0 -81.25
48.7139 0 -56.25
19.8464 40.8248 -56.25
27.0633 0 -18.75
27.0633 0 -68.75
70.3646 0 -43.75
41.4971 40.8248 -43.75
12.6295 20.4124 -18.75
12.6295 20.4124 -68.75
55.9308 20.4124 -43.75
27.0633 61.2372 -43.75
5.41266 0 -18.75
5.41266 0 -68.75
48.7139 0 -43.75
19.8464 40.8248 -43.75
5.41266 0 -43.75
5.41266 0 -93.75
48.7139 0 -68.75
19.8464 40.8248 -68.75
27.0633 0 -31.25
27.0633 0 -81.25
70.3646 0 -56.25
41.4971 40.8248 -56.25
12.6295 20.4124 -31.25
12.6295 20.4124 -81.25
55.9308 20.4124 -56.25
27.0633 61.2372 -56.25
16.238 0 -12.5
16.238 0 -62.5
59.5392 0 -37.5
30.6717 40.8248 -37.5
16.238 0 -37.5
16.238 0 -87.5
59.5392 0 -62.5
30.6717 40.8248 -62.5
37.8886 0 -25
37.8886 0 -75
81.1899 0 -50
52.3224 40.8248 -50
23.4549 20.4124 -25
23.4549 20.4124 -75
66.7561 20.4124 -50
37.8886 61.2372 -50
9.0211 10.2062 -12.5
9.0211 10.2062 -62.5
52.3224 10.2062 -37.5
23.4549 51.031 -37.5
9.0211 10.2062 -37.5
9.0211 10.2062 -87.5
52.3224 10.2062 -62.5
23.4549 51.031 -62.5
30.6717 10.2062 -25
30.6717 10.2062 -75
73.973 10.2062 -50
45.1055 51.031 -50
16.238 30.6186 -25
16.238 30.6186 -75
59.5392 30.6186 -50
30.6717 71.4435 -50
1.80422 5.1031 -6.25
1.80422 5.1031 -56.25
45.1055 5.1031 -31.25
16.238 45.9279 -31.25
1.80422 5.1031 -31.25
1.80422 5.1031 -81.25
45.1055 5.1031 -56.25
16.238 45.9279 -56.25
23.4549 5.1031 -18.75
23.4549 5.1031 -68.75
66.7561 5.1031 -43.75
37.8886 45.9279 -43.75
9.0211 25.5155 -18.75
9.0211 25.5155 -68.75
52.3224 25.5155 -43.75
23.4549 66.3403 -43.75
1.80422 5.1031 -18.75
1.80422 5.1031 -68.75
45.1055 5.1031 -43.75
16.238 45.9279 -43.75
1.80422 5.1031 -43.75
1.80422 5.1031 -93.75
45.1055 5.1031 -68.75
16.238 45.9279 -68.75
23.4549 5.1031 -31.25
23.4549 5.1031 -81.25
66.7561 5.1031 -56.25
37.8886 45.9279 -56.25
9.0211 25.5155 -31.25
9.0211 25.5155 -81.25
52.3224 25.5155 -56.25
23.4549 66.3403 -56.25
12.6295 5.1031 -12.5
12.6295 5.1031 -62.5
55.9308 5.1031 -37.5
27.0633 45.9279 -37.5
12.6295 5.1031 -37.5
12.6295 5.1031 -87.5
55.9308 5.1031 -62.5
27.0633 45.9279 -62.5
34.2802 5.1031 -25
34.2802 5.1031 -75
77.5814 5.1031 -50
48.7139 45.9279 -50
19.8464 25.5155 -25
19.8464 25.5155 -75
63.1477 25.5155 -50
34.2802 66.3403 -50
5.41266 15.3093 -12.5
5.41266 15.3093 -62.5
48.7139 15.3093 -37.5
19.8464 56.1341 -37.5
5.41266 15.3093 -37.5
5.41266 15.3093 -87.5
48.7139 15.3093 -62.5
19.8464 56.1341 -62.5
27.0633 15.3093 -25
27.0633 15.3093 -75
70.3646 15.3093 -50
41.4971 56.1341 -50
12.6295 35.7217 -25
12.6295 35.7217 -75
55.9308 35.7217 -50
27.0633 76.5466 -50
2.70633 0 -1.5625
2.70633 0 -51.5625
46.0076 0 -26.5625
17.1401 40.8248 -26.5625
2.70633 0 -26.5625
2.70633 0 -76.5625
46.0076 0 -51.5625
17.1401 40.8248 -51.5625
24.357 0 -14.0625
24.357 0 -64.0625
67.6582 0 -39.0625
38.7907 40.8248 -39.0625
9.92321 20.4124 -14.0625
9.92321 20.4124 -64.0625
53.2245 20.4124 -39.0625
24.357 61.2372 -39.0625
2.70633 0 -14.0625
2.70633 0 -64.0625
46.0076 0 -39.0625
17.1401 40.8248 -39.0625
2.70633 0 -39.0625
2.70633 0 -89.0625
46.0076 0 -64.0625
17.1401 40.8248 -64.0625
24.357 0 -26.5625
24.357 0 -76.5625
67.6582 0 -51.5625
38.7907 40.8248 -51.5625
9.92321 20.4124 -26.5625
9.92321 20.4124 -76.5625
53.2245 20.4124 -51.5625
24.357 61.2372 -51.5625
13.5316 0 -7.8125
13.5316 0 -57.8125
56.8329 0 -32.8125
27.9654 40.8248 -32.8125
13.5316 0 -32.8125
13.5316 0 -82.8125
56.8329 0 -57.8125
27.9654 40.8248 -57.8125
35.1823 0 -20.3125
35.1823 0 -70.3125
78.4836 0 -45.3125
49.616 40.8248 -45.3125
20.7485 20.4124 -20.3125
20.7485 20.4124 -70.3125
64.0498 20.4124 -45.3125
35.1823 61.2372 -45.3125
6.31477 10.2062 -7.8125
6.31477 10.2062 -57.8125
49.616 10.2062 -32.8125
20.7485 51.031 -32.8125
6.31477 10.2062 -32.8125
6.31477 10.2062 -82.8125
49.616 10.2062 -57.8125
20.7485 51.031 -57.8125
27.9654 10.2062 -20.3125
27.9654 10.2062 -70.3125
71.2667 10.2062 -45.3125
42.3992 51.031 -45.3125
13.5316 30.6186 -20.3125
13.5316 30.6186 -70.3125
56.8329 30.6186 -45.3125
27.9654 71.4435 -45.3125
2.70633 0 -7.8125
2.70633 0 -57.8125
46.0076 0 -32.8125
17.1401 40.8248 -32.8125
2.70633 0 -32.8125
2.70633 0 -82.8125
46.0076 0 -57.8125
17.1401 40.8248 -57.8125
24.357 0 -20.3125
24.357 0 -70.3125
67.6582 0 -45.3125
38.7907 40.8248 -45.3125
9.92321 20.4124 -20.3125
9.92321 20.4124 -70.3125
53.2245 20.4124 -45.3125
24.357 61.2372 -45.3125
2.70633 0 -20.3125
2.70633 0 -70.3125
46.0076 0 -45.3125
17.1401 40.8248 -45.3125
2.70633 0 -45.3125
2.70633 0 -95.3125
46.0076 0 -70.3125
17.1401 40.8248 -70.3125
24.357 0 -32.8125
24.357 0 -82.8125
67.6582 0 -57.8125
38.7907 40.8248 -57.8125
9.92321 20.4124 -32.8125
9.92321 20.4124 -82.8125
53.2245 20.4124 -57.8125
24.357 61.2372 -57.8125
13.5316 0 -14.0625
13.5316 0 -64.0625
56.8329 0 -39.0625
27.9654 40.8248 -39.0625
13.5316 0 -39.0625
13.5316 0 -89.0625
56.8329 0 -64.0625
27.9654 40.8248 -64.0625
35.1823 0 -26.5625
35.1823 0 -76.5625
78.4836 0 -51.5625
49.616 40.8248 -51.5625
20.7485 20.4124 -26.5625
20.7485 20.4124 -76.5625
64.0498 20.4124 -51.5625
35.1823 61.2372 -51.5625
6.31477 10.2062 -14.0625
6.31477 10.2062 -64.0625
49.616 10.2062 -39.0625
20.7485 51.031 -39.0625
6.31477 10.2062 -39.0625
6.31477 10.2062 -89.0625
49.616 10.2062 -64.0625
20.7485 51.031 -64.0625
27.9654 10.2062 -26.5625
27.9654 10.2062 -76.5625
71.2667 10.2062 -51.5625
42.3992 51.031 -51.5625
13.5316 30.6186 -26.5625
13.5316 30.6186 -76.5625
56.8329 30.6186 -51.5625
27.9654 71.4435 -51.5625
8.11899 0 -4.6875
8.11899 0 -54.6875
51.4203 0 -29.6875
22.5527 40.8248 -29.6875
8.11899 0 -29.6875
8.11899 0 -79.6875
51.4203 0 -54.6875
22.5527 40.8248 -54.6875
29.7696 0 -17.1875
29.7696 0 -67.1875
73.0709 0 -42.1875
44.2034 40.8248 -42.1875
15.3359 20.4124 -17.1875
15.3359 20.4124 -67.1875
58.6371 20.4124 -42.1875
29.7696 61.2372 -42.1875
8.11899 0 -17.1875
8.11899 0 -67.1875
51.4203 0 -42.1875
22.5527 40.8248 -42.1875
8.11899 0 -42.1875
8.11899 0 -92.1875
51.4203 0 -67.1875
22.5527 40.8248 -67.1875
29.7696 0 -29.6875
29.7696 0 -79.6875
73.0709 0 -54.6875
44.2034 40.8248 -54.6875
15.3359 20.4124 -29.6875
15.3359 20.4124 -79.6875
58.6371 20.4124 -54.6875
29.7696 61.2372 -54.6875
18.9443 0 -10.9375
18.9443 0 -60.9375
62.2456 0 -35.9375
33.3781 40.8248 -35.9375
18.9443 0 -35.9375
18.9443 0 -85.9375
62.2456 0 -60.9375
33.3781 40.8248 -60.9375
40.5949 0 -23.4375
40.5949 0 -73.4375
83.8962 0 -48.4375
55.0287 40.8248 -48.4375
26.1612 20.4124 -23.4375
26.1612 20.4124 -73.4375
69.4625 20.4124 -48.4375
40.5949 61.2372 -48.4375
11.7274 10.2062 -10.9375
11.7274 10.2062 -60.9375
55.0287 10.2062 -35.9375
26.1612 51.031 -35.9375
11.7274 10.2062 -35.9375
11.7274 10.2062 -85.9375
55.0287 10.2062 -60.9375
26.1612 51.031 -60.9375
33.3781 10.2062 -23.4375
33.3781 10.2062 -73.4375
76.6793 10.2062 -48.4375
47.8118 51.031 -48.4375
18.9443 30.6186 -23.4375
18.9443 30.6186 -73.4375
62.2456 30.6186 -48.4375
33.3781 71.4435 -48.4375
4.51055 5.1031 -4.6875
4.51055 5.1031 -54.6875
47.8118 5.1031 -29.6875
18.9443 45.9279 -29.6875
4.51055 5.1031 -29.6875
4.51055 5.1031 -79.6875
47.8118 5.1031 -54.6875
18.9443 45.9279 -54.6875
26.1612 5.1031 -17.1875
26.1612 5.1031 -67.1875
69.4625 5.1031 -42.1875
40.5949 45.9279 -42.1875
11.7274 25.5155 -17.1875
11.7274 25.5155 -67.1875
55.0287 25.5155 -42.1875
26.1612 66.3403 -42.1875
4.51055 5.1031 -17.1875
4.51055 5.1031 -67.1875
47.8118 5.1031 -42.1875
18.9443 45.9279 -42.1875
4.51055 5.1031 -42.1875
4.51055 5.1031 -92.1875
47.8118 5.1031 -67.1875
18.9443 45.9279 -67.1875
26.1612 5.1031 -29.6875
26.1612 5.1031 -79.6875
69.4625 5.1031 -54.6875
40.5949 45.9279 -54.6875
11.7274 25.5155 -29.6875
11.7274 25.5155 -79.6875
55.0287 25.5155 -54.6875
26.1612 66.3403 -54.6875
15.3359 5.1031 -10.9375
15.3359 5.1031 -60.9375
58.6371 5.1031 -35.9375
29.7696 45.9279 -35.9375
15.3359 5.1031 -35.9375
15.3359 5.1031 -85.9375
58.6371 5.1031 -60.9375
29.7696 45.9279 -60.9375
36.9865 5.1031 -23.4375
36.9865 5.1031 -73.4375
80.2878 5.1031 -48.4375
51.4203 45.9279 -48.4375
22.5527 25.5155 -23.4375
22.5527 25.5155 -73.4375
65.854 25.5155 -48.4375
36.9865 66.3403 -48.4375
8.11899 15.3093 -10.9375
8.11899 15.3093 -60.9375
51.4203 15.3093 -35.9375
22.5527 56.1341 -35.9375
8.11899 15.3093 -35.9375
8.11899 15.3093 -85.9375
51.4203 15.3093 -60.9375
22.5527 56.1341 -60.9375
29.7696 15.3093 -23.4375
29.7696 15.3093 -73.4375
73.0709 15.3093 -48.4375
44.2034 56.1341 -48.4375
15.3359 35.7217 -23.4375
15.3359 35.7217 -73.4375
58.6371 35.7217 -48.4375
29.7696 76.5466 -48.4375
0.90211 2.55155 -1.5625
0.90211 2.55155 -51.5625
44.2034 2.55155 -26.5625
15.3359 43.3764 -26.5625
0.90211 2.55155 -26.5625
0.90211 2.55155 -76.5625
44.2034 2.55155 -51.5625
15.3359 43.3764 -51.5625
22.5527 2.55155 -14.0625
22.5527 2.55155 -64.0625
65.854 2.55155 -39.0625
36.9865 43.3764 -39.0625
8.11899 22.964 -14.0625
8.11899 22.964 -64.0625
51.4203 22.964 -39.0625
22.5527 63.7888 -39.0625
0.90211 2.55155 -14.0625
0.90211 2.55155 -64.0625
44.2034 2.55155 -39.0625
15.3359 43.3764 -39.0625
0.90211 2.55155 -39.0625
0.90211 2.55155 -89.0625
44.2034 2.55155 -64.0625
15.3359 43.3764 -64.0625
22.5527 2.55155 -26.5625
22.5527 2.55155 -76.5625
65.854 2.55155 -51.5625
36.9865 43.3764 -51.5625
8.11899 22.964 -26.5625
8.11899 22.964 -76.5625
51.4203 22.964 -51.5625
22.5527 63.7888 -51.5625
11.7274 2.55155 -7.8125
11.7274 2.55155 -57.8125
55.0287 2.55155 -32.8125
26.1612 43.3764 -32.8125
11.7274 2.55155 -32.8125
11.7274 2.55155 -82.8125
55.0287 2.55155 -57.8125
26.1612 43.3764 -57.8125
33.3781 2.55155 -20.3125
33.3781 2.55155 -70.3125
76.6793 2.55155 -45.3125
47.8118 43.3764 -45.3125
18.9443 22.964 -20.3125
18.9443 22.964 -70.3125
62.2456 22.964 -45.3125
33.3781 63.7888 -45.3125
4.51055 12.7578 -7.8125
4.51055 12.7578 -57.8125
47.8118 12.7578 -32.8125
18.9443 53.5826 -32.8125
4.51055 12.7578 -32.8125
4.51055 12.7578 -82.8125
47.8118 12.7578 -57.8125
18.9443 53.5826 -57.8125
26.1612 12.7578 -20.3125
26.1612 12.7578 -70.3125
69.4625 12.7578 -45.3125
40.5949 53.5826 -45.3125
11.7274 33.1702 -20.3125
11.7274 33.1702 -70.3125
55.0287 33.1702 -45.3125
26.1612 73.995 -45.3125
0.90211 2.55155 -7.8125
0.90211 2.55155 -57.8125
44.2034 2.55155 -32.8125
15.3359 43.3764 -32.8125
0.90211 2.55155 -32.8125
0.90211 2.55155 -82.8125
44.2034 2.55155 -57.8125
15.3359 43.3764 -57.8125
22.5527 2.55155 -20.3125
22.5527 2.55155 -70.3125
65.854 2.55155 -45.3125
36.9865 43.3764 -45.3125
8.11899 22.964 -20.3125
8.11899 22.964 -70.3125
51.4203 22.964 -45.3125
22.5527 63.7888 -45.3125
0.90211 2.55155 -20.3125
0.90211 2.55155 -70.3125
44.2034 2.55155 -45.3125
15.3359 43.3764 -45.3125
0.90211 2.55155 -45.3125
0.90211 2.55155 -95.3125
44.2034 2.55155 -70.3125
15.3359 43.3764 -70.3125
22.5527 2.55155 -32.8125
22.5527 2.55155 -82.8125
65.854 2.55155 -57.8125
36.9865 43.3764 -57.8125
8.11899 22.964 -32.8125
8.11899 22.964 -82.8125
51.4203 22.964 -57.8125
22.5527 63.7888 -57.8125
11.7274 2.55155 -14.0625
11.7274 2.55155 -64.0625
55.0287 2.55155 -39.0625
26.1612 43.3764 -39.0625
11.7274 2.55155 -39.0625
11.7274 2.55155 -89.0625
55.0287 2.55155 -64.0625
26.1612 43.3764 -64.0625
33.3781 2.55155 -26.5625
33.3781 2.55155 -76.5625
76.6793 2.55155 -51.5625
47.8118 43.3764 -51.5625
18.9443 22.964 -26.5625
18.9443 22.964 -76.5625
62.2456 22.964 -51.5625
33.3781 63.7888 -51.5625
4.51055 12.7578 -14.0625
4.51055 12.7578 -64.0625
47.8118 12.7578 -39.0625
18.9443 53.5826 -39.0625
4.51055 12.7578 -39.0625
4.51055 12.7578 -89.0625
47.8118 12.7578 -64.0625
18.9443 53.5826 -64.0625
26.1612 12.7578 -26.5625
26.1612 12.7578 -76.5625
69.4625 12.7578 -51.5625
40.5949 53.5826 -51.5625
11.7274 33.1702 -26.5625
11.7274 33.1702 -76.5625
55.0287 33.1702 -51.5625
26.1612 73.995 -51.5625
6.31477 2.55155 -4.6875
6.31477 2.55155 -54.6875
49.616 2.55155 -29.6875
20.7485 43.3764 -29.6875
6.31477 2.55155 -29.6875
6.31477 2.55155 -79.6875
49.616 2.55155 -54.6875
20.7485 43.3764 -54.6875
27.9654 2.55155 -17.1875
27.9654 2.55155 -67.1875
71.2667 2.55155 -42.1875
42.3992 43.3764 -42.1875
13.5316 22.964 -17.1875
13.5316 22.964 -67.1875
56.8329 22.964 -42.1875
27.9654 63.7888 -42.1875
6.31477 2.55155 -17.1875
6.31477 2.55155 -67.1875
49.616 2.55155 -42.1875
20.7485 43.3764 -42.1875
6.31477 2.55155 -42.1875
6.31477 2.55155 -92.1875
49.616 2.55155 -67.1875
20.7485 43.3764 -67.1875
27.9654 2.55155 -29.6875
27.9654 2.55155 -79.6875
71.2667 2.55155 -54.6875
42.3992 43.3764 -54.6875
13.5316 22.964 -29.6875
13.5316 22.964 -79.6875
56.8329 22.964 -54.6875
27.9654 63.7888 -54.6875
17.1401 2.55155 -10.9375
17.1401 2.55155 -60.9375
60.4414 2.55155 -35.9375
31.5738 43.3764 -35.9375
17.1401 2.55155 -35.9375
17.1401 2.55155 -85.9375
60.4414 2.55155 -60.9375
31.5738 43.3764 -60.9375
38.7907 2.55155 -23.4375
38.7907 2.55155 -73.4375
82.092 2.55155 -48.4375
53.2245 43.3764 -48.4375
24.357 22.964 -23.4375
24.357 22.964 -73.4375
67.6582 22.964 -48.4375
38.7907 63.7888 -48.4375
9.92321 12.7578 -10.9375
9.92321 12.7578 -60.9375
53.2245 12.7578 -35.9375
24.357 53.5826 -35.9375
9.92321 12.7578 -35.9375
9.92321 12.7578 -85.9375
53.2245 12.7578 -60.9375
24.357 53.5826 -60.9375
31.5738 12.7578 -23.4375
31.5738 12.7578 -73.4375
74.8751 12.7578 -48.4375
46.0076 53.5826 -48.4375
17.1401 33.1702 -23.4375
17.1401 33.1702 -73.4375
60.4414 33.1702 -48.4375
31.5738 73.995 -48.4375
2.70633 7.65466 -4.6875
2.70633 7.65466 -54.6875
46.0076 7.65466 -29.6875
17.1401 48.4795 -29.6875
2.70633 7.65466 -29.6875
2.70633 7.65466 -79.6875
46.0076 7.65466 -54.6875
17.1401 48.4795 -54.6875
24.357 7.65466 -17.1875
24.357 7.65466 -67.1875
67.6582 7.65466 -42.1875
38.7907 48.4795 -42.1875
9.92321 28.0671 -17.1875
9.92321 28.0671 -67.1875
53.2245 28.0671 -42.1875
24.357 68.8919 -42.1875
2.70633 7.65466 -17.1875
2.70633 7.65466 -67.1875
46.0076 7.65466 -42.1875
17.1401 48.4795 -42.1875
2.70633 7.65466 -42.1875
2.70633 7.65466 -92.1875
46.0076 7.65466 -67.1875
17.1401 48.4795 -67.1875
24.357 7.65466 -29.6875
24.357 7.65466 -79.6875
67.6582 7.65466 -54.6875
38.7907 48.4795 -54.6875
9.92321 28.0671 -29.6875
9.92321 28.0671 -79.6875
53.2245 28.0671 -54.6875
24.357 68.8919 -54.6875
13.5316 7.65466 -10.9375
13.5316 7.65466 -60.9375
56.8329 7.65466 -35.9375
27.9654 48.4795 -35.9375
13.5316 7.65466 -35.9375
13.5316 7.65466 -85.9375
56.8329 7.65466 -60.9375
27.9654 48.4795 -60.9375
35.1823 7.65466 -23.4375
35.1823 7.65466 -73.4375
78.4836 7.65466 -48.4375
49.616 48.4795 -48.4375
20.7485 28.0671 -23.4375
20.7485 28.0671 -73.4375
64.0498 28.0671 -48.4375
35.1823 68.8919 -48.4375
6.31477 17.8609 -10.9375
6.31477 17.8609 -60.9375
49.616 17.8609 -35.9375
20.7485 58.6857 -35.9375
6.31477 17.8609 -35.9375
6.31477 17.8609 -85.9375
49.616 17.8609 -60.9375
20.7485 58.6857 -60.9375
27.9654 17.8609 -23.4375
27.9654 17.8609 -73.4375
71.2667 17.8609 -48.4375
42.3992 58.6857 -48.4375
13.5316 38.2733 -23.4375
13.5316 38.2733 -73.4375
56.8329 38.2733 -48.4375
27.9654 79.0981 -48.4375
0 0 3.125
43.3013 0 -21.875
14.4338 40.8248 -21.875
21.6506 0 -9.375
21.6506 0 -59.375
64.9519 0 -34.375
36.0844 40.8248 -34.375
7.21688 20.4124 -9.375
7.21688 20.4124 -59.375
50.5181 20.4124 -34.375
21.6506 61.2372 -34.375
10.8253 0 -3.125
10.8253 0 -53.125
54.1266 0 -28.125
25.2591 40.8248 -28.125
10.8253 0 -28.125
10.8253 0 -78.125
54.1266 0 -53.125
25.2591 40.8248 -53.125
32.476 0 -15.625
32.476 0 -65.625
75.7772 0 -40.625
46.9097 40.8248 -40.625
18.0422 20.4124 -15.625
18.0422 20.4124 -65.625
61.3435 20.4124 -40.625
32.476 61.2372 -40.625
3.60844 10.2062 -3.125
3.60844 10.2062 -53.125
46.9097 10.2062 -28.125
18.0422 51.031 -28.125
3.60844 10.2062 -28.125
3.60844 10.2062 -78.125
46.9097 10.2062 -53.125
18.0422 51.031 -53.125
25.2591 10.2062 -15.625
25.2591 10.2062 -65.625
68.5603 10.2062 -40.625
39.6928 51.031 -40.625
10.8253 30.6186 -15.625
10.8253 30.6186 -65.625
54.1266 30.6186 -40.625
25.2591 71.4435 -40.625
5.41266 0 0
5.41266 0 -50
48.7139 0 -25
19.8464 40.8248 -25
5.41266 0 -25
5.41266 0 -75
48.7139 0 -50
19.8464 40.8248 -50
27.0633 0 -12.5
27.0633 0 -62.5
70.3646 0 -37.5
41.4971 40.8248 -37.5
12.6295 20.4124 -12.5
12.6295 20.4124 -62.5
55.9308 20.4124 -37.5
27.0633 61.2372 -37.5
5.41266 0 -12.5
5.41266 0 -62.5
48.7139 0 -37.5
19.8464 40.8248 -37.5
5.41266 0 -37.5
5.41266 0 -87.5
48.7139 0 -62.5
19.8464 40.8248 -62.5
27.0633 0 -25
27.0633 0 -75
70.3646 0 -50
41.4971 40.8248 -50
12.6295 20.4124 -25
12.6295 20.4124 -75
55.9308 20.4124 -50
27.0633 61.2372 -50
16.238 0 -6.25
16.238 0 -56.25
59.5392 0 -31.25
30.6717 40.8248 -31.25
16.238 0 -31.25
16.238 0 -81.25
59.5392 0 -56.25
30.6717 40.8248 -56.25
37.8886 0 -18.75
37.8886 0 -68.75
81.1899 0 -43.75
52.3224 40.8248 -43.75
23.4549 20.4124 -18.75
23.4549 20.4124 -68.75
66.7561 20.4124 -43.75
37.8886 61.2372 -43.75
9.0211 10.2062 -6.25
9.0211 10.2062 -56.25
52.3224 10.2062 -31.25
23.4549 51.031 -31.25
9.0211 10.2062 -31.25
9.0211 10.2062 -81.25
52.3224 10.2062 -56.25
23.4549 51.031 -56.25
30.6717 10.2062 -18.75
30.6717 10.2062 -68.75
73.973 10.2062 -43.75
45.1055 51.031 -43.75
16.238 30.6186 -18.75
16.238 30.6186 -68.75
59.5392 30.6186 -43.75
30.6717 71.4435 -43.75
1.80422 5.1031 0
1.80422 5.1031 -50
45.1055 5.1031 -25
16.238 45.9279 -25
1.80422 5.1031 -25
1.80422 5.1031 -75
45.1055 5.1031 -50
16.238 45.9279 -50
23.4549 5.1031 -12.5
23.4549 5.1031 -62.5
66.7561 5.1031 -37.5
37.8886 45.9279 -37.5
9.0211 25.5155 -12.5
9.0211 25.5155 -62.5
52.3224 25.5155 -37.5
23.4549 66.3403 -37.5
1.80422 5.1031 -12.5
1.80422 5.1031 -62.5
45.1055 5.1031 -37.5
16.238 45.9279 -37.5
1.80422 5.1031 -37.5
1.80422 5.1031 -87.5
45.1055 5.1031 -62.5
16.238 45.9279 -62.5
23.4549 5.1031 -25
23.4549 5.1031 -75
66.7561 5.1031 -50
37.8886 45.9279 -50
9.0211 25.5155 -25
9.0211 25.5155 -75
52.3224 25.5155 -50
23.4549 66.3403 -50
12.6295 5.1031 -6.25
12.6295 5.1031 -56.25
55.9308 5.1031 -31.25
27.0633 45.9279 -31.25
12.6295 5.1031 -31.25
12.6295 5.1031 -81.25
55.9308 5.1031 -56.25
27.0633 45.9279 -56.25
34.2802 5.1031 -18.75
34.2802 5.1031 -68.75
77.5814 5.1031 -43.75
48.7139 45.9279 -43.75
19.8464 25.5155 -18.75
19.8464 25.5155 -68.75
63.1477 25.5155 -43.75
34.2802 66.3403 -43.75
5.41266 15.3093 -6.25
5.41266 15.3093 -56.25
48.7139 15.3093 -31.25
19.8464 56.1341 -31.25
5.41266 15.3093 -31.25
5.41266 15.3093 -81.25
48.7139 15.3093 -56.25
19.8464 56.1341 -56.25
27.0633 15.3093 -18.75
27.0633 15.3093 -68.75
70.3646 15.3093 -43.75
41.4971 56.1341 -43.75
12.6295 35.7217 -18.75
12.6295 35.7217 -68.75
55.9308 35.7217 -43.75
27.0633 76.5466 -43.75
2.70633 0 1.5625
2.70633 0 -48.4375
46.0076 0 -23.4375
17.1401 40.8248 -23.4375
2.70633 0 -23.4375
2.70633 0 -73.4375
46.0076 0 -48.4375
17.1401 40.8248 -48.4375
24.357 0 -10.9375
24.357 0 -60.9375
67.6582 0 -35.9375
38.7907 40.8248 -35.9375
9.92321 20.4124 -10.9375
9.92321 20.4124 -60.9375
53.2245 20.4124 -35.9375
24.357 61.2372 -35.9375
2.70633 0 -10.9375
2.70633 0 -60.9375
46.0076 0 -35.9375
17.1401 40.8248 -35.9375
2.70633 0 -35.9375
2.70633 0 -85.9375
46.0076 0 -60.9375
17.1401 40.8248 -60.9375
24.357 0 -23.4375
24.357 0 -73.4375
67.6582 0 -48.4375
38.7907 40.8248 -48.4375
9.92321 20.4124 -23.4375
9.92321 20.4124 -73.4375
53.2245 20.4124 -48.4375
24.357 61.2372 -48.4375
13.5316 0 -4.6875
13.5316 0 -54.6875
56.8329 0 -29.6875
27.9654 40.8248 -29.6875
13.5316 0 -29.6875
13.5316 0 -79.6875
56.8329 0 -54.6875
27.9654 40.8248 -54.6875
35.1823 0 -17.1875
35.1823 0 -67.1875
78.4836 0 -42.1875
49.616 40.8248 -42.1875
20.7485 20.4124 -17.1875
20.7485 20.4124 -67.1875
64.0498 20.4124 -42.1875
35.1823 61.2372 -42.1875
6.31477 10.2062 -4.6875
6.31477 10.2062 -54.6875
49.616 10.2062 -29.6875
20.7485 51.031 -29.6875
6.31477 10.2062 -29.6875
6.31477 10.2062 -79.6875
49.616 10.2062 -54.6875
20.7485 51.031 -54.6875
27.9654 10.2062 -17.1875
27.9654 10.2062 -67.1875
71.2667 10.2062 -42.1875
42.3992 51.031 -42.1875
13.5316 30.6186 -17.1875
13.5316 30.6186 -67.1875
56.8329 30.6186 -42.1875
27.9654 71.4435 -42.1875
2.70633 0 -4.6875
2.70633 0 -54.6875
46.0076 0 -29.6875
17.1401 40.8248 -29.6875
2.70633 0 -29.6875
2.70633 0 -79.6875
46.0076 0 -54.6875
17.1401 40.8248 -54.6875
24.357 0 -17.1875
24.357 0 -67.1875
67.6582 0 -42.1875
38.7907 40.8248 -42.1875
9.92321 20.4124 -17.1875
9.92321 20.4124 -67.1875
53.2245 20.4124 -42.1875
24.357 61.2372 -42.1875
2.70633 0 -17.1875
2.70633 0 -67.1875
46.0076 0 -42.1875
17.1401 40.8248 -42.1875
2.70633 0 -42.1875
2.70633 0 -92.1875
46.0076 0 -67.1875
17.1401 40.8248 -67.1875
24.357 0 -29.6875
24.357 0 -79.6875
67.6582 0 -54.6875
38.7907 40.8248 -54.6875
9.92321 20.4124 -29.6875
9.92321 20.4124 -79.6875
53.2245 20.4124 -54.6875
24.357 61.2372 -54.6875
13.5316 0 -10.9375
13.5316 0 -60.9375
56.8329 0 -35.9375
27.9654 40.8248 -35.9375
13.5316 0 -35.9375
13.5316 0 -85.9375
56.8329 0 -60.9375
27.9654 40.8248 -60.9375
35.1823 0 -23.4375
35.1823 0 -73.4375
78.4836 0 -48.4375
49.616 40.8248 -48.4375
20.7485 20.4124 -23.4375
20.7485 20.4124 -73.4375
64.0498 20.4124 -48.4375
35.1823 61.2372 -48.4375
6.31477 10.2062 -10.9375
6.31477 10.2062 -60.9375
49.616 10.2062 -35.9375
20.7485 51.031 -35.9375
6.31477 10.2062 -35.9375
6.31477 10.2062 -85.9375
49.616 10.2062 -60.9375
20.7485 51.031 -60.9375
27.9654 10.2062 -23.4375
27.9654 10.2062 -73.4375
71.2667 10.2062 -48.4375
42.3992 51.031 -48.4375
13.5316 30.6186 -23.4375
13.5316 30.6186 -73.4375
56.8329 30.6186 -48.4375
27.9654 71.4435 -48.4375
8.11899 0 -1.5625
8.11899 0 -51.5625
51.4203 0 -26.5625
22.5527 40.8248 -26.5625
8.11899 0 -26.5625
8.11899 0 -76.5625
51.4203 0 -51.5625
22.5527 40.8248 -51.5625
29.7696 0 -14.0625
29.7696 0 -64.0625
73.0709 0 -39.0625
44.2034 40.8248 -39.0625
15.3359 20.4124 -14.0625
15.3359 20.4124 -64.0625
58.6371 20.4124 -39.0625
29.7696 61.2372 -39.0625
8.11899 0 -14.0625
8.11899 0 -64.0625
51.4203 0 -39.0625
22.5527 40.8248 -39.0625
8.11899 0 -39.0625
8.11899 0 -89.0625
51.4203 0 -64.0625
22.5527 40.8248 -64.0625
29.7696 0 -26.5625
29.7696 0 -76.5625
73.0709 0 -51.5625
44.2034 40.8248 -51.5625
15.3359 20.4124 -26.5625
15.3359 20.4124 -76.5625
58.6371 20.4124 -51.5625
29.7696 61.2372 -51.5625
18.9443 0 -7.8125
18.9443 0 -57.8125
62.2456 0 -32.8125
33.3781 40.8248 -32.8125
18.9443 0 -32.8125
18.9443 0 -82.8125
62.2456 0 -57.8125
33.3781 40.8248 -57.8125
40.5949 0 -20.3125
40.5949 0 -70.3125
83.8962 0 -45.3125
55.0287 40.8248 -45.3125
26.1612 20.4124 -20.3125
26.1612 20.4124 -70.3125
69.4625 20.4124 -45.3125
40.5949 61.2372 -45.3125
11.7274 10.2062 -7.8125
11.7274 10.2062 -57.8125
55.0287 10.2062 -32.8125
26.1612 51.031 -32.8125
11.7274 10.2062 -32.8125
11.7274 10.2062 -82.8125
55.0287 10.2062 -57.8125
26.1612 51.031 -57.8125
33.3781 10.2062 -20.3125
33.3781 10.2062 -70.3125
76.6793 10.2062 -45.3125
47.8118 51.031 -45.3125
18.9443 30.6186 -20.3125
18.9443 30.6186 -70.3125
62.2456 30.6186 -45.3125
33.3781 71.4435 -45.3125
4.51055 5.1031 -1.5625
4.51055 5.1031 -51.5625
47.8118 5.1031 -26.5625
18.9443 45.9279 -26.5625
4.51055 5.1031 -26.5625
4.51055 5.1031 -76.5625
47.8118 5.1031 -51.5625
18.9443 45.9279 -51.5625
26.1612 5.1031 -14.0625
26.1612 5.1031 -64.0625
69.4625 5.1031 -39.0625
40.5949 45.9279 -39.0625
11.7274 25.5155 -14.0625
11.7274 25.5155 -64.0625
55.0287 25.5155 -39.0625
26.1612 66.3403 -39.0625
4.51055 5.1031 -14.0625
4.51055 5.1031 -64.0625
47.8118 5.1031 -39.0625
18.9443 45.9279 -39.0625
4.51055 5.1031 -39.0625
4.51055 5.1031 -89.0625
47.8118 5.1031 -64.0625
18.9443 45.9279 -64.0625
26.1612 5.1031 -26.5625
26.1612 5.1031 -76.5625
69.4625 5.1031 -51.5625
40.5949 45.9279 -51.5625
11.7274 25.5155 -26.5625
11.7274 25.5155 -76.5625
55.0287 25.5155 -51.5625
26.1612 66.3403 -51.5625
15.3359 5.1031 -7.8125
15.3359 5.1031 -57.8125
58.6371 5.1031 -32.8125
29.7696 45.9279 -32.8125
15.3359 5.1031 -32.8125
15.3359 5.1031 -82.8125
58.6371 5.1031 -57.8125
29.7696 45.9279 -57.8125
36.9865 5.1031 -20.3125
36.9865 5.1031 -70.3125
80.2878 5.1031 -45.3125
51.4203 45.9279 -45.3125
22.5527 25.5155 -20.3125
22.5527 25.5155 -70.3125
65.854 25.5155 -45.3125
36.9865 66.3403 -45.3125
8.11899 15.3093 -7.8125
8.11899 15.3093 -57.8125
51.4203 15.3093 -32.8125
22.5527 56.1341 -32.8125
8.11899 15.3093 -32.8125
8.11899 15.3093 -82.8125
51.4203 15.3093 -57.8125
22.5527 56.1341 -57.8125
29.7696 15.3093 -20.3125
29.7696 15.3093 -70.3125
73.0709 15.3093 -45.3125
44.2034 56.1341 -45.3125
15.3359 35.7217 -20.3125
15.3359 35.7217 -70.3125
58.6371 35.7217 -45.3125
29.7696 76.5466 -45.3125
0.90211 2.55155 1.5625
0.90211 2.55155 -48.4375
44.2034 2.55155 -23.4375
15.3359 43.3764 -23.4375
0.90211 2.55155 -23.4375
0.90211 2.55155 -73.4375
44.2034 2.55155 -48.4375
15.3359 43.3764 -48.4375
22.5527 2.55155 -10.9375
22.5527 2.55155 -60.9375
65.854 2.55155 -35.9375
36.9865 43.3764 -35.9375
8.11899 22.964 -10.9375
8.11899 22.964 -60.9375
51.4203 22.964 -35.9375
22.5527 63.7888 -35.9375
0.90211 2.55155 -10.9375
0.90211 2.55155 -60.9375
44.2034 2.55155 -35.9375
15.3359 43.3764 -35.9375
0.90211 2.55155 -35.9375
0.90211 2.55155 -85.9375
44.2034 2.55155 -60.9375
15.3359 43.3764 -60.9375
22.5527 2.55155 -23.4375
22.5527 2.55155 -73.4375
65.854 2.55155 -48.4375
36.9865 43.3764 -48.4375
8.11899 22.964 -23.4375
8.11899 22.964 -73.4375
51.4203 22.964 -48.4375
22.5527 63.7888 -48.4375
11.7274 2.55155 -4.6875
11.7274 2.55155 -54.6875
55.0287 2.55155 -29.6875
26.1612 43.3764 -29.6875
11.7274 2.55155 -29.6875
11.7274 2.55155 -79.6875
55.0287 2.55155 -54.6875
26.1612 43.3764 -54.6875
33.3781 2.55155 -17.1875
33.3781 2.55155 -67.1875
76.6793 2.55155 -42.1875
47.8118 43.3764 -42.1875
18.9443 22.964 -17.1875
18.9443 22.964 -67.1875
62.2456 22.964 -42.1875
33.3781 63.7888 -42.1875
4.51055 12.7578 -4.6875
4.51055 12.7578 -54.6875
47.8118 12.7578 -29.6875
18.9443 53.5826 -29.6875
4.51055 12.7578 -29.6875
4.51055 12.7578 -79.6875
47.8118 12.7578 -54.6875
18.9443 53.5826 -54.6875
26.1612 12.7578 -17.1875
26.1612 12.7578 -67.1875
69.4625 12.7578 -42.1875
40.5949 53.5826 -42.1875
11.7274 33.1702 -17.1875
11.7274 33.1702 -67.1875
55.0287 33.1702 -42.1875
26.1612 73.995 -42.1875
0.90211 2.55155 -4.6875
0.90211 2.55155 -54.6875
44.2034 2.55155 -29.6875
15.3359 43.3764 -29.6875
0.90211 2.55155 -29.6875
0.90211 2.55155 -79.6875
44.2034 2.55155 -54.6875
15.3359 43.3764 -54.6875
22.5527 2.55155 -17.1875
22.5527 2.55155 -67.1875
65.854 2.55155 -42.1875
36.9865 43.3764 -42.1875
8.11899 22.964 -17.1875
8.11899 22.964 -67.1875
51.4203 22.964 -42.1875
22.5527 63.7888 -42.1875
0.90211 2.55155 -17.1875
0.90211 2.55155 -67.1875
44.2034 2.55155 -42.1875
15.3359 43.3764 -42.1875
0.90211 2.55155 -42.1875
0.90211 2.55155 -92.1875
44.2034 2.55155 -67.1875
15.3359 43.3764 -67.1875
22.5527 2.55155 -29.6875
22.5527 2.55155 -79.6875
65.854 2.55155 -54.6875
36.9865 43.3764 -54.6875
8.11899 22.964 -29.6875
8.11899 22.964 -79.6875
51.4203 22.964 -54.6875
22.5527 63.7888 -54.6875
11.7274 2.55155 -10.9375
11.7274 2.55155 -60.9375
55.0287 2.55155 -35.9375
26.1612 43.3764 -35.9375
11.7274 2.55155 -35.9375
11.7274 2.55155 -85.9375
55.0287 2.55155 -60.9375
26.1612 43.3764 -60.9375
33.3781 2.55155 -23.4375
33.3781 2.55155 -73.4375
76.6793 2.55155 -48.4375
47.8118 43.3764 -48.4375
18.9443 22.964 -23.4375
18.9443 22.964 -73.4375
62.2456 22.964 -48.4375
33.3781 63.7888 -48.4375
4.51055 12.7578 -10.9375
4.51055 12.7578 -60.9375
47.8118 12.7578 -35.9375
18.9443 53.5826 -35.9375
4.51055 12.7578 -35.9375
4.51055 12.7578 -85.9375
47.8118 12.7578 -60.9375
18.9443 53.5826 -60.9375
26.1612 12.7578 -23.4375
26.1612 12.7578 -73.4375
69.4625 12.7578 -48.4375
40.5949 53.5826 -48.4375
11.7274 33.1702 -23.4375
11.7274 33.1702 -73.4375
55.0287 33.1702 -48.4375
26.1612 73.995 -48.4375
6.31477 2.55155 -1.5625
6.31477 2.55155 -51.5625
49.616 2.55155 -26.5625
20.7485 43.3764 -26.5625
6.31477 2.55155 -26.5625
6.31477 2.55155 -76.5625
49.616 2.55155 -51.5625
20.7485 43.3764 -51.5625
27.9654 2.55155 -14.0625
27.9654 2.55155 -64.0625
71.2667 2.55155 -39.0625
42.3992 43.3764 -39.0625
13.5316 22.964 -14.0625
13.5316 22.964 -64.0625
56.8329 22.964 -39.0625
27.9654 63.7888 -39.0625
6.31477 2.55155 -14.0625
6.31477 2.55155 -64.0625
49.616 2.55155 -39.0625
20.7485 43.3764 -39.0625
6.31477 2.55155 -39.0625
6.31477 2.55155 -89.0625
49.616 2.55155 -64.0625
20.7485 43.3764 -64.0625
27.9654 2.55155 -26.5625
27.9654 2.55155 -76.5625
71.2667 2.55155 -51.5625
42.3992 43.3764 -51.5625
13.5316 22.964 -26.5625
13.5316 22.964 -76.5625
56.8329 22.964 -51.5625
27.9654 63.7888 -51.5625
17.1401 2.55155 -7.8125
17.1401 2.55155 -57.8125
60.4414 2.55155 -32.8125
31.5738 43.3764 -32.8125
17.1401 2.55155 -32.8125
17.1401 2.55155 -82.8125
60.4414 2.55155 -57.8125
31.5738 43.3764 -57.8125
38.7907 2.55155 -20.3125
38.7907 2.55155 -70.3125
82.092 2.55155 -45.3125
53.2245 43.3764 -45.3125
24.357 22.964 -20.3125
24.357 22.964 -70.3125
67.6582 22.964 -45.3125
38.7907 63.7888 -45.3125
9.92321 12.7578 -7.8125
9.92321 12.7578 -57.8125
53.2245 12.7578 -32.8125
24.357 53.5826 -32.8125
9.92321 12.7578 -32.8125
9.92321 12.7578 -82.8125
53.2245 12.7578 -57.8125
24.357 53.5826 -57.8125
31.5738 12.7578 -20.3125
31.5738 12.7578 -70.3125
74.8751 12.7578 -45.3125
46.0076 53.5826 -45.3125
17.1401 33.1702 -20.3125
17.1401 33.1702 -70.3125
60.4414 33.1702 -45.3125
31.5738 73.995 -45.3125
2.70633 7.65466 -1.5625
2.70633 7.65466 -51.5625
46.0076 7.65466 -26.5625
17.1401 48.4795 -26.5625
2.70633 7.65466 -26.5625
2.70633 7.65466 -76.5625
46.0076 7.65466 -51.5625
17.1401 48.4795 -51.5625
24.357 7.65466 -14.0625
24.357 7.65466 -64.0625
67.6582 7.65466 -39.0625
38.7907 48.4795 -39.0625
9.92321 28.0671 -14.0625
9.92321 28.0671 -64.0625
53.2245 28.0671 -39.0625
24.357 68.8919 -39.0625
2.70633 7.65466 -14.0625
2.70633 7.65466 -64.0625
46.0076 7.65466 -39.0625
17.1401 48.4795 -39.0625
2.70633 7.65466 -39.0625
2.70633 7.65466 -89.0625
46.0076 7.65466 -64.0625
17.1401 48.4795 -64.0625
24.357 7.65466 -26.5625
24.357 7.65466 -76.5625
67.6582 7.65466 -51.5625
38.7907 48.4795 -51.5625
9.92321 28.0671 -26.5625
9.92321 28.0671 -76.5625
53.2245 28.0671 -51.5625
24.357 68.8919 -51.5625
13.5316 7.65466 -7.8125
13.5316 7.65466 -57.8125
56.8329 7.65466 -32.8125
27.9654 48.4795 -32.8125
13.5316 7.65466 -32.8125
13.5316 7.65466 -82.8125
56.8329 7.65466 -57.8125
27.9654 48.4795 -57.8125
35.1823 7.65466 -20.3125
35.1823 7.65466 -70.3125
78.4836 7.65466 -45.3125
49.616 48.4795 -45.3125
20.7485 28.0671 -20.3125
20.7485 28.0671 -70.3125
64.0498 28.0671 -45.3125
35.1823 68.8919 -45.3125
6.31477 17.8609 -7.8125
6.31477 17.8609 -57.8125
49.616 17.8609 -32.8125
20.7485 58.6857 -32.8125
6.31477 17.8609 -32.8125
6.31477 17.8609 -82.8125
49.616 17.8609 -57.8125
20.7485 58.6857 -57.8125
27.9654 17.8609 -20.3125
27.9654 17.8609 -70.3125
71.2667 17.8609 -45.3125
42.3992 58.6857 -45.3125
13.5316 38.2733 -20.3125
13.5316 38.2733 -70.3125
56.8329 38.2733 -45.3125
27.9654 79.0981 -45.3125
86.6025 0 -46.875
57.735 40.8248 -46.875
28.8675 20.4124 -21.875
28.8675 20.4124 -71.875
72.1688 20.4124 -46.875
43.3013 61.2372 -46.875
14.4338 10.2062 -9.375
14.4338 10.2062 -59.375
57.735 10.2062 -34.375
28.8675 51.031 -34.375
14.4338 10.2062 -34.375
14.4338 10.2062 -84.375
57.735 10.2062 -59.375
28.8675 51.031 -59.375
36.0844 10.2062 -21.875
36.0844 10.2062 -71.875
79.3857 10.2062 -46.875
50.5182 51.031 -46.875
21.6506 30.6186 -21.875
21.6506 30.6186 -71.875
64.9519 30.6186 -46.875
36.0844 71.4435 -46.875
7.21688 5.1031 -3.125
7.21688 5.1031 -53.125
50.5181 5.1031 -28.125
21.6506 45.9279 -28.125
7.21688 5.1031 -28.125
7.21688 5.1031 -78.125
50.5181 5.1031 -53.125
21.6506 45.9279 -53.125
28.8675 5.1031 -15.625
28.8675 5.1031 -65.625
72.1688 5.1031 -40.625
43.3013 45.9279 -40.625
14.4338 25.5155 -15.625
14.4338 25.5155 -65.625
57.735 25.5155 -40.625
28.8675 66.3403 -40.625
7.21688 5.1031 -15.625
7.21688 5.1031 -65.625
50.5181 5.1031 -40.625
21.6506 45.9279 -40.625
7.21688 5.1031 -40.625
7.21688 5.1031 -90.625
50.5181 5.1031 -65.625
21.6506 45.9279 -65.625
28.8675 5.1031 -28.125
28.8675 5.1031 -78.125
72.1688 5.1031 -53.125
43.3013 45.9279 -53.125
14.4338 25.5155 -28.125
14.4338 25.5155 -78.125
57.735 25.5155 -53.125
28.8675 66.3403 -53.125
18.0422 5.1031 -9.375
18.0422 5.1031 -59.375
61.3435 5.1031 -34.375
32.476 45.9279 -34.375
18.0422 5.1031 -34.375
18.0422 5.1031 -84.375
61.3435 5.1031 -59.375
32.476 45.9279 -59.375
39.6928 5.1031 -21.875
39.6928 5.1031 -71.875
82.9941 5.1031 -46.875
54.1266 45.9279 -46.875
25.2591 25.5155 -21.875
25.2591 25.5155 -71.875
68.5603 25.5155 -46.875
39.6928 66.3403 -46.875
10.8253 15.3093 -9.375
10.8253 15.3093 -59.375
54.1266 15.3093 -34.375
25.2591 56.1341 -34.375
10.8253 15.3093 -34.375
10.8253 15.3093 -84.375
54.1266 15.3093 -59.375
25.2591 56.1341 -59.375
32.476 15.3093 -21.875
32.476 15.3093 -71.875
75.7772 15.3093 -46.875
46.9097 56.1341 -46.875
18.0422 35.7217 -21.875
18.0422 35.7217 -71.875
61.3435 35.7217 -46.875
32.476 76.5466 -46.875
3.60844 2.55155 0
3.60844 2.55155 -50
46.9097 2.55155 -25
18.0422 43.3764 -25
3.60844 2.55155 -25
3.60844 2.55155 -75
46.9097 2.55155 -50
18.0422 43.3764 -50
25.2591 2.55155 -12.5
25.2591 2.55155 -62.5
68.5603 2.55155 -37.5
39.6928 43.3764 -37.5
10.8253 22.964 -12.5
10.8253 22.964 -62.5
54.1266 22.964 -37.5
25.2591 63.7888 -37.5
3.60844 2.55155 -12.5
3.60844 2.55155 -62.5
46.9097 2.55155 -37.5
18.0422 43.3764 -37.5
3.60844 2.55155 -37.5
3.60844 2.55155 -87.5
46.9097 2.55155 -62.5
18.0422 43.3764 -62.5
25.2591 2.55155 -25
25.2591 2.55155 -75
68.5603 2.55155 -50
39.6928 43.3764 -50
10.8253 22.964 -25
10.8253 22.964 -75
54.1266 22.964 -50
25.2591 63.7888 -50
14.4338 2.55155 -6.25
14.4338 2.55155 -56.25
57.735 2.55155 -31.25
28.8675 43.3764 -31.25
14.4338 2.55155 -31.25
14.4338 2.55155 -81.25
57.735 2.55155 -56.25
28.8675 43.3764 -56.25
36.0844 2.55155 -18.75
36.0844 2.55155 -68.75
79.3857 2.55155 -43.75
50.5182 43.3764 -43.75
21.6506 22.964 -18.75
21.6506 22.964 -68.75
64.9519 22.964 -43.75
36.0844 63.7888 -43.75
7.21688 12.7578 -6.25
7.21688 12.7578 -56.25
50.5181 12.7578 -31.25
21.6506 53.5826 -31.25
7.21688 12.7578 -31.25
7.21688 12.7578 -81.25
50.5181 12.7578 -56.25
21.6506 53.5826 -56.25
28.8675 12.7578 -18.75
28.8675 12.7578 -68.75
72.1688 12.7578 -43.75
43.3013 53.5826 -43.75
14.4338 33.1702 -18.75
14.4338 33.1702 -68.75
57.735 33.1702 -43.75
28.8675 73.995 -43.75
3.60844 2.55155 -6.25
3.60844 2.55155 -56.25
46.9097 2.55155 -31.25
18.0422 43.3764 -31.25
3.60844 2.55155 -31.25
3.60844 2.55155 -81.25
46.9097 2.55155 -56.25
18.0422 43.3764 -56.25
25.2591 2.55155 -18.75
25.2591 2.55155 -68.75
68.5603 2.55155 -43.75
39.6928 43.3764 -43.75
10.8253 22.964 -18.75
10.8253 22.964 -68.75
54.1266 22.964 -43.75
25.2591 63.7888 -43.75
3.60844 2.55155 -18.75
3.60844 2.55155 -68.75
46.9097 2.55155 -43.75
18.0422 43.3764 -43.75
3.60844 2.55155 -43.75
3.60844 2.55155 -93.75
46.9097 2.55155 -68.75
18.0422 43.3764 -68.75
25.2591 2.55155 -31.25
25.2591 2.55155 -81.25
68.5603 2.55155 -56.25
39.6928 43.3764 -56.25
10.8253 22.964 -31.25
10.8253 22.964 -81.25
54.1266 22.964 -56.25
25.2591 63.7888 -56.25
14.4338 2.55155 -12.5
14.4338 2.55155 -62.5
57.735 2.55155 -37.5
28.8675 43.3764 -37.5
14.4338 2.55155 -37.5
14.4338 2.55155 -87.5
57.735 2.55155 -62.5
28.8675 43.3764 -62.5
36.0844 2.55155 -25
36.0844 2.55155 -75
79.3857 2.55155 -50
50.5182 43.3764 -50
21.6506 22.964 -25
21.6506 22.964 -75
64.9519 22.964 -50
36.0844 63.7888 -50
7.21688 12.7578 -12.5
7.21688 12.7578 -62.5
50.5181 12.7578 -37.5
21.6506 53.5826 -37.5
7.21688 12.7578 -37.5
7.21688 12.7578 -87.5
50.5181 12.7578 -62.5
21.6506 53.5826 -62.5
28.8675 12.7578 -25
28.8675 12.7578 -75
72.1688 12.7578 -50
43.3013 53.5826 -50
14.4338 33.1702 -25
14.4338 33.1702 -75
57.735 33.1702 -50
28.8675 73.995 -50
9.0211 2.55155 -3.125
9.0211 2.55155 -53.125
52.3224 2.55155 -28.125
23.4549 43.3764 -28.125
9.0211 2.55155 -28.125
9.0211 2.55155 -78.125
52.3224 2.55155 -53.125
23.4549 43.3764 -53.125
30.6717 2.55155 -15.625
30.6717 2.55155 -65.625
73.973 2.55155 -40.625
45.1055 43.3764 -40.625
16.238 22.964 -15.625
16.238 22.964 -65.625
59.5392 22.964 -40.625
30.6717 63.7888 -40.625
9.0211 2.55155 -15.625
9.0211 2.55155 -65.625
52.3224 2.55155 -40.625
23.4549 43.3764 -40.625
9.0211 2.55155 -40.625
9.0211 2.55155 -90.625
52.3224 2.55155 -65.625
23.4549 43.3764 -65.625
30.6717 2.55155 -28.125
30.6717 2.55155 -78.125
73.973 2.55155 -53.125
45.1055 43.3764 -53.125
16.238 22.964 -28.125
16.238 22.964 -78.125
59.5392 22.964 -53.125
30.6717 63.7888 -53.125
19.8464 2.55155 -9.375
19.8464 2.55155 -59.375
63.1477 2.55155 -34.375
34.2802 43.3764 -34.375
19.8464 2.55155 -34.375
19.8464 2.55155 -84.375
63.1477 2.55155 -59.375
34.2802 43.3764 -59.375
41.4971 2.55155 -21.875
41.4971 2.55155 -71.875
84.7983 2.55155 -46.875
55.9308 43.3764 -46.875
27.0633 22.964 -21.875
27.0633 22.964 -71.875
70.3646 22.964 -46.875
41.4971 63.7888 -46.875
12.6295 12.7578 -9.375
12.6295 12.7578 -59.375
55.9308 12.7578 -34.375
27.0633 53.5826 -34.375
12.6295 12.7578 -34.375
12.6295 12.7578 -84.375
55.9308 12.7578 -59.375
27.0633 53.5826 -59.375
34.2802 12.7578 -21.875
34.2802 12.7578 -71.875
77.5814 12.7578 -46.875
48.7139 53.5826 -46.875
19.8464 33.1702 -21.875
19.8464 33.1702 -71.875
63.1477 33.1702 -46.875
34.2802 73.995 -46.875
5.41266 7.65466 -3.125
5.41266 7.65466 -53.125
48.7139 7.65466 -28.125
19.8464 48.4795 -28.125
5.41266 7.65466 -28.125
5.41266 7.65466 -78.125
48.7139 7.65466 -53.125
19.8464 48.4795 -53.125
27.0633 7.65466 -15.625
27.0633 7.65466 -65.625
70.3646 7.65466 -40.625
41.4971 48.4795 -40.625
12.6295 28.0671 -15.625
12.6295 28.0671 -65.625
55.9308 28.0671 -40.625
27.0633 68.8919 -40.625
5.41266 7.65466 -15.625
5.41266 7.65466 -65.625
48.7139 7.65466 -40.625
19.8464 48.4795 -40.625
5.41266 7.65466 -40.625
5.41266 7.65466 -90.625
48.7139 7.65466 -65.625
19.8464 48.4795 -65.625
27.0633 7.65466 -28.125
27.0633 7.65466 -78.125
70.3646 7.65466 -53.125
41.4971 48.4795 -53.125
12.6295 28.0671 -28.125
12.6295 28.0671 -78.125
55.9308 28.0671 -53.125
27.0633 68.8919 -53.125
16.238 7.65466 -9.375
16.238 7.65466 -59.375
59.5392 7.65466 -34.375
30.6717 48.4795 -34.375
16.238 7.65466 -34.375
16.238 7.65466 -84.375
59.5392 7.65466 -59.375
30.6717 48.4795 -59.375
37.8886 7.65466 -21.875
37.8886 7.65466 -71.875
81.1899 7.65466 -46.875
52.3224 48.4795 -46.875
23.4549 28.0671 -21.875
23.4549 28.0671 -71.875
66.7561 28.0671 -46.875
37.8886 68.8919 -46.875
9.0211 17.8609 -9.375
9.0211 17.8609 -59.375
52.3224 17.8609 -34.375
23.4549 58.6857 -34.375
9.0211 17.8609 -34.375
9.0211 17.8609 -84.375
52.3224 17.8609 -59.375
23.4549 58.6857 -59.375
30.6717 17.8609 -21.875
30.6717 17.8609 -71.875
73.973 17.8609 -46.875
45.1055 58.6857 -46.875
16.238 38.2733 -21.875
16.238 38.2733 -71.875
59.5392 38.2733 -46.875
30.6717 79.0981 -46.875
28.8675 81.6497 -46.875
