ply
format ascii 1.0
comment PCL generated
obj_info is_cyberware_data 0
obj_info is_mesh 0
obj_info is_warped 0
obj_info is_interlaced 0
obj_info num_cols 14
obj_info num_rows 1
obj_info echo_rgb_offset_x 0
obj_info echo_rgb_offset_y 0
obj_info echo_rgb_offset_z 0
obj_info echo_rgb_frontfocus 0.0
obj_info echo_rgb_backfocus 0.0
obj_info echo_rgb_pixelsize 0.0
obj_info echo_rgb_centerpixel 0
obj_info echo_frames 1
obj_info echo_lgincr 0.0
element vertex 14
property float x
property float y
property float z
end_header
0 0 0
50 0 0
0 0 -50
50 0 -50
25 35.3553 -25
0 0 50
50 0 50
25 35.3553 25
100 0 0
100 0 -50
75 35.3553 -25
100 0 50
75 35.3553 25
50 70.7107 0
