ply
format ascii 1.0
comment PCL generated
obj_info is_cyberware_data 0
obj_info is_mesh 0
obj_info is_warped 0
obj_info is_interlaced 0
obj_info num_cols 514
obj_info num_rows 1
obj_info echo_rgb_offset_x 0
obj_info echo_rgb_offset_y 0
obj_info echo_rgb_offset_z 0
obj_info echo_rgb_frontfocus 0.0
obj_info echo_rgb_backfocus 0.0
obj_info echo_rgb_pixelsize 0.0
obj_info echo_rgb_centerpixel 0
obj_info echo_frames 1
obj_info echo_lgincr 0.0
element vertex 514
property float x
property float y
property float z
end_header
0 0 0
0 0 -8
6.9282 0 -4
2.3094 6.53197 -4
0 0 -4
0 0 -12
6.9282 0 -8
2.3094 6.53197 -8
3.4641 0 -2
3.4641 0 -10
10.3923 0 -6
5.7735 6.53197 -6
1.1547 3.26599 -2
1.1547 3.26599 -10
8.0829 3.26599 -6
3.4641 9.79796 -6
0 0 -2
0 0 -10
6.9282 0 -6
2.3094 6.53197 -6
0 0 -6
0 0 -14
6.9282 0 -10
2.3094 6.53197 -10
3.4641 0 -4
3.4641 0 -12
10.3923 0 -8
5.7735 6.53197 -8
1.1547 3.26599 -4
1.1547 3.26599 -12
8.0829 3.26599 -8
3.4641 9.79796 -8
1.73205 0 -1
1.73205 0 -9
8.66025 0 -5
4.04145 6.53197 -5
1.73205 0 -5
1.73205 0 -13
8.66025 0 -9
4.04145 6.53197 -9
5.19615 0 -3
5.19615 0 -11
12.1244 0 -7
7.50555 6.53197 -7
2.88675 3.26599 -3
2.88675 3.26599 -11
9.81495 3.26599 -7
5.19615 9.79796 -7
0.57735 1.63299 -1
0.57735 1.63299 -9
7.50555 1.63299 -5
2.88675 8.16497 -5
0.57735 1.63299 -5
0.57735 1.63299 -13
7.50555 1.63299 -9
2.88675 8.16497 -9
4.04145 1.63299 -3
4.04145 1.63299 -11
10.9697 1.63299 -7
6.35085 8.16497 -7
1.73205 4.89898 -3
1.73205 4.89898 -11
8.66025 4.89898 -7
4.04145 11.431 -7
0 0 -1
0 0 -9
6.9282 0 -5
2.3094 6.53197 -5
0 0 -5
0 0 -13
6.9282 0 -9
2.3094 6.53197 -9
3.4641 0 -3
3.4641 0 -11
10.3923 0 -7
5.7735 6.53197 -7
1.1547 3.26599 -3
1.1547 3.26599 -11
8.0829 3.26599 -7
3.4641 9.79796 -7
0 0 -3
0 0 -11
6.9282 0 -7
2.3094 6.53197 -7
0 0 -7
0 0 -15
6.9282 0 -11
2.3094 6.53197 -11
3.4641 0 -5
3.4641 0 -13
10.3923 0 -9
5.7735 6.53197 -9
1.1547 3.26599 -5
1.1547 3.26599 -13
8.0829 3.26599 -9
3.4641 9.79796 -9
1.73205 0 -2
1.73205 0 -10
8.66025 0 -6
4.04145 6.53197 -6
1.73205 0 -6
1.73205 0 -14
8.66025 0 -10
4.04145 6.53197 -10
5.19615 0 -4
5.19615 0 -12
12.1244 0 -8
7.50555 6.53197 -8
2.88675 3.26599 -4
2.88675 3.26599 -12
9.81495 3.26599 -8
5.19615 9.79796 -8
0.57735 1.63299 -2
0.57735 1.63299 -10
7.50555 1.63299 -6
2.88675 8.16497 -6
0.57735 1.63299 -6
0.57735 1.63299 -14
7.50555 1.63299 -10
2.88675 8.16497 -10
4.04145 1.63299 -4
4.04145 1.63299 -12
10.9697 1.63299 -8
6.35085 8.16497 -8
1.73205 4.89898 -4
1.73205 4.89898 -12
8.66025 4.89898 -8
4.04145 11.431 -8
0.866025 0 -0.5
0.866025 0 -8.5
7.79423 0 -4.5
3.17543 6.53197 -4.5
0.866025 0 -4.5
0.866025 0 -12.5
7.79423 0 -8.5
3.17543 6.53197 -8.5
4.33013 0 -2.5
4.33013 0 -10.5
11.2583 0 -6.5
6.63953 6.53197 -6.5
2.02073 3.26599 -2.5
2.02073 3.26599 -10.5
8.94893 3.26599 -6.5
4.33013 9.79796 -6.5
0.866025 0 -2.5
0.866025 0 -10.5
7.79423 0 -6.5
3.17543 6.53197 -6.5
0.866025 0 -6.5
0.866025 0 -14.5
7.79423 0 -10.5
3.17543 6.53197 -10.5
4.33013 0 -4.5
4.33013 0 -12.5
11.2583 0 -8.5
6.63953 6.53197 -8.5
2.02073 3.26599 -4.5
2.02073 3.26599 -12.5
8.94893 3.26599 -8.5
4.33013 9.79796 -8.5
2.59808 0 -1.5
2.59808 0 -9.5
9.52628 0 -5.5
4.90748 6.53197 -5.5
2.59808 0 -5.5
2.59808 0 -13.5
9.52628 0 -9.5
4.90748 6.53197 -9.5
6.06218 0 -3.5
6.06218 0 -11.5
12.9904 0 -7.5
8.37158 6.53197 -7.5
3.75278 3.26599 -3.5
3.75278 3.26599 -11.5
10.681 3.26599 -7.5
6.06218 9.79796 -7.5
1.44338 1.63299 -1.5
1.44338 1.63299 -9.5
8.37158 1.63299 -5.5
3.75278 8.16497 -5.5
1.44338 1.63299 -5.5
1.44338 1.63299 -13.5
8.37158 1.63299 -9.5
3.75278 8.16497 -9.5
4.90748 1.63299 -3.5
4.90748 1.63299 -11.5
11.8357 1.63299 -7.5
7.21688 8.16497 -7.5
2.59808 4.89898 -3.5
2.59808 4.89898 -11.5
9.52628 4.89898 -7.5
4.90748 11.431 -7.5
0.288675 0.816497 -0.5
0.288675 0.816497 -8.5
7.21688 0.816497 -4.5
2.59808 7.34847 -4.5
0.288675 0.816497 -4.5
0.288675 0.816497 -12.5
7.21688 0.816497 -8.5
2.59808 7.34847 -8.5
3.75278 0.816497 -2.5
3.75278 0.816497 -10.5
10.681 0.816497 -6.5
6.06218 7.34847 -6.5
1.44338 4.08248 -2.5
1.44338 4.08248 -10.5
8.37158 4.08248 -6.5
3.75278 10.6145 -6.5
0.288675 0.816497 -2.5
0.288675 0.816497 -10.5
7.21688 0.816497 -6.5
2.59808 7.34847 -6.5
0.288675 0.816497 -6.5
0.288675 0.816497 -14.5
7.21688 0.816497 -10.5
2.59808 7.34847 -10.5
3.75278 0.816497 -4.5
3.75278 0.816497 -12.5
10.681 0.816497 -8.5
6.06218 7.34847 -8.5
1.44338 4.08248 -4.5
1.44338 4.08248 -12.5
8.37158 4.08248 -8.5
3.75278 10.6145 -8.5
2.02073 0.816497 -1.5
2.02073 0.816497 -9.5
8.94893 0.816497 -5.5
4.33013 7.34847 -5.5
2.02073 0.816497 -5.5
2.02073 0.816497 -13.5
8.94893 0.816497 -9.5
4.33013 7.34847 -9.5
5.48483 0.816497 -3.5
5.48483 0.816497 -11.5
12.413 0.816497 -7.5
7.79423 7.34847 -7.5
3.17543 4.08248 -3.5
3.17543 4.08248 -11.5
10.1036 4.08248 -7.5
5.48483 10.6145 -7.5
0.866025 2.44949 -1.5
0.866025 2.44949 -9.5
7.79423 2.44949 -5.5
3.17543 8.98146 -5.5
0.866025 2.44949 -5.5
0.866025 2.44949 -13.5
7.79423 2.44949 -9.5
3.17543 8.98146 -9.5
4.33013 2.44949 -3.5
4.33013 2.44949 -11.5
11.2583 2.44949 -7.5
6.63953 8.98146 -7.5
2.02073 5.71548 -3.5
2.02073 5.71548 -11.5
8.94893 5.71548 -7.5
4.33013 12.2474 -7.5
0 0 1
6.9282 0 -3
2.3094 6.53197 -3
3.4641 0 -1
3.4641 0 -9
10.3923 0 -5
5.7735 6.53197 -5
1.1547 3.26599 -1
1.1547 3.26599 -9
8.0829 3.26599 -5
3.4641 9.79796 -5
1.73205 0 0
1.73205 0 -8
8.66025 0 -4
4.04145 6.53197 -4
1.73205 0 -4
1.73205 0 -12
8.66025 0 -8
4.04145 6.53197 -8
5.19615 0 -2
5.19615 0 -10
12.1244 0 -6
7.50555 6.53197 -6
2.88675 3.26599 -2
2.88675 3.26599 -10
9.81495 3.26599 -6
5.19615 9.79796 -6
0.57735 1.63299 0
0.57735 1.63299 -8
7.50555 1.63299 -4
2.88675 8.16497 -4
0.57735 1.63299 -4
0.57735 1.63299 -12
7.50555 1.63299 -8
2.88675 8.16497 -8
4.04145 1.63299 -2
4.04145 1.63299 -10
10.9697 1.63299 -6
6.35085 8.16497 -6
1.73205 4.89898 -2
1.73205 4.89898 -10
8.66025 4.89898 -6
4.04145 11.431 -6
0.866025 0 0.5
0.866025 0 -7.5
7.79423 0 -3.5
3.17543 6.53197 -3.5
0.866025 0 -3.5
0.866025 0 -11.5
7.79423 0 -7.5
3.17543 6.53197 -7.5
4.33013 0 -1.5
4.33013 0 -9.5
11.2583 0 -5.5
6.63953 6.53197 -5.5
2.02073 3.26599 -1.5
2.02073 3.26599 -9.5
8.94893 3.26599 -5.5
4.33013 9.79796 -5.5
0.866025 0 -1.5
0.866025 0 -9.5
7.79423 0 -5.5
3.17543 6.53197 -5.5
0.866025 0 -5.5
0.866025 0 -13.5
7.79423 0 -9.5
3.17543 6.53197 -9.5
4.33013 0 -3.5
4.33013 0 -11.5
11.2583 0 -7.5
6.63953 6.53197 -7.5
2.02073 3.26599 -3.5
2.02073 3.26599 -11.5
8.94893 3.26599 -7.5
4.33013 9.79796 -7.5
2.59808 0 -0.5
2.59808 0 -8.5
9.52628 0 -4.5
4.90748 6.53197 -4.5
2.59808 0 -4.5
2.59808 0 -12.5
9.52628 0 -8.5
4.90748 6.53197 -8.5
6.06218 0 -2.5
6.06218 0 -10.5
12.9904 0 -6.5
8.37158 6.53197 -6.5
3.75278 3.26599 -2.5
3.75278 3.26599 -10.5
10.681 3.26599 -6.5
6.06218 9.79796 -6.5
1.44338 1.63299 -0.5
1.44338 1.63299 -8.5
8.37158 1.63299 -4.5
3.75278 8.16497 -4.5
1.44338 1.63299 -4.5
1.44338 1.63299 -12.5
8.37158 1.63299 -8.5
3.75278 8.16497 -8.5
4.90748 1.63299 -2.5
4.90748 1.63299 -10.5
11.8357 1.63299 -6.5
7.21688 8.16497 -6.5
2.59808 4.89898 -2.5
2.59808 4.89898 -10.5
9.52628 4.89898 -6.5
4.90748 11.431 -6.5
0.288675 0.816497 0.5
0.288675 0.816497 -7.5
7.21688 0.816497 -3.5
2.59808 7.34847 -3.5
0.288675 0.816497 -3.5
0.288675 0.816497 -11.5
7.21688 0.816497 -7.5
2.59808 7.34847 -7.5
3.75278 0.816497 -1.5
3.75278 0.816497 -9.5
10.681 0.816497 -5.5
6.06218 7.34847 -5.5
1.44338 4.08248 -1.5
1.44338 4.08248 -9.5
8.37158 4.08248 -5.5
3.75278 10.6145 -5.5
0.288675 0.816497 -1.5
0.288675 0.816497 -9.5
7.21688 0.816497 -5.5
2.59808 7.34847 -5.5
0.288675 0.816497 -5.5
0.288675 0.816497 -13.5
7.21688 0.816497 -9.5
2.59808 7.34847 -9.5
3.75278 0.816497 -3.5
3.75278 0.816497 -11.5
10.681 0.816497 -7.5
6.06218 7.34847 -7.5
1.44338 4.08248 -3.5
1.44338 4.08248 -11.5
8.37158 4.08248 -7.5
3.75278 10.6145 -7.5
2.02073 0.816497 -0.5
2.02073 0.816497 -8.5
8.94893 0.816497 -4.5
4.33013 7.34847 -4.5
2.02073 0.816497 -4.5
2.02073 0.816497 -12.5
8.94893 0.816497 -8.5
4.33013 7.34847 -8.5
5.48483 0.816497 -2.5
5.48483 0.816497 -10.5
12.413 0.816497 -6.5
7.79423 7.34847 -6.5
3.17543 4.08248 -2.5
3.17543 4.08248 -10.5
10.1036 4.08248 -6.5
5.48483 10.6145 -6.5
0.866025 2.44949 -0.5
0.866025 2.44949 -8.5
7.79423 2.44949 -4.5
3.17543 8.98146 -4.5
0.866025 2.44949 -4.5
0.866025 2.44949 -12.5
7.79423 2.44949 -8.5
3.17543 8.98146 -8.5
4.33013 2.44949 -2.5
4.33013 2.44949 -10.5
11.2583 2.44949 -6.5
6.63953 8.98146 -6.5
2.02073 5.71548 -2.5
2.02073 5.71548 -10.5
8.94893 5.71548 -6.5
4.33013 12.2474 -6.5
13.8564 0 -7
9.2376 6.53197 -7
4.6188 3.26599 -3
4.6188 3.26599 -11
11.547 3.26599 -7
6.9282 9.79796 -7
2.3094 1.63299 -1
2.3094 1.63299 -9
9.2376 1.63299 -5
4.6188 8.16497 -5
2.3094 1.63299 -5
2.3094 1.63299 -13
9.2376 1.63299 -9
4.6188 8.16497 -9
5.7735 1.63299 -3
5.7735 1.63299 -11
12.7017 1.63299 -7
8.0829 8.16497 -7
3.4641 4.89898 -3
3.4641 4.89898 -11
10.3923 4.89898 -7
5.7735 11.431 -7
1.1547 0.816497 0
1.1547 0.816497 -8
8.0829 0.816497 -4
3.4641 7.34847 -4
1.1547 0.816497 -4
1.1547 0.816497 -12
8.0829 0.816497 -8
3.4641 7.34847 -8
4.6188 0.816497 -2
4.6188 0.816497 -10
11.547 0.816497 -6
6.9282 7.34847 -6
2.3094 4.08248 -2
2.3094 4.08248 -10
9.2376 4.08248 -6
4.6188 10.6145 -6
1.1547 0.816497 -2
1.1547 0.816497 -10
8.0829 0.816497 -6
3.4641 7.34847 -6
1.1547 0.816497 -6
1.1547 0.816497 -14
8.0829 0.816497 -10
3.4641 7.34847 -10
4.6188 0.816497 -4
4.6188 0.816497 -12
11.547 0.816497 -8
6.9282 7.34847 -8
2.3094 4.08248 -4
2.3094 4.08248 -12
9.2376 4.08248 -8
4.6188 10.6145 -8
2.88675 0.816497 -1
2.88675 0.816497 -9
9.81495 0.816497 -5
5.19615 7.34847 -5
2.88675 0.816497 -5
2.88675 0.816497 -13
9.81495 0.816497 -9
5.19615 7.34847 -9
6.35085 0.816497 -3
6.35085 0.816497 -11
13.2791 0.816497 -7
8.66025 7.34847 -7
4.04145 4.08248 -3
4.04145 4.08248 -11
10.9697 4.08248 -7
6.35085 10.6145 -7
1.73205 2.44949 -1
1.73205 2.44949 -9
8.66025 2.44949 -5
4.04145 8.98146 -5
1.73205 2.44949 -5
1.73205 2.44949 -13
8.66025 2.44949 -9
4.04145 8.98146 -9
5.19615 2.44949 -3
5.19615 2.44949 -11
12.1244 2.44949 -7
7.50555 8.98146 -7
2.88675 5.71548 -3
2.88675 5.71548 -11
9.81495 5.71548 -7
5.19615 12.2474 -7
4.6188 13.0639 -7
